G04 #@! TF.GenerationSoftware,KiCad,Pcbnew,(6.0.0)*
G04 #@! TF.CreationDate,2022-01-05T20:15:47-08:00*
G04 #@! TF.ProjectId,Duo2_Direwolf,44756f32-5f44-4697-9265-776f6c662e6b,rev?*
G04 #@! TF.SameCoordinates,PX2faf080PY8f0d180*
G04 #@! TF.FileFunction,Soldermask,Bot*
G04 #@! TF.FilePolarity,Negative*
%FSLAX46Y46*%
G04 Gerber Fmt 4.6, Leading zero omitted, Abs format (unit mm)*
G04 Created by KiCad (PCBNEW (6.0.0)) date 2022-01-05 20:15:47*
%MOMM*%
%LPD*%
G01*
G04 APERTURE LIST*
%ADD10C,0.150000*%
%ADD11R,1.600000X1.600000*%
%ADD12O,1.600000X1.600000*%
%ADD13C,1.600000*%
%ADD14R,1.700000X1.700000*%
%ADD15O,1.700000X1.700000*%
%ADD16R,1.508000X1.508000*%
%ADD17C,1.508000*%
%ADD18R,1.650000X1.650000*%
%ADD19C,1.650000*%
%ADD20R,1.800000X1.800000*%
%ADD21C,1.800000*%
%ADD22C,2.200000*%
%ADD23C,1.700000*%
%ADD24R,2.200000X2.200000*%
%ADD25O,2.200000X2.200000*%
%ADD26C,3.200000*%
%ADD27R,1.400000X1.400000*%
%ADD28C,1.400000*%
%ADD29C,1.530000*%
%ADD30C,2.550000*%
%ADD31R,1.200000X1.200000*%
%ADD32C,1.200000*%
%ADD33R,1.500000X1.050000*%
%ADD34O,1.500000X1.050000*%
%ADD35C,3.180000*%
%ADD36R,1.635000X1.635000*%
%ADD37C,1.635000*%
G04 APERTURE END LIST*
D10*
X0Y0D02*
X118872000Y0D01*
X118872000Y0D02*
X118872000Y3048000D01*
X118872000Y3048000D02*
X0Y3048000D01*
X0Y3048000D02*
X0Y0D01*
G36*
X0Y0D02*
G01*
X118872000Y0D01*
X118872000Y3048000D01*
X0Y3048000D01*
X0Y0D01*
G37*
X0Y74168000D02*
X118872000Y74168000D01*
X118872000Y74168000D02*
X118872000Y71120000D01*
X118872000Y71120000D02*
X0Y71120000D01*
X0Y71120000D02*
X0Y74168000D01*
G36*
X0Y74168000D02*
G01*
X118872000Y74168000D01*
X118872000Y71120000D01*
X0Y71120000D01*
X0Y74168000D01*
G37*
D11*
X42720000Y17910000D03*
D12*
X42720000Y15370000D03*
X42720000Y12830000D03*
X42720000Y10290000D03*
X50340000Y10290000D03*
X50340000Y12830000D03*
X50340000Y15370000D03*
X50340000Y17910000D03*
D13*
X111252000Y54356000D03*
D12*
X103632000Y54356000D03*
D13*
X114046000Y23368000D03*
D12*
X106426000Y23368000D03*
D13*
X101252000Y54356000D03*
D12*
X93632000Y54356000D03*
D13*
X53000000Y18000000D03*
X58000000Y18000000D03*
X81560000Y60728000D03*
D12*
X81560000Y53108000D03*
D13*
X111192000Y64106000D03*
D12*
X103572000Y64106000D03*
D13*
X111085000Y44450000D03*
X106085000Y44450000D03*
X101252000Y60856000D03*
D12*
X93632000Y60856000D03*
D13*
X111250000Y27305000D03*
X106250000Y27305000D03*
D14*
X93505000Y25545000D03*
D15*
X93505000Y28085000D03*
X93505000Y30625000D03*
X93505000Y33165000D03*
X93505000Y35705000D03*
X93505000Y38245000D03*
X93505000Y40785000D03*
X93505000Y43325000D03*
X93505000Y45865000D03*
X93505000Y48405000D03*
D11*
X30988000Y64963112D03*
D13*
X30988000Y62963112D03*
X24930000Y65278000D03*
D12*
X14770000Y65278000D03*
D16*
X43470000Y65024000D03*
D17*
X43470000Y62484000D03*
X43470000Y59944000D03*
D13*
X85598000Y64008000D03*
D12*
X77978000Y64008000D03*
D13*
X101192000Y64106000D03*
D12*
X93572000Y64106000D03*
D18*
X128500000Y47627500D03*
D19*
X128500000Y45087500D03*
X128500000Y42547500D03*
X128500000Y40007500D03*
X128500000Y37467500D03*
X128500000Y34927500D03*
X128500000Y32387500D03*
X128500000Y29847500D03*
X128500000Y27307500D03*
X128500000Y24767500D03*
D20*
X126335000Y54605000D03*
D21*
X126335000Y57145000D03*
D13*
X111125000Y40640000D03*
D12*
X103505000Y40640000D03*
D22*
X85350000Y47710000D03*
X85350000Y26370000D03*
X40060000Y26370000D03*
X40060000Y47710000D03*
D14*
X43680000Y25570000D03*
D23*
X43680000Y48430000D03*
D15*
X46220000Y25570000D03*
X46220000Y48430000D03*
X48760000Y25570000D03*
X48760000Y48430000D03*
X51300000Y25570000D03*
X51300000Y48430000D03*
X53840000Y25570000D03*
X53840000Y48430000D03*
X56380000Y25570000D03*
X56380000Y48430000D03*
X58920000Y25570000D03*
X58920000Y48430000D03*
X61460000Y25570000D03*
X61460000Y48430000D03*
X64000000Y25570000D03*
X64000000Y48430000D03*
X66540000Y25570000D03*
X66540000Y48430000D03*
X69080000Y25570000D03*
X69080000Y48430000D03*
X71620000Y25570000D03*
X71620000Y48430000D03*
X74160000Y25570000D03*
X74160000Y48430000D03*
X76700000Y25570000D03*
X76700000Y48430000D03*
X79240000Y25570000D03*
X79240000Y48430000D03*
X81780000Y25570000D03*
X81780000Y48430000D03*
D13*
X6190000Y5500000D03*
D12*
X13810000Y5500000D03*
D13*
X29000000Y19500000D03*
X24000000Y19500000D03*
X43500000Y21500000D03*
X48500000Y21500000D03*
X22000000Y43500000D03*
X27000000Y43500000D03*
X101252000Y57606000D03*
D12*
X93632000Y57606000D03*
D14*
X39624000Y15225000D03*
D15*
X39624000Y12685000D03*
X39624000Y10145000D03*
D13*
X53190000Y12840000D03*
D12*
X60810000Y12840000D03*
D13*
X39584000Y19050000D03*
X34584000Y19050000D03*
D24*
X25080000Y68580000D03*
D25*
X14920000Y68580000D03*
D26*
X11135000Y12205000D03*
X11135000Y23635000D03*
D27*
X17485000Y22365000D03*
D28*
X20025000Y21095000D03*
X17485000Y19825000D03*
X20025000Y18555000D03*
X17485000Y17285000D03*
X20025000Y16015000D03*
X17485000Y14745000D03*
X20025000Y13475000D03*
D29*
X6235000Y24245000D03*
X7755000Y21705000D03*
X6235000Y14135000D03*
X7755000Y11595000D03*
D30*
X14185000Y25795000D03*
X14185000Y10045000D03*
D31*
X74310000Y53168000D03*
D32*
X72810000Y53168000D03*
D13*
X111250000Y30500000D03*
X106250000Y30500000D03*
X78060000Y60728000D03*
D12*
X78060000Y53108000D03*
D24*
X48768000Y53340000D03*
D25*
X38608000Y53340000D03*
D13*
X111192000Y60856000D03*
D12*
X103572000Y60856000D03*
D31*
X22277401Y39500000D03*
D32*
X23777401Y39500000D03*
D13*
X36322000Y13462000D03*
D12*
X28702000Y13462000D03*
D13*
X39116000Y65024000D03*
X39116000Y60024000D03*
X22000000Y55500000D03*
X27000000Y55500000D03*
D11*
X22190000Y35500000D03*
D12*
X29810000Y35500000D03*
D13*
X111085000Y48260000D03*
X106085000Y48260000D03*
X28702000Y10160000D03*
D12*
X36322000Y10160000D03*
D13*
X22000000Y58750000D03*
X27000000Y58750000D03*
X22000000Y62000000D03*
X27000000Y62000000D03*
D20*
X126335000Y16505000D03*
D21*
X126335000Y19045000D03*
D13*
X22000000Y52500000D03*
X27000000Y52500000D03*
X6190000Y30500000D03*
D12*
X13810000Y30500000D03*
D14*
X64023000Y53340000D03*
D15*
X66563000Y53340000D03*
X69103000Y53340000D03*
D33*
X106110000Y33980000D03*
D34*
X106110000Y35250000D03*
X106110000Y36520000D03*
D13*
X22000000Y49500000D03*
X27000000Y49500000D03*
X36576000Y59984000D03*
X36576000Y64984000D03*
D35*
X9467500Y63440000D03*
X9467500Y38440000D03*
D36*
X10887500Y45400000D03*
D37*
X10887500Y48170000D03*
X10887500Y50940000D03*
X10887500Y53710000D03*
X10887500Y56480000D03*
X8047500Y46785000D03*
X8047500Y49555000D03*
X8047500Y52325000D03*
X8047500Y55095000D03*
D31*
X30988000Y59650599D03*
D32*
X30988000Y58150599D03*
D13*
X24000000Y16500000D03*
X29000000Y16500000D03*
X22000000Y46500000D03*
X27000000Y46500000D03*
X52070000Y53340000D03*
D12*
X59690000Y53340000D03*
D31*
X63793401Y12700000D03*
D32*
X65293401Y12700000D03*
D13*
X111252000Y57606000D03*
D12*
X103632000Y57606000D03*
D11*
X106680000Y18796000D03*
D12*
X104140000Y18796000D03*
X101600000Y18796000D03*
X99060000Y18796000D03*
X96520000Y18796000D03*
X93980000Y18796000D03*
X91440000Y18796000D03*
X88900000Y18796000D03*
X86360000Y18796000D03*
X86360000Y11176000D03*
X88900000Y11176000D03*
X91440000Y11176000D03*
X93980000Y11176000D03*
X96520000Y11176000D03*
X99060000Y11176000D03*
X101600000Y11176000D03*
X104140000Y11176000D03*
X106680000Y11176000D03*
M02*
