M48
; DRILL file {KiCad (6.0.0)} date Wed Jan  5 20:16:16 2022
; FORMAT={-:-/ absolute / inch / decimal}
; #@! TF.CreationDate,2022-01-05T20:16:16-08:00
; #@! TF.GenerationSoftware,Kicad,Pcbnew,(6.0.0)
; #@! TF.FileFunction,Plated,1,2,PTH
FMAT,2
INCH
; #@! TA.AperFunction,Plated,PTH,ViaDrill
T1C0.0118
; #@! TA.AperFunction,Plated,PTH,ViaDrill
T2C0.0157
; #@! TA.AperFunction,Plated,PTH,ComponentDrill
T3C0.0236
; #@! TA.AperFunction,Plated,PTH,ComponentDrill
T4C0.0295
; #@! TA.AperFunction,Plated,PTH,ComponentDrill
T5C0.0315
; #@! TA.AperFunction,Plated,PTH,ComponentDrill
T6C0.0354
; #@! TA.AperFunction,Plated,PTH,ComponentDrill
T7C0.0394
; #@! TA.AperFunction,Plated,PTH,ComponentDrill
T8C0.0402
; #@! TA.AperFunction,Plated,PTH,ComponentDrill
T9C0.0429
; #@! TA.AperFunction,Plated,PTH,ComponentDrill
T10C0.0433
; #@! TA.AperFunction,Plated,PTH,ComponentDrill
T11C0.0669
%
G90
G05
T1
X2.0079Y-3.0118
X2.0079Y-3.0906
X2.0079Y-3.4055
X2.0079Y-3.563
X2.0079Y-3.7205
X2.0079Y-3.878
X2.0079Y-4.0354
X2.0079Y-4.1929
X2.0079Y-4.3504
X2.0079Y-4.5079
X2.0079Y-4.6654
X2.0079Y-4.8228
X2.0079Y-4.9803
X2.0079Y-5.1378
X2.0079Y-5.2953
X2.0079Y-5.4528
X2.0079Y-5.6102
X2.0079Y-5.8071
X2.0079Y-5.8858
X2.1654Y-3.0118
X2.1654Y-3.0906
X2.1654Y-3.4055
X2.1654Y-3.563
X2.1654Y-3.7205
X2.1654Y-5.8071
X2.1654Y-5.8858
X2.3228Y-3.0118
X2.3228Y-3.0906
X2.3228Y-5.8071
X2.3228Y-5.8858
X2.3622Y-4.7047
X2.3622Y-5.5512
X2.4016Y-5.2953
X2.4803Y-3.0118
X2.4803Y-3.0906
X2.4803Y-5.8071
X2.4803Y-5.8858
X2.5Y-5.1181
X2.5197Y-3.7795
X2.5197Y-3.878
X2.5197Y-4.2323
X2.6378Y-3.0118
X2.6378Y-3.0906
X2.6378Y-4.4094
X2.6378Y-5.8071
X2.6378Y-5.8858
X2.7953Y-3.0118
X2.7953Y-3.0906
X2.7953Y-5.8071
X2.7953Y-5.8858
X2.815Y-4.7638
X2.815Y-4.9016
X2.815Y-5.0197
X2.9528Y-3.0118
X2.9528Y-3.0906
X2.9528Y-4.7638
X2.9528Y-4.9016
X2.9528Y-5.0197
X2.9528Y-5.8071
X2.9528Y-5.8858
X3.1102Y-3.0118
X3.1102Y-3.0906
X3.1102Y-5.8071
X3.1102Y-5.8858
X3.2283Y-4.7835
X3.2283Y-5.0197
X3.2283Y-5.2559
X3.2677Y-3.0118
X3.2677Y-3.0906
X3.2677Y-5.8071
X3.2677Y-5.8858
X3.3285Y-3.4755
X3.3465Y-4.2126
X3.3465Y-4.4685
X3.4252Y-3.0118
X3.4252Y-3.0906
X3.4252Y-5.8071
X3.4252Y-5.8858
X3.4449Y-4.9213
X3.5236Y-5.0591
X3.563Y-4.4685
X3.5827Y-3.0118
X3.5827Y-3.0906
X3.5827Y-3.189
X3.5827Y-4.1535
X3.5827Y-5.8071
X3.5827Y-5.8858
X3.6614Y-3.7992
X3.7402Y-3.0118
X3.7402Y-3.0906
X3.7402Y-5.8071
X3.7402Y-5.8858
X3.7795Y-4.2323
X3.7795Y-4.4685
X3.7795Y-4.8031
X3.7795Y-5.2165
X3.8583Y-5.4134
X3.8976Y-3.0118
X3.8976Y-3.0906
X3.8976Y-3.189
X3.8976Y-3.4252
X3.8976Y-3.6024
X3.8976Y-5.8071
X3.8976Y-5.8858
X3.9764Y-4.2323
X3.9764Y-4.4685
X3.9764Y-4.8031
X4.0551Y-3.0118
X4.0551Y-3.0906
X4.0551Y-5.8071
X4.0551Y-5.8858
X4.0945Y-5.0591
X4.0945Y-5.2953
X4.0945Y-5.5118
X4.1732Y-4.2323
X4.1732Y-4.4685
X4.1732Y-4.8031
X4.2126Y-3.0118
X4.2126Y-3.0906
X4.2126Y-3.189
X4.2126Y-3.4252
X4.2126Y-3.6024
X4.2126Y-3.8189
X4.2126Y-5.8071
X4.2126Y-5.8858
X4.3307Y-4.4685
X4.3307Y-4.8031
X4.3504Y-5.0591
X4.3504Y-5.2953
X4.3504Y-5.5118
X4.3701Y-3.0118
X4.3701Y-3.0906
X4.3701Y-5.8071
X4.3701Y-5.8858
X4.4882Y-4.2323
X4.4882Y-4.8031
X4.5079Y-4.4685
X4.5276Y-3.0118
X4.5276Y-3.0906
X4.5276Y-3.189
X4.5276Y-3.4252
X4.5276Y-3.6024
X4.5276Y-5.8071
X4.5276Y-5.8858
X4.5866Y-5.1969
X4.626Y-4.8031
X4.6457Y-5.0591
X4.6457Y-5.5118
X4.685Y-3.0118
X4.685Y-3.0906
X4.685Y-5.8071
X4.685Y-5.8858
X4.7185Y-3.4855
X4.7244Y-3.622
X4.7244Y-4.2323
X4.7244Y-4.4685
X4.7441Y-4.8031
X4.8031Y-3.4449
X4.8425Y-3.0118
X4.8425Y-3.0906
X4.8425Y-3.189
X4.8425Y-3.3268
X4.8425Y-4.8031
X4.8425Y-5.8071
X4.8425Y-5.8858
X4.8985Y-4.2855
X4.9409Y-4.8031
X4.9606Y-5.0591
X4.9606Y-5.2165
X5.0Y-3.0118
X5.0Y-3.0906
X5.0Y-5.8071
X5.0Y-5.8858
X5.0394Y-4.2323
X5.0394Y-4.4685
X5.0394Y-4.8031
X5.0984Y-5.5118
X5.1378Y-4.6654
X5.1575Y-3.0118
X5.1575Y-3.0906
X5.1575Y-3.189
X5.1575Y-5.8071
X5.1575Y-5.8858
X5.1772Y-3.622
X5.2559Y-4.4685
X5.2756Y-3.878
X5.2985Y-3.6055
X5.315Y-3.0118
X5.315Y-3.0906
X5.315Y-3.2874
X5.315Y-5.8071
X5.315Y-5.8858
X5.3543Y-4.6654
X5.4134Y-3.6811
X5.4724Y-3.0118
X5.4724Y-3.0906
X5.4724Y-3.189
X5.4724Y-3.3858
X5.4724Y-3.5236
X5.4724Y-5.0787
X5.4724Y-5.8071
X5.4724Y-5.8858
X5.4985Y-3.8255
X5.5068Y-4.1781
X5.6299Y-3.0118
X5.6299Y-3.0906
X5.6299Y-5.8071
X5.6299Y-5.8858
X5.7185Y-5.0984
X5.7874Y-3.0118
X5.7874Y-3.0906
X5.7874Y-4.1535
X5.7874Y-5.8071
X5.7874Y-5.8858
X5.8563Y-4.2028
X5.8858Y-4.6654
X5.9154Y-5.0394
X5.9449Y-3.0118
X5.9449Y-3.0906
X5.9449Y-3.189
X5.9449Y-5.8071
X5.9449Y-5.8858
X6.063Y-5.3307
X6.1024Y-3.0118
X6.1024Y-3.0906
X6.1024Y-5.8071
X6.1024Y-5.8858
X6.1102Y-5.2598
X6.126Y-5.3937
X6.1732Y-5.3307
X6.2008Y-3.3858
X6.2008Y-3.6417
X6.2008Y-3.8976
X6.2598Y-3.0118
X6.2598Y-3.0906
X6.2598Y-3.189
X6.2598Y-5.8071
X6.2598Y-5.8858
X6.3386Y-3.8976
X6.3386Y-4.9803
X6.3386Y-5.0984
X6.3386Y-5.2165
X6.3386Y-5.2953
X6.4173Y-3.0118
X6.4173Y-3.0906
X6.4173Y-5.8071
X6.4173Y-5.8858
X6.4567Y-5.0984
X6.4567Y-5.2165
X6.4567Y-5.2953
X6.5748Y-3.0118
X6.5748Y-3.0906
X6.5748Y-3.189
X6.5748Y-5.0984
X6.5748Y-5.2165
X6.5748Y-5.2953
X6.5748Y-5.8071
X6.5748Y-5.8858
X6.5945Y-3.4252
X6.6929Y-3.6024
X6.6929Y-3.7008
X6.6929Y-3.8386
X6.6929Y-3.9567
X6.6929Y-4.0748
X6.6929Y-4.1929
X6.6929Y-4.3307
X6.6929Y-4.4685
X6.6929Y-4.5866
X6.6929Y-4.8819
X6.6929Y-5.0
X6.6929Y-5.2165
X6.6929Y-5.2953
X6.811Y-3.6024
X6.811Y-3.7008
X6.811Y-3.8386
X6.811Y-3.9567
X6.811Y-4.0748
X6.811Y-4.1929
X6.811Y-4.3307
X6.811Y-4.4685
X6.811Y-4.5866
X6.811Y-4.685
X6.811Y-4.7638
X6.811Y-4.8819
X6.811Y-5.0
X6.811Y-5.1181
X6.811Y-5.2165
X6.811Y-5.2953
X7.0276Y-3.7008
X7.0276Y-3.878
X7.1063Y-5.0787
X7.1063Y-5.1772
X7.1063Y-5.2953
T2
X5.3085Y-5.0855
T3
X2.8456Y-4.3504
X2.9046Y-4.3504
X3.1885Y-3.5571
X3.1885Y-3.6161
X4.4801Y-5.4055
X4.5391Y-5.4055
X4.835Y-3.8123
X4.8941Y-3.8123
T4
X6.1461Y-4.4677
X6.1461Y-4.5177
X6.1461Y-4.5677
T5
X2.2122Y-4.7047
X2.2122Y-5.689
X2.5122Y-4.7047
X2.5122Y-5.689
X2.55Y-3.3355
X2.8346Y-3.4646
X2.8346Y-3.5925
X2.8346Y-3.7205
X2.8346Y-3.8386
X2.8346Y-3.9567
X2.8346Y-4.0748
X2.8346Y-4.1929
X2.8421Y-4.5079
X2.9134Y-5.1378
X2.9134Y-5.2559
X2.95Y-3.3355
X3.0315Y-3.4646
X3.0315Y-3.5925
X3.0315Y-3.7205
X3.0315Y-3.8386
X3.0315Y-3.9567
X3.0315Y-4.0748
X3.0315Y-4.1929
X3.0985Y-5.3755
X3.0985Y-5.5055
X3.1102Y-5.1378
X3.1102Y-5.2559
X3.1421Y-4.5079
X3.1885Y-3.3479
X3.1885Y-3.4266
X3.3301Y-5.1555
X3.3985Y-5.3755
X3.3985Y-5.5055
X3.4085Y-3.3471
X3.4085Y-3.5439
X3.5085Y-3.3455
X3.5085Y-3.5424
X3.5269Y-5.1555
X3.6504Y-5.2004
X3.6504Y-5.3004
X3.6504Y-5.4004
X3.6504Y-5.5004
X3.6811Y-5.0591
X3.878Y-5.0591
X3.9504Y-5.2004
X3.9504Y-5.3004
X3.9504Y-5.4004
X3.9504Y-5.5004
X4.0185Y-3.8055
X4.0551Y-5.1969
X4.0626Y-5.4
X4.252Y-5.1969
X4.3185Y-3.8055
X4.3626Y-5.4
X5.0385Y-3.3855
X5.0417Y-3.5146
X5.0417Y-3.8146
X5.1795Y-3.5146
X5.1795Y-3.8146
X5.3385Y-3.3855
X5.3685Y-5.1655
X5.3685Y-5.4655
X5.4685Y-5.1655
X5.4685Y-5.4655
X5.5685Y-5.1655
X5.5685Y-5.4655
X5.6524Y-3.3817
X5.6548Y-3.5096
X5.6548Y-3.6376
X5.6548Y-3.7655
X5.6685Y-5.1655
X5.6685Y-5.4655
X5.7685Y-5.1655
X5.7685Y-5.4655
X5.8685Y-5.1655
X5.8685Y-5.4655
X5.9524Y-3.3817
X5.9548Y-3.5096
X5.9548Y-3.6376
X5.9548Y-3.7655
X5.9685Y-5.1655
X5.9685Y-5.4655
X6.0435Y-4.3055
X6.0461Y-3.3817
X6.0461Y-3.5096
X6.0485Y-3.6376
X6.0485Y-3.7655
X6.0685Y-5.1655
X6.0685Y-5.4655
X6.1451Y-4.0055
X6.1451Y-4.1555
X6.1516Y-4.7047
X6.1516Y-4.8305
X6.1585Y-4.9855
X6.1685Y-5.1655
X6.1685Y-5.4655
X6.3419Y-4.0055
X6.3419Y-4.1555
X6.3435Y-4.3055
X6.3461Y-3.3817
X6.3461Y-3.5096
X6.3484Y-4.7047
X6.3484Y-4.8305
X6.3485Y-3.6376
X6.3485Y-3.7655
X6.4585Y-4.9855
T6
X2.6569Y-5.025
X2.6569Y-5.125
X2.6569Y-5.225
X2.6569Y-5.325
X2.7569Y-5.075
X2.7569Y-5.175
X2.7569Y-5.275
X2.7569Y-5.375
X6.9423Y-3.6557
X6.9423Y-3.7557
X6.9423Y-5.1557
X6.9423Y-5.2557
T7
X3.5285Y-5.3061
X3.5285Y-5.4061
X3.5285Y-5.5061
X3.6799Y-3.3455
X3.6799Y-3.4455
X3.6799Y-3.5455
X3.6882Y-3.9988
X3.6882Y-4.8988
X3.7882Y-3.9988
X3.7882Y-4.8988
X3.8882Y-3.9988
X3.8882Y-4.8988
X3.9882Y-3.9988
X3.9882Y-4.8988
X4.0882Y-3.9988
X4.0882Y-4.8988
X4.1882Y-3.9988
X4.1882Y-4.8988
X4.2882Y-3.9988
X4.2882Y-4.8988
X4.3882Y-3.9988
X4.3882Y-4.8988
X4.4882Y-3.9988
X4.4882Y-4.8988
X4.4891Y-3.8055
X4.5882Y-3.9988
X4.5882Y-4.8988
X4.5891Y-3.8055
X4.6882Y-3.9988
X4.6882Y-4.8988
X4.6891Y-3.8055
X4.7882Y-3.9988
X4.7882Y-4.8988
X4.8882Y-3.9988
X4.8882Y-4.8988
X4.9882Y-3.9988
X4.9882Y-4.8988
X5.0882Y-3.9988
X5.0882Y-4.8988
X5.1882Y-3.9988
X5.1882Y-4.8988
X5.6498Y-3.9998
X5.6498Y-4.0998
X5.6498Y-4.1998
X5.6498Y-4.2998
X5.6498Y-4.3998
X5.6498Y-4.4998
X5.6498Y-4.5998
X5.6498Y-4.6998
X5.6498Y-4.7998
X5.6498Y-4.8998
T8
X2.214Y-4.951
X2.214Y-5.349
X2.2738Y-5.051
X2.2738Y-5.449
T9
X2.2853Y-3.7364
X2.2853Y-3.8455
X2.2853Y-3.9545
X2.2853Y-4.0636
X2.3971Y-3.6819
X2.3971Y-3.7909
X2.3971Y-3.9
X2.3971Y-4.0091
X2.3971Y-4.1181
T10
X2.5559Y-3.2055
X2.9559Y-3.2055
X3.4885Y-3.8055
X3.8885Y-3.8055
X7.0276Y-4.0304
X7.0276Y-4.1304
X7.0276Y-4.2304
X7.0276Y-4.3304
X7.0276Y-4.4304
X7.0276Y-4.5304
X7.0276Y-4.6304
X7.0276Y-4.7304
X7.0276Y-4.8304
X7.0276Y-4.9304
T11
X2.527Y-4.89
X2.527Y-5.51
T0
M30
