G04 #@! TF.GenerationSoftware,KiCad,Pcbnew,(6.0.0)*
G04 #@! TF.CreationDate,2022-02-05T21:05:29-08:00*
G04 #@! TF.ProjectId,Duo2_Direwolf,44756f32-5f44-4697-9265-776f6c662e6b,rev?*
G04 #@! TF.SameCoordinates,Original*
G04 #@! TF.FileFunction,Legend,Bot*
G04 #@! TF.FilePolarity,Positive*
%FSLAX46Y46*%
G04 Gerber Fmt 4.6, Leading zero omitted, Abs format (unit mm)*
G04 Created by KiCad (PCBNEW (6.0.0)) date 2022-02-05 21:05:29*
%MOMM*%
%LPD*%
G01*
G04 APERTURE LIST*
%ADD10C,0.254000*%
%ADD11C,0.150000*%
%ADD12R,1.600000X1.600000*%
%ADD13O,1.600000X1.600000*%
%ADD14C,1.600000*%
%ADD15R,1.700000X1.700000*%
%ADD16O,1.700000X1.700000*%
%ADD17R,2.000000X2.000000*%
%ADD18R,1.508000X1.508000*%
%ADD19C,1.508000*%
%ADD20R,1.650000X1.650000*%
%ADD21C,1.650000*%
%ADD22R,1.800000X1.800000*%
%ADD23C,1.800000*%
%ADD24C,2.200000*%
%ADD25C,1.700000*%
%ADD26R,2.200000X2.200000*%
%ADD27O,2.200000X2.200000*%
%ADD28C,3.200000*%
%ADD29R,1.400000X1.400000*%
%ADD30C,1.400000*%
%ADD31C,1.530000*%
%ADD32C,2.550000*%
%ADD33R,1.200000X1.200000*%
%ADD34C,1.200000*%
%ADD35R,1.500000X1.050000*%
%ADD36O,1.500000X1.050000*%
%ADD37C,3.180000*%
%ADD38R,1.635000X1.635000*%
%ADD39C,1.635000*%
G04 APERTURE END LIST*
D10*
X167642857Y-143404761D02*
X167166666Y-145404761D01*
X166785714Y-143976190D01*
X166404761Y-145404761D01*
X165928571Y-143404761D01*
X164785714Y-143404761D02*
X164404761Y-143404761D01*
X164214285Y-143500000D01*
X164023809Y-143690476D01*
X163928571Y-144071428D01*
X163928571Y-144738095D01*
X164023809Y-145119047D01*
X164214285Y-145309523D01*
X164404761Y-145404761D01*
X164785714Y-145404761D01*
X164976190Y-145309523D01*
X165166666Y-145119047D01*
X165261904Y-144738095D01*
X165261904Y-144071428D01*
X165166666Y-143690476D01*
X164976190Y-143500000D01*
X164785714Y-143404761D01*
X162119047Y-145404761D02*
X163071428Y-145404761D01*
X163071428Y-143404761D01*
X160785714Y-144357142D02*
X161452380Y-144357142D01*
X161452380Y-145404761D02*
X161452380Y-143404761D01*
X160500000Y-143404761D01*
X159738095Y-144642857D02*
X158214285Y-144642857D01*
X157261904Y-145404761D02*
X157261904Y-143404761D01*
X156500000Y-143404761D01*
X156309523Y-143500000D01*
X156214285Y-143595238D01*
X156119047Y-143785714D01*
X156119047Y-144071428D01*
X156214285Y-144261904D01*
X156309523Y-144357142D01*
X156500000Y-144452380D01*
X157261904Y-144452380D01*
X155261904Y-145404761D02*
X155261904Y-144071428D01*
X155261904Y-143404761D02*
X155357142Y-143500000D01*
X155261904Y-143595238D01*
X155166666Y-143500000D01*
X155261904Y-143404761D01*
X155261904Y-143595238D01*
X153071428Y-143404761D02*
X152404761Y-145404761D01*
X151738095Y-143404761D01*
X151071428Y-144357142D02*
X150404761Y-144357142D01*
X150119047Y-145404761D02*
X151071428Y-145404761D01*
X151071428Y-143404761D01*
X150119047Y-143404761D01*
X149452380Y-143404761D02*
X148119047Y-143404761D01*
X148976190Y-145404761D01*
X146690476Y-144357142D02*
X147357142Y-144357142D01*
X147357142Y-145404761D02*
X147357142Y-143404761D01*
X146404761Y-143404761D01*
X145642857Y-144357142D02*
X144976190Y-144357142D01*
X144690476Y-145404761D02*
X145642857Y-145404761D01*
X145642857Y-143404761D01*
X144690476Y-143404761D01*
X144119047Y-143404761D02*
X142976190Y-143404761D01*
X143547619Y-145404761D02*
X143547619Y-143404761D01*
X140880952Y-143595238D02*
X140785714Y-143500000D01*
X140595238Y-143404761D01*
X140119047Y-143404761D01*
X139928571Y-143500000D01*
X139833333Y-143595238D01*
X139738095Y-143785714D01*
X139738095Y-143976190D01*
X139833333Y-144261904D01*
X140976190Y-145404761D01*
X139738095Y-145404761D01*
X138500000Y-143404761D02*
X138309523Y-143404761D01*
X138119047Y-143500000D01*
X138023809Y-143595238D01*
X137928571Y-143785714D01*
X137833333Y-144166666D01*
X137833333Y-144642857D01*
X137928571Y-145023809D01*
X138023809Y-145214285D01*
X138119047Y-145309523D01*
X138309523Y-145404761D01*
X138500000Y-145404761D01*
X138690476Y-145309523D01*
X138785714Y-145214285D01*
X138880952Y-145023809D01*
X138976190Y-144642857D01*
X138976190Y-144166666D01*
X138880952Y-143785714D01*
X138785714Y-143595238D01*
X138690476Y-143500000D01*
X138500000Y-143404761D01*
X137071428Y-143595238D02*
X136976190Y-143500000D01*
X136785714Y-143404761D01*
X136309523Y-143404761D01*
X136119047Y-143500000D01*
X136023809Y-143595238D01*
X135928571Y-143785714D01*
X135928571Y-143976190D01*
X136023809Y-144261904D01*
X137166666Y-145404761D01*
X135928571Y-145404761D01*
X135166666Y-143595238D02*
X135071428Y-143500000D01*
X134880952Y-143404761D01*
X134404761Y-143404761D01*
X134214285Y-143500000D01*
X134119047Y-143595238D01*
X134023809Y-143785714D01*
X134023809Y-143976190D01*
X134119047Y-144261904D01*
X135261904Y-145404761D01*
X134023809Y-145404761D01*
X133166666Y-144642857D02*
X131642857Y-144642857D01*
X130309523Y-143404761D02*
X130119047Y-143404761D01*
X129928571Y-143500000D01*
X129833333Y-143595238D01*
X129738095Y-143785714D01*
X129642857Y-144166666D01*
X129642857Y-144642857D01*
X129738095Y-145023809D01*
X129833333Y-145214285D01*
X129928571Y-145309523D01*
X130119047Y-145404761D01*
X130309523Y-145404761D01*
X130500000Y-145309523D01*
X130595238Y-145214285D01*
X130690476Y-145023809D01*
X130785714Y-144642857D01*
X130785714Y-144166666D01*
X130690476Y-143785714D01*
X130595238Y-143595238D01*
X130500000Y-143500000D01*
X130309523Y-143404761D01*
X128880952Y-143595238D02*
X128785714Y-143500000D01*
X128595238Y-143404761D01*
X128119047Y-143404761D01*
X127928571Y-143500000D01*
X127833333Y-143595238D01*
X127738095Y-143785714D01*
X127738095Y-143976190D01*
X127833333Y-144261904D01*
X128976190Y-145404761D01*
X127738095Y-145404761D01*
X126880952Y-144642857D02*
X125357142Y-144642857D01*
X124023809Y-143404761D02*
X123833333Y-143404761D01*
X123642857Y-143500000D01*
X123547619Y-143595238D01*
X123452380Y-143785714D01*
X123357142Y-144166666D01*
X123357142Y-144642857D01*
X123452380Y-145023809D01*
X123547619Y-145214285D01*
X123642857Y-145309523D01*
X123833333Y-145404761D01*
X124023809Y-145404761D01*
X124214285Y-145309523D01*
X124309523Y-145214285D01*
X124404761Y-145023809D01*
X124500000Y-144642857D01*
X124500000Y-144166666D01*
X124404761Y-143785714D01*
X124309523Y-143595238D01*
X124214285Y-143500000D01*
X124023809Y-143404761D01*
X121547619Y-143404761D02*
X122500000Y-143404761D01*
X122595238Y-144357142D01*
X122500000Y-144261904D01*
X122309523Y-144166666D01*
X121833333Y-144166666D01*
X121642857Y-144261904D01*
X121547619Y-144357142D01*
X121452380Y-144547619D01*
X121452380Y-145023809D01*
X121547619Y-145214285D01*
X121642857Y-145309523D01*
X121833333Y-145404761D01*
X122309523Y-145404761D01*
X122500000Y-145309523D01*
X122595238Y-145214285D01*
X119357142Y-143404761D02*
X118690476Y-145404761D01*
X118023809Y-143404761D01*
X116309523Y-145404761D02*
X117452380Y-145404761D01*
X116880952Y-145404761D02*
X116880952Y-143404761D01*
X117071428Y-143690476D01*
X117261904Y-143880952D01*
X117452380Y-143976190D01*
X115452380Y-145214285D02*
X115357142Y-145309523D01*
X115452380Y-145404761D01*
X115547619Y-145309523D01*
X115452380Y-145214285D01*
X115452380Y-145404761D01*
X114690476Y-143404761D02*
X113452380Y-143404761D01*
X114119047Y-144166666D01*
X113833333Y-144166666D01*
X113642857Y-144261904D01*
X113547619Y-144357142D01*
X113452380Y-144547619D01*
X113452380Y-145023809D01*
X113547619Y-145214285D01*
X113642857Y-145309523D01*
X113833333Y-145404761D01*
X114404761Y-145404761D01*
X114595238Y-145309523D01*
X114690476Y-145214285D01*
D11*
X119628690Y-104817380D02*
X119628690Y-105531666D01*
X119676309Y-105674523D01*
X119771547Y-105769761D01*
X119914404Y-105817380D01*
X120009642Y-105817380D01*
X119152500Y-105817380D02*
X119152500Y-104817380D01*
X118771547Y-104817380D01*
X118676309Y-104865000D01*
X118628690Y-104912619D01*
X118581071Y-105007857D01*
X118581071Y-105150714D01*
X118628690Y-105245952D01*
X118676309Y-105293571D01*
X118771547Y-105341190D01*
X119152500Y-105341190D01*
X117676309Y-104817380D02*
X118152500Y-104817380D01*
X118200119Y-105293571D01*
X118152500Y-105245952D01*
X118057261Y-105198333D01*
X117819166Y-105198333D01*
X117723928Y-105245952D01*
X117676309Y-105293571D01*
X117628690Y-105388809D01*
X117628690Y-105626904D01*
X117676309Y-105722142D01*
X117723928Y-105769761D01*
X117819166Y-105817380D01*
X118057261Y-105817380D01*
X118152500Y-105769761D01*
X118200119Y-105722142D01*
X116438214Y-105817380D02*
X116438214Y-104817380D01*
X116057261Y-104817380D01*
X115962023Y-104865000D01*
X115914404Y-104912619D01*
X115866785Y-105007857D01*
X115866785Y-105150714D01*
X115914404Y-105245952D01*
X115962023Y-105293571D01*
X116057261Y-105341190D01*
X116438214Y-105341190D01*
X115581071Y-104817380D02*
X115009642Y-104817380D01*
X115295357Y-105817380D02*
X115295357Y-104817380D01*
X114819166Y-104817380D02*
X114247738Y-104817380D01*
X114533452Y-105817380D02*
X114533452Y-104817380D01*
X113152500Y-105817380D02*
X113152500Y-104817380D01*
X112771547Y-104817380D01*
X112676309Y-104865000D01*
X112628690Y-104912619D01*
X112581071Y-105007857D01*
X112581071Y-105150714D01*
X112628690Y-105245952D01*
X112676309Y-105293571D01*
X112771547Y-105341190D01*
X113152500Y-105341190D01*
X111723928Y-105150714D02*
X111723928Y-105817380D01*
X112152500Y-105150714D02*
X112152500Y-105674523D01*
X112104880Y-105769761D01*
X112009642Y-105817380D01*
X111866785Y-105817380D01*
X111771547Y-105769761D01*
X111723928Y-105722142D01*
X111104880Y-105817380D02*
X111200119Y-105769761D01*
X111247738Y-105674523D01*
X111247738Y-104817380D01*
X110581071Y-105817380D02*
X110676309Y-105769761D01*
X110723928Y-105674523D01*
X110723928Y-104817380D01*
X110200119Y-105436428D02*
X109438214Y-105436428D01*
X108533452Y-105150714D02*
X108533452Y-105817380D01*
X108962023Y-105150714D02*
X108962023Y-105674523D01*
X108914404Y-105769761D01*
X108819166Y-105817380D01*
X108676309Y-105817380D01*
X108581071Y-105769761D01*
X108533452Y-105722142D01*
X108057261Y-105150714D02*
X108057261Y-106150714D01*
X108057261Y-105198333D02*
X107962023Y-105150714D01*
X107771547Y-105150714D01*
X107676309Y-105198333D01*
X107628690Y-105245952D01*
X107581071Y-105341190D01*
X107581071Y-105626904D01*
X107628690Y-105722142D01*
X107676309Y-105769761D01*
X107771547Y-105817380D01*
X107962023Y-105817380D01*
X108057261Y-105769761D01*
X119390595Y-107427380D02*
X119962023Y-107427380D01*
X119676309Y-107427380D02*
X119676309Y-106427380D01*
X119771547Y-106570238D01*
X119866785Y-106665476D01*
X119962023Y-106713095D01*
X118962023Y-107046428D02*
X118200119Y-107046428D01*
X117771547Y-106522619D02*
X117723928Y-106475000D01*
X117628690Y-106427380D01*
X117390595Y-106427380D01*
X117295357Y-106475000D01*
X117247738Y-106522619D01*
X117200119Y-106617857D01*
X117200119Y-106713095D01*
X117247738Y-106855952D01*
X117819166Y-107427380D01*
X117200119Y-107427380D01*
X115533452Y-106427380D02*
X116009642Y-106427380D01*
X116057261Y-106903571D01*
X116009642Y-106855952D01*
X115914404Y-106808333D01*
X115676309Y-106808333D01*
X115581071Y-106855952D01*
X115533452Y-106903571D01*
X115485833Y-106998809D01*
X115485833Y-107236904D01*
X115533452Y-107332142D01*
X115581071Y-107379761D01*
X115676309Y-107427380D01*
X115914404Y-107427380D01*
X116009642Y-107379761D01*
X116057261Y-107332142D01*
X115200119Y-106427380D02*
X114866785Y-107427380D01*
X114533452Y-106427380D01*
X119962023Y-108132619D02*
X119914404Y-108085000D01*
X119819166Y-108037380D01*
X119581071Y-108037380D01*
X119485833Y-108085000D01*
X119438214Y-108132619D01*
X119390595Y-108227857D01*
X119390595Y-108323095D01*
X119438214Y-108465952D01*
X120009642Y-109037380D01*
X119390595Y-109037380D01*
X118962023Y-108656428D02*
X118200119Y-108656428D01*
X117819166Y-108037380D02*
X117200119Y-108037380D01*
X117533452Y-108418333D01*
X117390595Y-108418333D01*
X117295357Y-108465952D01*
X117247738Y-108513571D01*
X117200119Y-108608809D01*
X117200119Y-108846904D01*
X117247738Y-108942142D01*
X117295357Y-108989761D01*
X117390595Y-109037380D01*
X117676309Y-109037380D01*
X117771547Y-108989761D01*
X117819166Y-108942142D01*
X115676309Y-108513571D02*
X115533452Y-108561190D01*
X115485833Y-108608809D01*
X115438214Y-108704047D01*
X115438214Y-108846904D01*
X115485833Y-108942142D01*
X115533452Y-108989761D01*
X115628690Y-109037380D01*
X116009642Y-109037380D01*
X116009642Y-108037380D01*
X115676309Y-108037380D01*
X115581071Y-108085000D01*
X115533452Y-108132619D01*
X115485833Y-108227857D01*
X115485833Y-108323095D01*
X115533452Y-108418333D01*
X115581071Y-108465952D01*
X115676309Y-108513571D01*
X116009642Y-108513571D01*
X114581071Y-109037380D02*
X114581071Y-108513571D01*
X114628690Y-108418333D01*
X114723928Y-108370714D01*
X114914404Y-108370714D01*
X115009642Y-108418333D01*
X114581071Y-108989761D02*
X114676309Y-109037380D01*
X114914404Y-109037380D01*
X115009642Y-108989761D01*
X115057261Y-108894523D01*
X115057261Y-108799285D01*
X115009642Y-108704047D01*
X114914404Y-108656428D01*
X114676309Y-108656428D01*
X114581071Y-108608809D01*
X114247738Y-108370714D02*
X113866785Y-108370714D01*
X114104880Y-108037380D02*
X114104880Y-108894523D01*
X114057261Y-108989761D01*
X113962023Y-109037380D01*
X113866785Y-109037380D01*
X113676309Y-108370714D02*
X113295357Y-108370714D01*
X113533452Y-108037380D02*
X113533452Y-108894523D01*
X113485833Y-108989761D01*
X113390595Y-109037380D01*
X113295357Y-109037380D01*
X119914404Y-110647380D02*
X119914404Y-109647380D01*
X119342976Y-110647380D01*
X119342976Y-109647380D01*
X118676309Y-109647380D02*
X118485833Y-109647380D01*
X118390595Y-109695000D01*
X118295357Y-109790238D01*
X118247738Y-109980714D01*
X118247738Y-110314047D01*
X118295357Y-110504523D01*
X118390595Y-110599761D01*
X118485833Y-110647380D01*
X118676309Y-110647380D01*
X118771547Y-110599761D01*
X118866785Y-110504523D01*
X118914404Y-110314047D01*
X118914404Y-109980714D01*
X118866785Y-109790238D01*
X118771547Y-109695000D01*
X118676309Y-109647380D01*
X117819166Y-110647380D02*
X117819166Y-109647380D01*
X117247738Y-110647380D01*
X117247738Y-109647380D01*
X116771547Y-110123571D02*
X116438214Y-110123571D01*
X116295357Y-110647380D02*
X116771547Y-110647380D01*
X116771547Y-109647380D01*
X116295357Y-109647380D01*
X114914404Y-109647380D02*
X114723928Y-109647380D01*
X114628690Y-109695000D01*
X114533452Y-109790238D01*
X114485833Y-109980714D01*
X114485833Y-110314047D01*
X114533452Y-110504523D01*
X114628690Y-110599761D01*
X114723928Y-110647380D01*
X114914404Y-110647380D01*
X115009642Y-110599761D01*
X115104880Y-110504523D01*
X115152500Y-110314047D01*
X115152500Y-109980714D01*
X115104880Y-109790238D01*
X115009642Y-109695000D01*
X114914404Y-109647380D01*
X114057261Y-109980714D02*
X114057261Y-110980714D01*
X114057261Y-110028333D02*
X113962023Y-109980714D01*
X113771547Y-109980714D01*
X113676309Y-110028333D01*
X113628690Y-110075952D01*
X113581071Y-110171190D01*
X113581071Y-110456904D01*
X113628690Y-110552142D01*
X113676309Y-110599761D01*
X113771547Y-110647380D01*
X113962023Y-110647380D01*
X114057261Y-110599761D01*
X112771547Y-110599761D02*
X112866785Y-110647380D01*
X113057261Y-110647380D01*
X113152500Y-110599761D01*
X113200119Y-110504523D01*
X113200119Y-110123571D01*
X113152500Y-110028333D01*
X113057261Y-109980714D01*
X112866785Y-109980714D01*
X112771547Y-110028333D01*
X112723928Y-110123571D01*
X112723928Y-110218809D01*
X113200119Y-110314047D01*
X112295357Y-109980714D02*
X112295357Y-110647380D01*
X112295357Y-110075952D02*
X112247738Y-110028333D01*
X112152500Y-109980714D01*
X112009642Y-109980714D01*
X111914404Y-110028333D01*
X111866785Y-110123571D01*
X111866785Y-110647380D01*
X110057261Y-110552142D02*
X110104880Y-110599761D01*
X110247738Y-110647380D01*
X110342976Y-110647380D01*
X110485833Y-110599761D01*
X110581071Y-110504523D01*
X110628690Y-110409285D01*
X110676309Y-110218809D01*
X110676309Y-110075952D01*
X110628690Y-109885476D01*
X110581071Y-109790238D01*
X110485833Y-109695000D01*
X110342976Y-109647380D01*
X110247738Y-109647380D01*
X110104880Y-109695000D01*
X110057261Y-109742619D01*
X109485833Y-110647380D02*
X109581071Y-110599761D01*
X109628690Y-110552142D01*
X109676309Y-110456904D01*
X109676309Y-110171190D01*
X109628690Y-110075952D01*
X109581071Y-110028333D01*
X109485833Y-109980714D01*
X109342976Y-109980714D01*
X109247738Y-110028333D01*
X109200119Y-110075952D01*
X109152500Y-110171190D01*
X109152500Y-110456904D01*
X109200119Y-110552142D01*
X109247738Y-110599761D01*
X109342976Y-110647380D01*
X109485833Y-110647380D01*
X108581071Y-110647380D02*
X108676309Y-110599761D01*
X108723928Y-110504523D01*
X108723928Y-109647380D01*
X108057261Y-110647380D02*
X108152500Y-110599761D01*
X108200119Y-110504523D01*
X108200119Y-109647380D01*
X119628690Y-112867380D02*
X119628690Y-113581666D01*
X119676309Y-113724523D01*
X119771547Y-113819761D01*
X119914404Y-113867380D01*
X120009642Y-113867380D01*
X119152500Y-113867380D02*
X119152500Y-112867380D01*
X118771547Y-112867380D01*
X118676309Y-112915000D01*
X118628690Y-112962619D01*
X118581071Y-113057857D01*
X118581071Y-113200714D01*
X118628690Y-113295952D01*
X118676309Y-113343571D01*
X118771547Y-113391190D01*
X119152500Y-113391190D01*
X117723928Y-112867380D02*
X117914404Y-112867380D01*
X118009642Y-112915000D01*
X118057261Y-112962619D01*
X118152500Y-113105476D01*
X118200119Y-113295952D01*
X118200119Y-113676904D01*
X118152500Y-113772142D01*
X118104880Y-113819761D01*
X118009642Y-113867380D01*
X117819166Y-113867380D01*
X117723928Y-113819761D01*
X117676309Y-113772142D01*
X117628690Y-113676904D01*
X117628690Y-113438809D01*
X117676309Y-113343571D01*
X117723928Y-113295952D01*
X117819166Y-113248333D01*
X118009642Y-113248333D01*
X118104880Y-113295952D01*
X118152500Y-113343571D01*
X118200119Y-113438809D01*
X116152500Y-112867380D02*
X116152500Y-113581666D01*
X116200119Y-113724523D01*
X116295357Y-113819761D01*
X116438214Y-113867380D01*
X116533452Y-113867380D01*
X115247738Y-113200714D02*
X115247738Y-113867380D01*
X115485833Y-112819761D02*
X115723928Y-113534047D01*
X115104880Y-113534047D01*
X114676309Y-113819761D02*
X114676309Y-113867380D01*
X114723928Y-113962619D01*
X114771547Y-114010238D01*
X114295357Y-112962619D02*
X114247738Y-112915000D01*
X114152500Y-112867380D01*
X113914404Y-112867380D01*
X113819166Y-112915000D01*
X113771547Y-112962619D01*
X113723928Y-113057857D01*
X113723928Y-113153095D01*
X113771547Y-113295952D01*
X114342976Y-113867380D01*
X113723928Y-113867380D01*
X112581071Y-113819761D02*
X112438214Y-113867380D01*
X112200119Y-113867380D01*
X112104880Y-113819761D01*
X112057261Y-113772142D01*
X112009642Y-113676904D01*
X112009642Y-113581666D01*
X112057261Y-113486428D01*
X112104880Y-113438809D01*
X112200119Y-113391190D01*
X112390595Y-113343571D01*
X112485833Y-113295952D01*
X112533452Y-113248333D01*
X112581071Y-113153095D01*
X112581071Y-113057857D01*
X112533452Y-112962619D01*
X112485833Y-112915000D01*
X112390595Y-112867380D01*
X112152500Y-112867380D01*
X112009642Y-112915000D01*
X111200119Y-113819761D02*
X111295357Y-113867380D01*
X111485833Y-113867380D01*
X111581071Y-113819761D01*
X111628690Y-113724523D01*
X111628690Y-113343571D01*
X111581071Y-113248333D01*
X111485833Y-113200714D01*
X111295357Y-113200714D01*
X111200119Y-113248333D01*
X111152500Y-113343571D01*
X111152500Y-113438809D01*
X111628690Y-113534047D01*
X110581071Y-113867380D02*
X110676309Y-113819761D01*
X110723928Y-113724523D01*
X110723928Y-112867380D01*
X119390595Y-115477380D02*
X119962023Y-115477380D01*
X119676309Y-115477380D02*
X119676309Y-114477380D01*
X119771547Y-114620238D01*
X119866785Y-114715476D01*
X119962023Y-114763095D01*
X118962023Y-115096428D02*
X118200119Y-115096428D01*
X117771547Y-114572619D02*
X117723928Y-114525000D01*
X117628690Y-114477380D01*
X117390595Y-114477380D01*
X117295357Y-114525000D01*
X117247738Y-114572619D01*
X117200119Y-114667857D01*
X117200119Y-114763095D01*
X117247738Y-114905952D01*
X117819166Y-115477380D01*
X117200119Y-115477380D01*
X116009642Y-114953571D02*
X115676309Y-114953571D01*
X115533452Y-115477380D02*
X116009642Y-115477380D01*
X116009642Y-114477380D01*
X115533452Y-114477380D01*
X115200119Y-114477380D02*
X114533452Y-115477380D01*
X114533452Y-114477380D02*
X115200119Y-115477380D01*
X114295357Y-114477380D02*
X113723928Y-114477380D01*
X114009642Y-115477380D02*
X114009642Y-114477380D01*
X112057261Y-115382142D02*
X112104880Y-115429761D01*
X112247738Y-115477380D01*
X112342976Y-115477380D01*
X112485833Y-115429761D01*
X112581071Y-115334523D01*
X112628690Y-115239285D01*
X112676309Y-115048809D01*
X112676309Y-114905952D01*
X112628690Y-114715476D01*
X112581071Y-114620238D01*
X112485833Y-114525000D01*
X112342976Y-114477380D01*
X112247738Y-114477380D01*
X112104880Y-114525000D01*
X112057261Y-114572619D01*
X111628690Y-115477380D02*
X111628690Y-114477380D01*
X111390595Y-114477380D01*
X111247738Y-114525000D01*
X111152500Y-114620238D01*
X111104880Y-114715476D01*
X111057261Y-114905952D01*
X111057261Y-115048809D01*
X111104880Y-115239285D01*
X111152500Y-115334523D01*
X111247738Y-115429761D01*
X111390595Y-115477380D01*
X111628690Y-115477380D01*
X119962023Y-116182619D02*
X119914404Y-116135000D01*
X119819166Y-116087380D01*
X119581071Y-116087380D01*
X119485833Y-116135000D01*
X119438214Y-116182619D01*
X119390595Y-116277857D01*
X119390595Y-116373095D01*
X119438214Y-116515952D01*
X120009642Y-117087380D01*
X119390595Y-117087380D01*
X118962023Y-116706428D02*
X118200119Y-116706428D01*
X117819166Y-116087380D02*
X117200119Y-116087380D01*
X117533452Y-116468333D01*
X117390595Y-116468333D01*
X117295357Y-116515952D01*
X117247738Y-116563571D01*
X117200119Y-116658809D01*
X117200119Y-116896904D01*
X117247738Y-116992142D01*
X117295357Y-117039761D01*
X117390595Y-117087380D01*
X117676309Y-117087380D01*
X117771547Y-117039761D01*
X117819166Y-116992142D01*
X116057261Y-116801666D02*
X115581071Y-116801666D01*
X116152500Y-117087380D02*
X115819166Y-116087380D01*
X115485833Y-117087380D01*
X115152500Y-117087380D02*
X115152500Y-116087380D01*
X114581071Y-117087380D01*
X114581071Y-116087380D01*
X114200119Y-116087380D02*
X113581071Y-116087380D01*
X113914404Y-116468333D01*
X113771547Y-116468333D01*
X113676309Y-116515952D01*
X113628690Y-116563571D01*
X113581071Y-116658809D01*
X113581071Y-116896904D01*
X113628690Y-116992142D01*
X113676309Y-117039761D01*
X113771547Y-117087380D01*
X114057261Y-117087380D01*
X114152500Y-117039761D01*
X114200119Y-116992142D01*
X112390595Y-117087380D02*
X112390595Y-116087380D01*
X111914404Y-116420714D02*
X111914404Y-117087380D01*
X111914404Y-116515952D02*
X111866785Y-116468333D01*
X111771547Y-116420714D01*
X111628690Y-116420714D01*
X111533452Y-116468333D01*
X111485833Y-116563571D01*
X111485833Y-117087380D01*
X134878690Y-104902380D02*
X134878690Y-105616666D01*
X134926309Y-105759523D01*
X135021547Y-105854761D01*
X135164404Y-105902380D01*
X135259642Y-105902380D01*
X134402500Y-105902380D02*
X134402500Y-104902380D01*
X134021547Y-104902380D01*
X133926309Y-104950000D01*
X133878690Y-104997619D01*
X133831071Y-105092857D01*
X133831071Y-105235714D01*
X133878690Y-105330952D01*
X133926309Y-105378571D01*
X134021547Y-105426190D01*
X134402500Y-105426190D01*
X132878690Y-105902380D02*
X133450119Y-105902380D01*
X133164404Y-105902380D02*
X133164404Y-104902380D01*
X133259642Y-105045238D01*
X133354880Y-105140476D01*
X133450119Y-105188095D01*
X131831071Y-104902380D02*
X131259642Y-104902380D01*
X131545357Y-105902380D02*
X131545357Y-104902380D01*
X130735833Y-104902380D02*
X130545357Y-104902380D01*
X130450119Y-104950000D01*
X130354880Y-105045238D01*
X130307261Y-105235714D01*
X130307261Y-105569047D01*
X130354880Y-105759523D01*
X130450119Y-105854761D01*
X130545357Y-105902380D01*
X130735833Y-105902380D01*
X130831071Y-105854761D01*
X130926309Y-105759523D01*
X130973928Y-105569047D01*
X130973928Y-105235714D01*
X130926309Y-105045238D01*
X130831071Y-104950000D01*
X130735833Y-104902380D01*
X130021547Y-104902380D02*
X129450119Y-104902380D01*
X129735833Y-105902380D02*
X129735833Y-104902380D01*
X134640595Y-107512380D02*
X135212023Y-107512380D01*
X134926309Y-107512380D02*
X134926309Y-106512380D01*
X135021547Y-106655238D01*
X135116785Y-106750476D01*
X135212023Y-106798095D01*
X134212023Y-107131428D02*
X133450119Y-107131428D01*
X133021547Y-106607619D02*
X132973928Y-106560000D01*
X132878690Y-106512380D01*
X132640595Y-106512380D01*
X132545357Y-106560000D01*
X132497738Y-106607619D01*
X132450119Y-106702857D01*
X132450119Y-106798095D01*
X132497738Y-106940952D01*
X133069166Y-107512380D01*
X132450119Y-107512380D01*
X131259642Y-106988571D02*
X130926309Y-106988571D01*
X130783452Y-107512380D02*
X131259642Y-107512380D01*
X131259642Y-106512380D01*
X130783452Y-106512380D01*
X130354880Y-106845714D02*
X130354880Y-107512380D01*
X130354880Y-106940952D02*
X130307261Y-106893333D01*
X130212023Y-106845714D01*
X130069166Y-106845714D01*
X129973928Y-106893333D01*
X129926309Y-106988571D01*
X129926309Y-107512380D01*
X129021547Y-107512380D02*
X129021547Y-106988571D01*
X129069166Y-106893333D01*
X129164404Y-106845714D01*
X129354880Y-106845714D01*
X129450119Y-106893333D01*
X129021547Y-107464761D02*
X129116785Y-107512380D01*
X129354880Y-107512380D01*
X129450119Y-107464761D01*
X129497738Y-107369523D01*
X129497738Y-107274285D01*
X129450119Y-107179047D01*
X129354880Y-107131428D01*
X129116785Y-107131428D01*
X129021547Y-107083809D01*
X128545357Y-107512380D02*
X128545357Y-106512380D01*
X128545357Y-106893333D02*
X128450119Y-106845714D01*
X128259642Y-106845714D01*
X128164404Y-106893333D01*
X128116785Y-106940952D01*
X128069166Y-107036190D01*
X128069166Y-107321904D01*
X128116785Y-107417142D01*
X128164404Y-107464761D01*
X128259642Y-107512380D01*
X128450119Y-107512380D01*
X128545357Y-107464761D01*
X127497738Y-107512380D02*
X127592976Y-107464761D01*
X127640595Y-107369523D01*
X127640595Y-106512380D01*
X126735833Y-107464761D02*
X126831071Y-107512380D01*
X127021547Y-107512380D01*
X127116785Y-107464761D01*
X127164404Y-107369523D01*
X127164404Y-106988571D01*
X127116785Y-106893333D01*
X127021547Y-106845714D01*
X126831071Y-106845714D01*
X126735833Y-106893333D01*
X126688214Y-106988571D01*
X126688214Y-107083809D01*
X127164404Y-107179047D01*
X125831071Y-107512380D02*
X125831071Y-106512380D01*
X125831071Y-107464761D02*
X125926309Y-107512380D01*
X126116785Y-107512380D01*
X126212023Y-107464761D01*
X126259642Y-107417142D01*
X126307261Y-107321904D01*
X126307261Y-107036190D01*
X126259642Y-106940952D01*
X126212023Y-106893333D01*
X126116785Y-106845714D01*
X125926309Y-106845714D01*
X125831071Y-106893333D01*
X135212023Y-108217619D02*
X135164404Y-108170000D01*
X135069166Y-108122380D01*
X134831071Y-108122380D01*
X134735833Y-108170000D01*
X134688214Y-108217619D01*
X134640595Y-108312857D01*
X134640595Y-108408095D01*
X134688214Y-108550952D01*
X135259642Y-109122380D01*
X134640595Y-109122380D01*
X134212023Y-108741428D02*
X133450119Y-108741428D01*
X133069166Y-108122380D02*
X132450119Y-108122380D01*
X132783452Y-108503333D01*
X132640595Y-108503333D01*
X132545357Y-108550952D01*
X132497738Y-108598571D01*
X132450119Y-108693809D01*
X132450119Y-108931904D01*
X132497738Y-109027142D01*
X132545357Y-109074761D01*
X132640595Y-109122380D01*
X132926309Y-109122380D01*
X133021547Y-109074761D01*
X133069166Y-109027142D01*
X131259642Y-109122380D02*
X131259642Y-108122380D01*
X131021547Y-108122380D01*
X130878690Y-108170000D01*
X130783452Y-108265238D01*
X130735833Y-108360476D01*
X130688214Y-108550952D01*
X130688214Y-108693809D01*
X130735833Y-108884285D01*
X130783452Y-108979523D01*
X130878690Y-109074761D01*
X131021547Y-109122380D01*
X131259642Y-109122380D01*
X130259642Y-109122380D02*
X130259642Y-108455714D01*
X130259642Y-108122380D02*
X130307261Y-108170000D01*
X130259642Y-108217619D01*
X130212023Y-108170000D01*
X130259642Y-108122380D01*
X130259642Y-108217619D01*
X129831071Y-109074761D02*
X129735833Y-109122380D01*
X129545357Y-109122380D01*
X129450119Y-109074761D01*
X129402500Y-108979523D01*
X129402500Y-108931904D01*
X129450119Y-108836666D01*
X129545357Y-108789047D01*
X129688214Y-108789047D01*
X129783452Y-108741428D01*
X129831071Y-108646190D01*
X129831071Y-108598571D01*
X129783452Y-108503333D01*
X129688214Y-108455714D01*
X129545357Y-108455714D01*
X129450119Y-108503333D01*
X128545357Y-109122380D02*
X128545357Y-108598571D01*
X128592976Y-108503333D01*
X128688214Y-108455714D01*
X128878690Y-108455714D01*
X128973928Y-108503333D01*
X128545357Y-109074761D02*
X128640595Y-109122380D01*
X128878690Y-109122380D01*
X128973928Y-109074761D01*
X129021547Y-108979523D01*
X129021547Y-108884285D01*
X128973928Y-108789047D01*
X128878690Y-108741428D01*
X128640595Y-108741428D01*
X128545357Y-108693809D01*
X128069166Y-109122380D02*
X128069166Y-108122380D01*
X128069166Y-108503333D02*
X127973928Y-108455714D01*
X127783452Y-108455714D01*
X127688214Y-108503333D01*
X127640595Y-108550952D01*
X127592976Y-108646190D01*
X127592976Y-108931904D01*
X127640595Y-109027142D01*
X127688214Y-109074761D01*
X127783452Y-109122380D01*
X127973928Y-109122380D01*
X128069166Y-109074761D01*
X127021547Y-109122380D02*
X127116785Y-109074761D01*
X127164404Y-108979523D01*
X127164404Y-108122380D01*
X126259642Y-109074761D02*
X126354880Y-109122380D01*
X126545357Y-109122380D01*
X126640595Y-109074761D01*
X126688214Y-108979523D01*
X126688214Y-108598571D01*
X126640595Y-108503333D01*
X126545357Y-108455714D01*
X126354880Y-108455714D01*
X126259642Y-108503333D01*
X126212023Y-108598571D01*
X126212023Y-108693809D01*
X126688214Y-108789047D01*
X125354880Y-109122380D02*
X125354880Y-108122380D01*
X125354880Y-109074761D02*
X125450119Y-109122380D01*
X125640595Y-109122380D01*
X125735833Y-109074761D01*
X125783452Y-109027142D01*
X125831071Y-108931904D01*
X125831071Y-108646190D01*
X125783452Y-108550952D01*
X125735833Y-108503333D01*
X125640595Y-108455714D01*
X125450119Y-108455714D01*
X125354880Y-108503333D01*
X134878690Y-111342380D02*
X134878690Y-112056666D01*
X134926309Y-112199523D01*
X135021547Y-112294761D01*
X135164404Y-112342380D01*
X135259642Y-112342380D01*
X134402500Y-112342380D02*
X134402500Y-111342380D01*
X134021547Y-111342380D01*
X133926309Y-111390000D01*
X133878690Y-111437619D01*
X133831071Y-111532857D01*
X133831071Y-111675714D01*
X133878690Y-111770952D01*
X133926309Y-111818571D01*
X134021547Y-111866190D01*
X134402500Y-111866190D01*
X133450119Y-111437619D02*
X133402500Y-111390000D01*
X133307261Y-111342380D01*
X133069166Y-111342380D01*
X132973928Y-111390000D01*
X132926309Y-111437619D01*
X132878690Y-111532857D01*
X132878690Y-111628095D01*
X132926309Y-111770952D01*
X133497738Y-112342380D01*
X132878690Y-112342380D01*
X131735833Y-112056666D02*
X131259642Y-112056666D01*
X131831071Y-112342380D02*
X131497738Y-111342380D01*
X131164404Y-112342380D01*
X130831071Y-112342380D02*
X130831071Y-111342380D01*
X130259642Y-112342380D01*
X130259642Y-111342380D01*
X129592976Y-111342380D02*
X129497738Y-111342380D01*
X129402500Y-111390000D01*
X129354880Y-111437619D01*
X129307261Y-111532857D01*
X129259642Y-111723333D01*
X129259642Y-111961428D01*
X129307261Y-112151904D01*
X129354880Y-112247142D01*
X129402500Y-112294761D01*
X129497738Y-112342380D01*
X129592976Y-112342380D01*
X129688214Y-112294761D01*
X129735833Y-112247142D01*
X129783452Y-112151904D01*
X129831071Y-111961428D01*
X129831071Y-111723333D01*
X129783452Y-111532857D01*
X129735833Y-111437619D01*
X129688214Y-111390000D01*
X129592976Y-111342380D01*
X134640595Y-113952380D02*
X135212023Y-113952380D01*
X134926309Y-113952380D02*
X134926309Y-112952380D01*
X135021547Y-113095238D01*
X135116785Y-113190476D01*
X135212023Y-113238095D01*
X134212023Y-113571428D02*
X133450119Y-113571428D01*
X133021547Y-113047619D02*
X132973928Y-113000000D01*
X132878690Y-112952380D01*
X132640595Y-112952380D01*
X132545357Y-113000000D01*
X132497738Y-113047619D01*
X132450119Y-113142857D01*
X132450119Y-113238095D01*
X132497738Y-113380952D01*
X133069166Y-113952380D01*
X132450119Y-113952380D01*
X131259642Y-113428571D02*
X130926309Y-113428571D01*
X130783452Y-113952380D02*
X131259642Y-113952380D01*
X131259642Y-112952380D01*
X130783452Y-112952380D01*
X130450119Y-113952380D02*
X129926309Y-113285714D01*
X130450119Y-113285714D02*
X129926309Y-113952380D01*
X129688214Y-113285714D02*
X129307261Y-113285714D01*
X129545357Y-112952380D02*
X129545357Y-113809523D01*
X129497738Y-113904761D01*
X129402500Y-113952380D01*
X129307261Y-113952380D01*
X128592976Y-113904761D02*
X128688214Y-113952380D01*
X128878690Y-113952380D01*
X128973928Y-113904761D01*
X129021547Y-113809523D01*
X129021547Y-113428571D01*
X128973928Y-113333333D01*
X128878690Y-113285714D01*
X128688214Y-113285714D01*
X128592976Y-113333333D01*
X128545357Y-113428571D01*
X128545357Y-113523809D01*
X129021547Y-113619047D01*
X128116785Y-113952380D02*
X128116785Y-113285714D01*
X128116785Y-113476190D02*
X128069166Y-113380952D01*
X128021547Y-113333333D01*
X127926309Y-113285714D01*
X127831071Y-113285714D01*
X127497738Y-113285714D02*
X127497738Y-113952380D01*
X127497738Y-113380952D02*
X127450119Y-113333333D01*
X127354880Y-113285714D01*
X127212023Y-113285714D01*
X127116785Y-113333333D01*
X127069166Y-113428571D01*
X127069166Y-113952380D01*
X126164404Y-113952380D02*
X126164404Y-113428571D01*
X126212023Y-113333333D01*
X126307261Y-113285714D01*
X126497738Y-113285714D01*
X126592976Y-113333333D01*
X126164404Y-113904761D02*
X126259642Y-113952380D01*
X126497738Y-113952380D01*
X126592976Y-113904761D01*
X126640595Y-113809523D01*
X126640595Y-113714285D01*
X126592976Y-113619047D01*
X126497738Y-113571428D01*
X126259642Y-113571428D01*
X126164404Y-113523809D01*
X125545357Y-113952380D02*
X125640595Y-113904761D01*
X125688214Y-113809523D01*
X125688214Y-112952380D01*
X135212023Y-114657619D02*
X135164404Y-114610000D01*
X135069166Y-114562380D01*
X134831071Y-114562380D01*
X134735833Y-114610000D01*
X134688214Y-114657619D01*
X134640595Y-114752857D01*
X134640595Y-114848095D01*
X134688214Y-114990952D01*
X135259642Y-115562380D01*
X134640595Y-115562380D01*
X134212023Y-115181428D02*
X133450119Y-115181428D01*
X133069166Y-114562380D02*
X132450119Y-114562380D01*
X132783452Y-114943333D01*
X132640595Y-114943333D01*
X132545357Y-114990952D01*
X132497738Y-115038571D01*
X132450119Y-115133809D01*
X132450119Y-115371904D01*
X132497738Y-115467142D01*
X132545357Y-115514761D01*
X132640595Y-115562380D01*
X132926309Y-115562380D01*
X133021547Y-115514761D01*
X133069166Y-115467142D01*
X130926309Y-115038571D02*
X130783452Y-115086190D01*
X130735833Y-115133809D01*
X130688214Y-115229047D01*
X130688214Y-115371904D01*
X130735833Y-115467142D01*
X130783452Y-115514761D01*
X130878690Y-115562380D01*
X131259642Y-115562380D01*
X131259642Y-114562380D01*
X130926309Y-114562380D01*
X130831071Y-114610000D01*
X130783452Y-114657619D01*
X130735833Y-114752857D01*
X130735833Y-114848095D01*
X130783452Y-114943333D01*
X130831071Y-114990952D01*
X130926309Y-115038571D01*
X131259642Y-115038571D01*
X129831071Y-115562380D02*
X129831071Y-115038571D01*
X129878690Y-114943333D01*
X129973928Y-114895714D01*
X130164404Y-114895714D01*
X130259642Y-114943333D01*
X129831071Y-115514761D02*
X129926309Y-115562380D01*
X130164404Y-115562380D01*
X130259642Y-115514761D01*
X130307261Y-115419523D01*
X130307261Y-115324285D01*
X130259642Y-115229047D01*
X130164404Y-115181428D01*
X129926309Y-115181428D01*
X129831071Y-115133809D01*
X129497738Y-114895714D02*
X129116785Y-114895714D01*
X129354880Y-114562380D02*
X129354880Y-115419523D01*
X129307261Y-115514761D01*
X129212023Y-115562380D01*
X129116785Y-115562380D01*
X128926309Y-114895714D02*
X128545357Y-114895714D01*
X128783452Y-114562380D02*
X128783452Y-115419523D01*
X128735833Y-115514761D01*
X128640595Y-115562380D01*
X128545357Y-115562380D01*
X127831071Y-115514761D02*
X127926309Y-115562380D01*
X128116785Y-115562380D01*
X128212023Y-115514761D01*
X128259642Y-115419523D01*
X128259642Y-115038571D01*
X128212023Y-114943333D01*
X128116785Y-114895714D01*
X127926309Y-114895714D01*
X127831071Y-114943333D01*
X127783452Y-115038571D01*
X127783452Y-115133809D01*
X128259642Y-115229047D01*
X127354880Y-115562380D02*
X127354880Y-114895714D01*
X127354880Y-115086190D02*
X127307261Y-114990952D01*
X127259642Y-114943333D01*
X127164404Y-114895714D01*
X127069166Y-114895714D01*
X126831071Y-114895714D02*
X126592976Y-115562380D01*
X126354880Y-114895714D02*
X126592976Y-115562380D01*
X126688214Y-115800476D01*
X126735833Y-115848095D01*
X126831071Y-115895714D01*
X125212023Y-115562380D02*
X125212023Y-114562380D01*
X124878690Y-115276666D01*
X124545357Y-114562380D01*
X124545357Y-115562380D01*
X123926309Y-115562380D02*
X124021547Y-115514761D01*
X124069166Y-115467142D01*
X124116785Y-115371904D01*
X124116785Y-115086190D01*
X124069166Y-114990952D01*
X124021547Y-114943333D01*
X123926309Y-114895714D01*
X123783452Y-114895714D01*
X123688214Y-114943333D01*
X123640595Y-114990952D01*
X123592976Y-115086190D01*
X123592976Y-115371904D01*
X123640595Y-115467142D01*
X123688214Y-115514761D01*
X123783452Y-115562380D01*
X123926309Y-115562380D01*
X123164404Y-114895714D02*
X123164404Y-115562380D01*
X123164404Y-114990952D02*
X123116785Y-114943333D01*
X123021547Y-114895714D01*
X122878690Y-114895714D01*
X122783452Y-114943333D01*
X122735833Y-115038571D01*
X122735833Y-115562380D01*
X134878690Y-117782380D02*
X134878690Y-118496666D01*
X134926309Y-118639523D01*
X135021547Y-118734761D01*
X135164404Y-118782380D01*
X135259642Y-118782380D01*
X134402500Y-118782380D02*
X134402500Y-117782380D01*
X134021547Y-117782380D01*
X133926309Y-117830000D01*
X133878690Y-117877619D01*
X133831071Y-117972857D01*
X133831071Y-118115714D01*
X133878690Y-118210952D01*
X133926309Y-118258571D01*
X134021547Y-118306190D01*
X134402500Y-118306190D01*
X133497738Y-117782380D02*
X132878690Y-117782380D01*
X133212023Y-118163333D01*
X133069166Y-118163333D01*
X132973928Y-118210952D01*
X132926309Y-118258571D01*
X132878690Y-118353809D01*
X132878690Y-118591904D01*
X132926309Y-118687142D01*
X132973928Y-118734761D01*
X133069166Y-118782380D01*
X133354880Y-118782380D01*
X133450119Y-118734761D01*
X133497738Y-118687142D01*
X131735833Y-117734761D02*
X132592976Y-119020476D01*
X131116785Y-117782380D02*
X131116785Y-118496666D01*
X131164404Y-118639523D01*
X131259642Y-118734761D01*
X131402500Y-118782380D01*
X131497738Y-118782380D01*
X130640595Y-118782380D02*
X130640595Y-117782380D01*
X130259642Y-117782380D01*
X130164404Y-117830000D01*
X130116785Y-117877619D01*
X130069166Y-117972857D01*
X130069166Y-118115714D01*
X130116785Y-118210952D01*
X130164404Y-118258571D01*
X130259642Y-118306190D01*
X130640595Y-118306190D01*
X129212023Y-118115714D02*
X129212023Y-118782380D01*
X129450119Y-117734761D02*
X129688214Y-118449047D01*
X129069166Y-118449047D01*
X127926309Y-118782380D02*
X127926309Y-117782380D01*
X127450119Y-118115714D02*
X127450119Y-118782380D01*
X127450119Y-118210952D02*
X127402500Y-118163333D01*
X127307261Y-118115714D01*
X127164404Y-118115714D01*
X127069166Y-118163333D01*
X127021547Y-118258571D01*
X127021547Y-118782380D01*
X126545357Y-118115714D02*
X126545357Y-119115714D01*
X126545357Y-118163333D02*
X126450119Y-118115714D01*
X126259642Y-118115714D01*
X126164404Y-118163333D01*
X126116785Y-118210952D01*
X126069166Y-118306190D01*
X126069166Y-118591904D01*
X126116785Y-118687142D01*
X126164404Y-118734761D01*
X126259642Y-118782380D01*
X126450119Y-118782380D01*
X126545357Y-118734761D01*
X125212023Y-118115714D02*
X125212023Y-118782380D01*
X125640595Y-118115714D02*
X125640595Y-118639523D01*
X125592976Y-118734761D01*
X125497738Y-118782380D01*
X125354880Y-118782380D01*
X125259642Y-118734761D01*
X125212023Y-118687142D01*
X124878690Y-118115714D02*
X124497738Y-118115714D01*
X124735833Y-117782380D02*
X124735833Y-118639523D01*
X124688214Y-118734761D01*
X124592976Y-118782380D01*
X124497738Y-118782380D01*
X123402500Y-118782380D02*
X123402500Y-117782380D01*
X123021547Y-117782380D01*
X122926309Y-117830000D01*
X122878690Y-117877619D01*
X122831071Y-117972857D01*
X122831071Y-118115714D01*
X122878690Y-118210952D01*
X122926309Y-118258571D01*
X123021547Y-118306190D01*
X123402500Y-118306190D01*
X121973928Y-118782380D02*
X121973928Y-118258571D01*
X122021547Y-118163333D01*
X122116785Y-118115714D01*
X122307261Y-118115714D01*
X122402500Y-118163333D01*
X121973928Y-118734761D02*
X122069166Y-118782380D01*
X122307261Y-118782380D01*
X122402500Y-118734761D01*
X122450119Y-118639523D01*
X122450119Y-118544285D01*
X122402500Y-118449047D01*
X122307261Y-118401428D01*
X122069166Y-118401428D01*
X121973928Y-118353809D01*
X121069166Y-118782380D02*
X121069166Y-117782380D01*
X121069166Y-118734761D02*
X121164404Y-118782380D01*
X121354880Y-118782380D01*
X121450119Y-118734761D01*
X121497738Y-118687142D01*
X121545357Y-118591904D01*
X121545357Y-118306190D01*
X121497738Y-118210952D01*
X121450119Y-118163333D01*
X121354880Y-118115714D01*
X121164404Y-118115714D01*
X121069166Y-118163333D01*
X134878690Y-119392380D02*
X134878690Y-120106666D01*
X134926309Y-120249523D01*
X135021547Y-120344761D01*
X135164404Y-120392380D01*
X135259642Y-120392380D01*
X134402500Y-120392380D02*
X134402500Y-119392380D01*
X134021547Y-119392380D01*
X133926309Y-119440000D01*
X133878690Y-119487619D01*
X133831071Y-119582857D01*
X133831071Y-119725714D01*
X133878690Y-119820952D01*
X133926309Y-119868571D01*
X134021547Y-119916190D01*
X134402500Y-119916190D01*
X133497738Y-119392380D02*
X132878690Y-119392380D01*
X133212023Y-119773333D01*
X133069166Y-119773333D01*
X132973928Y-119820952D01*
X132926309Y-119868571D01*
X132878690Y-119963809D01*
X132878690Y-120201904D01*
X132926309Y-120297142D01*
X132973928Y-120344761D01*
X133069166Y-120392380D01*
X133354880Y-120392380D01*
X133450119Y-120344761D01*
X133497738Y-120297142D01*
X131688214Y-120392380D02*
X131688214Y-119392380D01*
X131212023Y-120392380D02*
X131212023Y-119392380D01*
X130640595Y-120392380D01*
X130640595Y-119392380D01*
X129450119Y-119344761D02*
X130307261Y-120630476D01*
X128831071Y-119392380D02*
X128831071Y-120106666D01*
X128878690Y-120249523D01*
X128973928Y-120344761D01*
X129116785Y-120392380D01*
X129212023Y-120392380D01*
X128354880Y-120392380D02*
X128354880Y-119392380D01*
X127973928Y-119392380D01*
X127878690Y-119440000D01*
X127831071Y-119487619D01*
X127783452Y-119582857D01*
X127783452Y-119725714D01*
X127831071Y-119820952D01*
X127878690Y-119868571D01*
X127973928Y-119916190D01*
X128354880Y-119916190D01*
X126926309Y-119725714D02*
X126926309Y-120392380D01*
X127164404Y-119344761D02*
X127402500Y-120059047D01*
X126783452Y-120059047D01*
X125450119Y-119392380D02*
X125259642Y-119392380D01*
X125164404Y-119440000D01*
X125069166Y-119535238D01*
X125021547Y-119725714D01*
X125021547Y-120059047D01*
X125069166Y-120249523D01*
X125164404Y-120344761D01*
X125259642Y-120392380D01*
X125450119Y-120392380D01*
X125545357Y-120344761D01*
X125640595Y-120249523D01*
X125688214Y-120059047D01*
X125688214Y-119725714D01*
X125640595Y-119535238D01*
X125545357Y-119440000D01*
X125450119Y-119392380D01*
X124592976Y-119392380D02*
X124592976Y-120201904D01*
X124545357Y-120297142D01*
X124497738Y-120344761D01*
X124402500Y-120392380D01*
X124212023Y-120392380D01*
X124116785Y-120344761D01*
X124069166Y-120297142D01*
X124021547Y-120201904D01*
X124021547Y-119392380D01*
X123688214Y-119392380D02*
X123116785Y-119392380D01*
X123402500Y-120392380D02*
X123402500Y-119392380D01*
X122021547Y-119868571D02*
X121688214Y-119868571D01*
X121545357Y-120392380D02*
X122021547Y-120392380D01*
X122021547Y-119392380D01*
X121545357Y-119392380D01*
X121116785Y-119725714D02*
X121116785Y-120392380D01*
X121116785Y-119820952D02*
X121069166Y-119773333D01*
X120973928Y-119725714D01*
X120831071Y-119725714D01*
X120735833Y-119773333D01*
X120688214Y-119868571D01*
X120688214Y-120392380D01*
X119783452Y-120392380D02*
X119783452Y-119868571D01*
X119831071Y-119773333D01*
X119926309Y-119725714D01*
X120116785Y-119725714D01*
X120212023Y-119773333D01*
X119783452Y-120344761D02*
X119878690Y-120392380D01*
X120116785Y-120392380D01*
X120212023Y-120344761D01*
X120259642Y-120249523D01*
X120259642Y-120154285D01*
X120212023Y-120059047D01*
X120116785Y-120011428D01*
X119878690Y-120011428D01*
X119783452Y-119963809D01*
X119307261Y-120392380D02*
X119307261Y-119392380D01*
X119307261Y-119773333D02*
X119212023Y-119725714D01*
X119021547Y-119725714D01*
X118926309Y-119773333D01*
X118878690Y-119820952D01*
X118831071Y-119916190D01*
X118831071Y-120201904D01*
X118878690Y-120297142D01*
X118926309Y-120344761D01*
X119021547Y-120392380D01*
X119212023Y-120392380D01*
X119307261Y-120344761D01*
X118259642Y-120392380D02*
X118354880Y-120344761D01*
X118402500Y-120249523D01*
X118402500Y-119392380D01*
X117497738Y-120344761D02*
X117592976Y-120392380D01*
X117783452Y-120392380D01*
X117878690Y-120344761D01*
X117926309Y-120249523D01*
X117926309Y-119868571D01*
X117878690Y-119773333D01*
X117783452Y-119725714D01*
X117592976Y-119725714D01*
X117497738Y-119773333D01*
X117450119Y-119868571D01*
X117450119Y-119963809D01*
X117926309Y-120059047D01*
X116592976Y-120392380D02*
X116592976Y-119392380D01*
X116592976Y-120344761D02*
X116688214Y-120392380D01*
X116878690Y-120392380D01*
X116973928Y-120344761D01*
X117021547Y-120297142D01*
X117069166Y-120201904D01*
X117069166Y-119916190D01*
X117021547Y-119820952D01*
X116973928Y-119773333D01*
X116878690Y-119725714D01*
X116688214Y-119725714D01*
X116592976Y-119773333D01*
X134878690Y-121002380D02*
X134878690Y-121716666D01*
X134926309Y-121859523D01*
X135021547Y-121954761D01*
X135164404Y-122002380D01*
X135259642Y-122002380D01*
X134402500Y-122002380D02*
X134402500Y-121002380D01*
X134021547Y-121002380D01*
X133926309Y-121050000D01*
X133878690Y-121097619D01*
X133831071Y-121192857D01*
X133831071Y-121335714D01*
X133878690Y-121430952D01*
X133926309Y-121478571D01*
X134021547Y-121526190D01*
X134402500Y-121526190D01*
X133497738Y-121002380D02*
X132878690Y-121002380D01*
X133212023Y-121383333D01*
X133069166Y-121383333D01*
X132973928Y-121430952D01*
X132926309Y-121478571D01*
X132878690Y-121573809D01*
X132878690Y-121811904D01*
X132926309Y-121907142D01*
X132973928Y-121954761D01*
X133069166Y-122002380D01*
X133354880Y-122002380D01*
X133450119Y-121954761D01*
X133497738Y-121907142D01*
X131497738Y-121002380D02*
X131307261Y-121002380D01*
X131212023Y-121050000D01*
X131116785Y-121145238D01*
X131069166Y-121335714D01*
X131069166Y-121669047D01*
X131116785Y-121859523D01*
X131212023Y-121954761D01*
X131307261Y-122002380D01*
X131497738Y-122002380D01*
X131592976Y-121954761D01*
X131688214Y-121859523D01*
X131735833Y-121669047D01*
X131735833Y-121335714D01*
X131688214Y-121145238D01*
X131592976Y-121050000D01*
X131497738Y-121002380D01*
X130640595Y-121002380D02*
X130640595Y-121811904D01*
X130592976Y-121907142D01*
X130545357Y-121954761D01*
X130450119Y-122002380D01*
X130259642Y-122002380D01*
X130164404Y-121954761D01*
X130116785Y-121907142D01*
X130069166Y-121811904D01*
X130069166Y-121002380D01*
X129735833Y-121002380D02*
X129164404Y-121002380D01*
X129450119Y-122002380D02*
X129450119Y-121002380D01*
X128116785Y-120954761D02*
X128973928Y-122240476D01*
X127497738Y-121002380D02*
X127497738Y-121716666D01*
X127545357Y-121859523D01*
X127640595Y-121954761D01*
X127783452Y-122002380D01*
X127878690Y-122002380D01*
X127021547Y-122002380D02*
X127021547Y-121002380D01*
X126640595Y-121002380D01*
X126545357Y-121050000D01*
X126497738Y-121097619D01*
X126450119Y-121192857D01*
X126450119Y-121335714D01*
X126497738Y-121430952D01*
X126545357Y-121478571D01*
X126640595Y-121526190D01*
X127021547Y-121526190D01*
X125592976Y-121335714D02*
X125592976Y-122002380D01*
X125831071Y-120954761D02*
X126069166Y-121669047D01*
X125450119Y-121669047D01*
X124307261Y-122002380D02*
X124307261Y-121002380D01*
X123831071Y-122002380D02*
X123831071Y-121002380D01*
X123259642Y-122002380D01*
X123259642Y-121002380D01*
X121688214Y-121478571D02*
X121545357Y-121526190D01*
X121497738Y-121573809D01*
X121450119Y-121669047D01*
X121450119Y-121811904D01*
X121497738Y-121907142D01*
X121545357Y-121954761D01*
X121640595Y-122002380D01*
X122021547Y-122002380D01*
X122021547Y-121002380D01*
X121688214Y-121002380D01*
X121592976Y-121050000D01*
X121545357Y-121097619D01*
X121497738Y-121192857D01*
X121497738Y-121288095D01*
X121545357Y-121383333D01*
X121592976Y-121430952D01*
X121688214Y-121478571D01*
X122021547Y-121478571D01*
X121116785Y-121335714D02*
X120878690Y-122002380D01*
X120640595Y-121335714D02*
X120878690Y-122002380D01*
X120973928Y-122240476D01*
X121021547Y-122288095D01*
X121116785Y-122335714D01*
X120259642Y-121335714D02*
X120259642Y-122335714D01*
X120259642Y-121383333D02*
X120164404Y-121335714D01*
X119973928Y-121335714D01*
X119878690Y-121383333D01*
X119831071Y-121430952D01*
X119783452Y-121526190D01*
X119783452Y-121811904D01*
X119831071Y-121907142D01*
X119878690Y-121954761D01*
X119973928Y-122002380D01*
X120164404Y-122002380D01*
X120259642Y-121954761D01*
X118926309Y-122002380D02*
X118926309Y-121478571D01*
X118973928Y-121383333D01*
X119069166Y-121335714D01*
X119259642Y-121335714D01*
X119354880Y-121383333D01*
X118926309Y-121954761D02*
X119021547Y-122002380D01*
X119259642Y-122002380D01*
X119354880Y-121954761D01*
X119402500Y-121859523D01*
X119402500Y-121764285D01*
X119354880Y-121669047D01*
X119259642Y-121621428D01*
X119021547Y-121621428D01*
X118926309Y-121573809D01*
X118497738Y-121954761D02*
X118402500Y-122002380D01*
X118212023Y-122002380D01*
X118116785Y-121954761D01*
X118069166Y-121859523D01*
X118069166Y-121811904D01*
X118116785Y-121716666D01*
X118212023Y-121669047D01*
X118354880Y-121669047D01*
X118450119Y-121621428D01*
X118497738Y-121526190D01*
X118497738Y-121478571D01*
X118450119Y-121383333D01*
X118354880Y-121335714D01*
X118212023Y-121335714D01*
X118116785Y-121383333D01*
X117688214Y-121954761D02*
X117592976Y-122002380D01*
X117402500Y-122002380D01*
X117307261Y-121954761D01*
X117259642Y-121859523D01*
X117259642Y-121811904D01*
X117307261Y-121716666D01*
X117402500Y-121669047D01*
X117545357Y-121669047D01*
X117640595Y-121621428D01*
X117688214Y-121526190D01*
X117688214Y-121478571D01*
X117640595Y-121383333D01*
X117545357Y-121335714D01*
X117402500Y-121335714D01*
X117307261Y-121383333D01*
X133378690Y-130872380D02*
X133378690Y-131586666D01*
X133426309Y-131729523D01*
X133521547Y-131824761D01*
X133664404Y-131872380D01*
X133759642Y-131872380D01*
X132902500Y-131872380D02*
X132902500Y-130872380D01*
X132521547Y-130872380D01*
X132426309Y-130920000D01*
X132378690Y-130967619D01*
X132331071Y-131062857D01*
X132331071Y-131205714D01*
X132378690Y-131300952D01*
X132426309Y-131348571D01*
X132521547Y-131396190D01*
X132902500Y-131396190D01*
X131997738Y-130872380D02*
X131331071Y-130872380D01*
X131759642Y-131872380D01*
X130235833Y-131586666D02*
X129759642Y-131586666D01*
X130331071Y-131872380D02*
X129997738Y-130872380D01*
X129664404Y-131872380D01*
X129331071Y-131872380D02*
X129331071Y-130872380D01*
X128759642Y-131872380D01*
X128759642Y-130872380D01*
X127759642Y-131872380D02*
X128331071Y-131872380D01*
X128045357Y-131872380D02*
X128045357Y-130872380D01*
X128140595Y-131015238D01*
X128235833Y-131110476D01*
X128331071Y-131158095D01*
X126616785Y-130824761D02*
X127473928Y-132110476D01*
X125759642Y-130920000D02*
X125854880Y-130872380D01*
X125997738Y-130872380D01*
X126140595Y-130920000D01*
X126235833Y-131015238D01*
X126283452Y-131110476D01*
X126331071Y-131300952D01*
X126331071Y-131443809D01*
X126283452Y-131634285D01*
X126235833Y-131729523D01*
X126140595Y-131824761D01*
X125997738Y-131872380D01*
X125902500Y-131872380D01*
X125759642Y-131824761D01*
X125712023Y-131777142D01*
X125712023Y-131443809D01*
X125902500Y-131443809D01*
X125283452Y-131872380D02*
X125283452Y-130872380D01*
X124902500Y-130872380D01*
X124807261Y-130920000D01*
X124759642Y-130967619D01*
X124712023Y-131062857D01*
X124712023Y-131205714D01*
X124759642Y-131300952D01*
X124807261Y-131348571D01*
X124902500Y-131396190D01*
X125283452Y-131396190D01*
X124283452Y-131872380D02*
X124283452Y-130872380D01*
X123616785Y-130872380D02*
X123426309Y-130872380D01*
X123331071Y-130920000D01*
X123235833Y-131015238D01*
X123188214Y-131205714D01*
X123188214Y-131539047D01*
X123235833Y-131729523D01*
X123331071Y-131824761D01*
X123426309Y-131872380D01*
X123616785Y-131872380D01*
X123712023Y-131824761D01*
X123807261Y-131729523D01*
X123854880Y-131539047D01*
X123854880Y-131205714D01*
X123807261Y-131015238D01*
X123712023Y-130920000D01*
X123616785Y-130872380D01*
X122807261Y-131586666D02*
X122331071Y-131586666D01*
X122902500Y-131872380D02*
X122569166Y-130872380D01*
X122235833Y-131872380D01*
X121378690Y-131872380D02*
X121950119Y-131872380D01*
X121664404Y-131872380D02*
X121664404Y-130872380D01*
X121759642Y-131015238D01*
X121854880Y-131110476D01*
X121950119Y-131158095D01*
X120521547Y-130872380D02*
X120712023Y-130872380D01*
X120807261Y-130920000D01*
X120854880Y-130967619D01*
X120950119Y-131110476D01*
X120997738Y-131300952D01*
X120997738Y-131681904D01*
X120950119Y-131777142D01*
X120902500Y-131824761D01*
X120807261Y-131872380D01*
X120616785Y-131872380D01*
X120521547Y-131824761D01*
X120473928Y-131777142D01*
X120426309Y-131681904D01*
X120426309Y-131443809D01*
X120473928Y-131348571D01*
X120521547Y-131300952D01*
X120616785Y-131253333D01*
X120807261Y-131253333D01*
X120902500Y-131300952D01*
X120950119Y-131348571D01*
X120997738Y-131443809D01*
X119283452Y-131824761D02*
X119140595Y-131872380D01*
X118902500Y-131872380D01*
X118807261Y-131824761D01*
X118759642Y-131777142D01*
X118712023Y-131681904D01*
X118712023Y-131586666D01*
X118759642Y-131491428D01*
X118807261Y-131443809D01*
X118902500Y-131396190D01*
X119092976Y-131348571D01*
X119188214Y-131300952D01*
X119235833Y-131253333D01*
X119283452Y-131158095D01*
X119283452Y-131062857D01*
X119235833Y-130967619D01*
X119188214Y-130920000D01*
X119092976Y-130872380D01*
X118854880Y-130872380D01*
X118712023Y-130920000D01*
X117902500Y-131824761D02*
X117997738Y-131872380D01*
X118188214Y-131872380D01*
X118283452Y-131824761D01*
X118331071Y-131729523D01*
X118331071Y-131348571D01*
X118283452Y-131253333D01*
X118188214Y-131205714D01*
X117997738Y-131205714D01*
X117902500Y-131253333D01*
X117854880Y-131348571D01*
X117854880Y-131443809D01*
X118331071Y-131539047D01*
X117283452Y-131872380D02*
X117378690Y-131824761D01*
X117426309Y-131729523D01*
X117426309Y-130872380D01*
X133140595Y-133482380D02*
X133712023Y-133482380D01*
X133426309Y-133482380D02*
X133426309Y-132482380D01*
X133521547Y-132625238D01*
X133616785Y-132720476D01*
X133712023Y-132768095D01*
X132712023Y-133101428D02*
X131950119Y-133101428D01*
X131521547Y-132577619D02*
X131473928Y-132530000D01*
X131378690Y-132482380D01*
X131140595Y-132482380D01*
X131045357Y-132530000D01*
X130997738Y-132577619D01*
X130950119Y-132672857D01*
X130950119Y-132768095D01*
X130997738Y-132910952D01*
X131569166Y-133482380D01*
X130950119Y-133482380D01*
X129807261Y-133196666D02*
X129331071Y-133196666D01*
X129902500Y-133482380D02*
X129569166Y-132482380D01*
X129235833Y-133482380D01*
X128902500Y-133482380D02*
X128902500Y-132482380D01*
X128331071Y-133482380D01*
X128331071Y-132482380D01*
X127331071Y-133482380D02*
X127902500Y-133482380D01*
X127616785Y-133482380D02*
X127616785Y-132482380D01*
X127712023Y-132625238D01*
X127807261Y-132720476D01*
X127902500Y-132768095D01*
X133712023Y-134187619D02*
X133664404Y-134140000D01*
X133569166Y-134092380D01*
X133331071Y-134092380D01*
X133235833Y-134140000D01*
X133188214Y-134187619D01*
X133140595Y-134282857D01*
X133140595Y-134378095D01*
X133188214Y-134520952D01*
X133759642Y-135092380D01*
X133140595Y-135092380D01*
X132712023Y-134711428D02*
X131950119Y-134711428D01*
X131569166Y-134092380D02*
X130950119Y-134092380D01*
X131283452Y-134473333D01*
X131140595Y-134473333D01*
X131045357Y-134520952D01*
X130997738Y-134568571D01*
X130950119Y-134663809D01*
X130950119Y-134901904D01*
X130997738Y-134997142D01*
X131045357Y-135044761D01*
X131140595Y-135092380D01*
X131426309Y-135092380D01*
X131521547Y-135044761D01*
X131569166Y-134997142D01*
X129235833Y-134140000D02*
X129331071Y-134092380D01*
X129473928Y-134092380D01*
X129616785Y-134140000D01*
X129712023Y-134235238D01*
X129759642Y-134330476D01*
X129807261Y-134520952D01*
X129807261Y-134663809D01*
X129759642Y-134854285D01*
X129712023Y-134949523D01*
X129616785Y-135044761D01*
X129473928Y-135092380D01*
X129378690Y-135092380D01*
X129235833Y-135044761D01*
X129188214Y-134997142D01*
X129188214Y-134663809D01*
X129378690Y-134663809D01*
X128759642Y-135092380D02*
X128759642Y-134092380D01*
X128378690Y-134092380D01*
X128283452Y-134140000D01*
X128235833Y-134187619D01*
X128188214Y-134282857D01*
X128188214Y-134425714D01*
X128235833Y-134520952D01*
X128283452Y-134568571D01*
X128378690Y-134616190D01*
X128759642Y-134616190D01*
X127759642Y-135092380D02*
X127759642Y-134092380D01*
X127092976Y-134092380D02*
X126902500Y-134092380D01*
X126807261Y-134140000D01*
X126712023Y-134235238D01*
X126664404Y-134425714D01*
X126664404Y-134759047D01*
X126712023Y-134949523D01*
X126807261Y-135044761D01*
X126902500Y-135092380D01*
X127092976Y-135092380D01*
X127188214Y-135044761D01*
X127283452Y-134949523D01*
X127331071Y-134759047D01*
X127331071Y-134425714D01*
X127283452Y-134235238D01*
X127188214Y-134140000D01*
X127092976Y-134092380D01*
X126283452Y-134806666D02*
X125807261Y-134806666D01*
X126378690Y-135092380D02*
X126045357Y-134092380D01*
X125712023Y-135092380D01*
X124854880Y-135092380D02*
X125426309Y-135092380D01*
X125140595Y-135092380D02*
X125140595Y-134092380D01*
X125235833Y-134235238D01*
X125331071Y-134330476D01*
X125426309Y-134378095D01*
X123997738Y-134092380D02*
X124188214Y-134092380D01*
X124283452Y-134140000D01*
X124331071Y-134187619D01*
X124426309Y-134330476D01*
X124473928Y-134520952D01*
X124473928Y-134901904D01*
X124426309Y-134997142D01*
X124378690Y-135044761D01*
X124283452Y-135092380D01*
X124092976Y-135092380D01*
X123997738Y-135044761D01*
X123950119Y-134997142D01*
X123902500Y-134901904D01*
X123902500Y-134663809D01*
X123950119Y-134568571D01*
X123997738Y-134520952D01*
X124092976Y-134473333D01*
X124283452Y-134473333D01*
X124378690Y-134520952D01*
X124426309Y-134568571D01*
X124473928Y-134663809D01*
X133378690Y-137312380D02*
X133378690Y-138026666D01*
X133426309Y-138169523D01*
X133521547Y-138264761D01*
X133664404Y-138312380D01*
X133759642Y-138312380D01*
X132902500Y-138312380D02*
X132902500Y-137312380D01*
X132521547Y-137312380D01*
X132426309Y-137360000D01*
X132378690Y-137407619D01*
X132331071Y-137502857D01*
X132331071Y-137645714D01*
X132378690Y-137740952D01*
X132426309Y-137788571D01*
X132521547Y-137836190D01*
X132902500Y-137836190D01*
X131759642Y-137740952D02*
X131854880Y-137693333D01*
X131902500Y-137645714D01*
X131950119Y-137550476D01*
X131950119Y-137502857D01*
X131902500Y-137407619D01*
X131854880Y-137360000D01*
X131759642Y-137312380D01*
X131569166Y-137312380D01*
X131473928Y-137360000D01*
X131426309Y-137407619D01*
X131378690Y-137502857D01*
X131378690Y-137550476D01*
X131426309Y-137645714D01*
X131473928Y-137693333D01*
X131569166Y-137740952D01*
X131759642Y-137740952D01*
X131854880Y-137788571D01*
X131902500Y-137836190D01*
X131950119Y-137931428D01*
X131950119Y-138121904D01*
X131902500Y-138217142D01*
X131854880Y-138264761D01*
X131759642Y-138312380D01*
X131569166Y-138312380D01*
X131473928Y-138264761D01*
X131426309Y-138217142D01*
X131378690Y-138121904D01*
X131378690Y-137931428D01*
X131426309Y-137836190D01*
X131473928Y-137788571D01*
X131569166Y-137740952D01*
X130235833Y-138026666D02*
X129759642Y-138026666D01*
X130331071Y-138312380D02*
X129997738Y-137312380D01*
X129664404Y-138312380D01*
X129331071Y-138312380D02*
X129331071Y-137312380D01*
X128759642Y-138312380D01*
X128759642Y-137312380D01*
X128331071Y-137407619D02*
X128283452Y-137360000D01*
X128188214Y-137312380D01*
X127950119Y-137312380D01*
X127854880Y-137360000D01*
X127807261Y-137407619D01*
X127759642Y-137502857D01*
X127759642Y-137598095D01*
X127807261Y-137740952D01*
X128378690Y-138312380D01*
X127759642Y-138312380D01*
X126616785Y-137264761D02*
X127473928Y-138550476D01*
X125759642Y-137360000D02*
X125854880Y-137312380D01*
X125997738Y-137312380D01*
X126140595Y-137360000D01*
X126235833Y-137455238D01*
X126283452Y-137550476D01*
X126331071Y-137740952D01*
X126331071Y-137883809D01*
X126283452Y-138074285D01*
X126235833Y-138169523D01*
X126140595Y-138264761D01*
X125997738Y-138312380D01*
X125902500Y-138312380D01*
X125759642Y-138264761D01*
X125712023Y-138217142D01*
X125712023Y-137883809D01*
X125902500Y-137883809D01*
X125283452Y-138312380D02*
X125283452Y-137312380D01*
X124902500Y-137312380D01*
X124807261Y-137360000D01*
X124759642Y-137407619D01*
X124712023Y-137502857D01*
X124712023Y-137645714D01*
X124759642Y-137740952D01*
X124807261Y-137788571D01*
X124902500Y-137836190D01*
X125283452Y-137836190D01*
X124283452Y-138312380D02*
X124283452Y-137312380D01*
X123616785Y-137312380D02*
X123426309Y-137312380D01*
X123331071Y-137360000D01*
X123235833Y-137455238D01*
X123188214Y-137645714D01*
X123188214Y-137979047D01*
X123235833Y-138169523D01*
X123331071Y-138264761D01*
X123426309Y-138312380D01*
X123616785Y-138312380D01*
X123712023Y-138264761D01*
X123807261Y-138169523D01*
X123854880Y-137979047D01*
X123854880Y-137645714D01*
X123807261Y-137455238D01*
X123712023Y-137360000D01*
X123616785Y-137312380D01*
X122807261Y-138026666D02*
X122331071Y-138026666D01*
X122902500Y-138312380D02*
X122569166Y-137312380D01*
X122235833Y-138312380D01*
X121378690Y-138312380D02*
X121950119Y-138312380D01*
X121664404Y-138312380D02*
X121664404Y-137312380D01*
X121759642Y-137455238D01*
X121854880Y-137550476D01*
X121950119Y-137598095D01*
X120521547Y-137645714D02*
X120521547Y-138312380D01*
X120759642Y-137264761D02*
X120997738Y-137979047D01*
X120378690Y-137979047D01*
X119283452Y-138264761D02*
X119140595Y-138312380D01*
X118902500Y-138312380D01*
X118807261Y-138264761D01*
X118759642Y-138217142D01*
X118712023Y-138121904D01*
X118712023Y-138026666D01*
X118759642Y-137931428D01*
X118807261Y-137883809D01*
X118902500Y-137836190D01*
X119092976Y-137788571D01*
X119188214Y-137740952D01*
X119235833Y-137693333D01*
X119283452Y-137598095D01*
X119283452Y-137502857D01*
X119235833Y-137407619D01*
X119188214Y-137360000D01*
X119092976Y-137312380D01*
X118854880Y-137312380D01*
X118712023Y-137360000D01*
X117902500Y-138264761D02*
X117997738Y-138312380D01*
X118188214Y-138312380D01*
X118283452Y-138264761D01*
X118331071Y-138169523D01*
X118331071Y-137788571D01*
X118283452Y-137693333D01*
X118188214Y-137645714D01*
X117997738Y-137645714D01*
X117902500Y-137693333D01*
X117854880Y-137788571D01*
X117854880Y-137883809D01*
X118331071Y-137979047D01*
X117283452Y-138312380D02*
X117378690Y-138264761D01*
X117426309Y-138169523D01*
X117426309Y-137312380D01*
X133140595Y-139922380D02*
X133712023Y-139922380D01*
X133426309Y-139922380D02*
X133426309Y-138922380D01*
X133521547Y-139065238D01*
X133616785Y-139160476D01*
X133712023Y-139208095D01*
X132712023Y-139541428D02*
X131950119Y-139541428D01*
X131521547Y-139017619D02*
X131473928Y-138970000D01*
X131378690Y-138922380D01*
X131140595Y-138922380D01*
X131045357Y-138970000D01*
X130997738Y-139017619D01*
X130950119Y-139112857D01*
X130950119Y-139208095D01*
X130997738Y-139350952D01*
X131569166Y-139922380D01*
X130950119Y-139922380D01*
X129807261Y-139636666D02*
X129331071Y-139636666D01*
X129902500Y-139922380D02*
X129569166Y-138922380D01*
X129235833Y-139922380D01*
X128902500Y-139922380D02*
X128902500Y-138922380D01*
X128331071Y-139922380D01*
X128331071Y-138922380D01*
X127902500Y-139017619D02*
X127854880Y-138970000D01*
X127759642Y-138922380D01*
X127521547Y-138922380D01*
X127426309Y-138970000D01*
X127378690Y-139017619D01*
X127331071Y-139112857D01*
X127331071Y-139208095D01*
X127378690Y-139350952D01*
X127950119Y-139922380D01*
X127331071Y-139922380D01*
X133712023Y-140627619D02*
X133664404Y-140580000D01*
X133569166Y-140532380D01*
X133331071Y-140532380D01*
X133235833Y-140580000D01*
X133188214Y-140627619D01*
X133140595Y-140722857D01*
X133140595Y-140818095D01*
X133188214Y-140960952D01*
X133759642Y-141532380D01*
X133140595Y-141532380D01*
X132712023Y-141151428D02*
X131950119Y-141151428D01*
X131569166Y-140532380D02*
X130950119Y-140532380D01*
X131283452Y-140913333D01*
X131140595Y-140913333D01*
X131045357Y-140960952D01*
X130997738Y-141008571D01*
X130950119Y-141103809D01*
X130950119Y-141341904D01*
X130997738Y-141437142D01*
X131045357Y-141484761D01*
X131140595Y-141532380D01*
X131426309Y-141532380D01*
X131521547Y-141484761D01*
X131569166Y-141437142D01*
X129235833Y-140580000D02*
X129331071Y-140532380D01*
X129473928Y-140532380D01*
X129616785Y-140580000D01*
X129712023Y-140675238D01*
X129759642Y-140770476D01*
X129807261Y-140960952D01*
X129807261Y-141103809D01*
X129759642Y-141294285D01*
X129712023Y-141389523D01*
X129616785Y-141484761D01*
X129473928Y-141532380D01*
X129378690Y-141532380D01*
X129235833Y-141484761D01*
X129188214Y-141437142D01*
X129188214Y-141103809D01*
X129378690Y-141103809D01*
X128759642Y-141532380D02*
X128759642Y-140532380D01*
X128378690Y-140532380D01*
X128283452Y-140580000D01*
X128235833Y-140627619D01*
X128188214Y-140722857D01*
X128188214Y-140865714D01*
X128235833Y-140960952D01*
X128283452Y-141008571D01*
X128378690Y-141056190D01*
X128759642Y-141056190D01*
X127759642Y-141532380D02*
X127759642Y-140532380D01*
X127092976Y-140532380D02*
X126902500Y-140532380D01*
X126807261Y-140580000D01*
X126712023Y-140675238D01*
X126664404Y-140865714D01*
X126664404Y-141199047D01*
X126712023Y-141389523D01*
X126807261Y-141484761D01*
X126902500Y-141532380D01*
X127092976Y-141532380D01*
X127188214Y-141484761D01*
X127283452Y-141389523D01*
X127331071Y-141199047D01*
X127331071Y-140865714D01*
X127283452Y-140675238D01*
X127188214Y-140580000D01*
X127092976Y-140532380D01*
X126283452Y-141246666D02*
X125807261Y-141246666D01*
X126378690Y-141532380D02*
X126045357Y-140532380D01*
X125712023Y-141532380D01*
X124854880Y-141532380D02*
X125426309Y-141532380D01*
X125140595Y-141532380D02*
X125140595Y-140532380D01*
X125235833Y-140675238D01*
X125331071Y-140770476D01*
X125426309Y-140818095D01*
X123997738Y-140865714D02*
X123997738Y-141532380D01*
X124235833Y-140484761D02*
X124473928Y-141199047D01*
X123854880Y-141199047D01*
X105164404Y-105707380D02*
X105164404Y-104707380D01*
X104926309Y-104707380D01*
X104783452Y-104755000D01*
X104688214Y-104850238D01*
X104640595Y-104945476D01*
X104592976Y-105135952D01*
X104592976Y-105278809D01*
X104640595Y-105469285D01*
X104688214Y-105564523D01*
X104783452Y-105659761D01*
X104926309Y-105707380D01*
X105164404Y-105707380D01*
X103831071Y-105183571D02*
X103688214Y-105231190D01*
X103640595Y-105278809D01*
X103592976Y-105374047D01*
X103592976Y-105516904D01*
X103640595Y-105612142D01*
X103688214Y-105659761D01*
X103783452Y-105707380D01*
X104164404Y-105707380D01*
X104164404Y-104707380D01*
X103831071Y-104707380D01*
X103735833Y-104755000D01*
X103688214Y-104802619D01*
X103640595Y-104897857D01*
X103640595Y-104993095D01*
X103688214Y-105088333D01*
X103735833Y-105135952D01*
X103831071Y-105183571D01*
X104164404Y-105183571D01*
X103116785Y-105707380D02*
X102926309Y-105707380D01*
X102831071Y-105659761D01*
X102783452Y-105612142D01*
X102688214Y-105469285D01*
X102640595Y-105278809D01*
X102640595Y-104897857D01*
X102688214Y-104802619D01*
X102735833Y-104755000D01*
X102831071Y-104707380D01*
X103021547Y-104707380D01*
X103116785Y-104755000D01*
X103164404Y-104802619D01*
X103212023Y-104897857D01*
X103212023Y-105135952D01*
X103164404Y-105231190D01*
X103116785Y-105278809D01*
X103021547Y-105326428D01*
X102831071Y-105326428D01*
X102735833Y-105278809D01*
X102688214Y-105231190D01*
X102640595Y-105135952D01*
X104640595Y-107317380D02*
X105212023Y-107317380D01*
X104926309Y-107317380D02*
X104926309Y-106317380D01*
X105021547Y-106460238D01*
X105116785Y-106555476D01*
X105212023Y-106603095D01*
X100450119Y-107031666D02*
X99973928Y-107031666D01*
X100545357Y-107317380D02*
X100212023Y-106317380D01*
X99878690Y-107317380D01*
X99116785Y-106650714D02*
X99116785Y-107317380D01*
X99545357Y-106650714D02*
X99545357Y-107174523D01*
X99497738Y-107269761D01*
X99402500Y-107317380D01*
X99259642Y-107317380D01*
X99164404Y-107269761D01*
X99116785Y-107222142D01*
X98212023Y-107317380D02*
X98212023Y-106317380D01*
X98212023Y-107269761D02*
X98307261Y-107317380D01*
X98497738Y-107317380D01*
X98592976Y-107269761D01*
X98640595Y-107222142D01*
X98688214Y-107126904D01*
X98688214Y-106841190D01*
X98640595Y-106745952D01*
X98592976Y-106698333D01*
X98497738Y-106650714D01*
X98307261Y-106650714D01*
X98212023Y-106698333D01*
X97735833Y-107317380D02*
X97735833Y-106650714D01*
X97735833Y-106317380D02*
X97783452Y-106365000D01*
X97735833Y-106412619D01*
X97688214Y-106365000D01*
X97735833Y-106317380D01*
X97735833Y-106412619D01*
X97116785Y-107317380D02*
X97212023Y-107269761D01*
X97259642Y-107222142D01*
X97307261Y-107126904D01*
X97307261Y-106841190D01*
X97259642Y-106745952D01*
X97212023Y-106698333D01*
X97116785Y-106650714D01*
X96973928Y-106650714D01*
X96878690Y-106698333D01*
X96831071Y-106745952D01*
X96783452Y-106841190D01*
X96783452Y-107126904D01*
X96831071Y-107222142D01*
X96878690Y-107269761D01*
X96973928Y-107317380D01*
X97116785Y-107317380D01*
X95402500Y-106317380D02*
X95212023Y-106317380D01*
X95116785Y-106365000D01*
X95021547Y-106460238D01*
X94973928Y-106650714D01*
X94973928Y-106984047D01*
X95021547Y-107174523D01*
X95116785Y-107269761D01*
X95212023Y-107317380D01*
X95402500Y-107317380D01*
X95497738Y-107269761D01*
X95592976Y-107174523D01*
X95640595Y-106984047D01*
X95640595Y-106650714D01*
X95592976Y-106460238D01*
X95497738Y-106365000D01*
X95402500Y-106317380D01*
X94545357Y-106317380D02*
X94545357Y-107126904D01*
X94497738Y-107222142D01*
X94450119Y-107269761D01*
X94354880Y-107317380D01*
X94164404Y-107317380D01*
X94069166Y-107269761D01*
X94021547Y-107222142D01*
X93973928Y-107126904D01*
X93973928Y-106317380D01*
X93640595Y-106317380D02*
X93069166Y-106317380D01*
X93354880Y-107317380D02*
X93354880Y-106317380D01*
X91688214Y-107698333D02*
X91735833Y-107650714D01*
X91831071Y-107507857D01*
X91878690Y-107412619D01*
X91926309Y-107269761D01*
X91973928Y-107031666D01*
X91973928Y-106841190D01*
X91926309Y-106603095D01*
X91878690Y-106460238D01*
X91831071Y-106365000D01*
X91735833Y-106222142D01*
X91688214Y-106174523D01*
X91450119Y-106317380D02*
X90878690Y-106317380D01*
X91164404Y-107317380D02*
X91164404Y-106317380D01*
X90640595Y-106317380D02*
X89973928Y-107317380D01*
X89973928Y-106317380D02*
X90640595Y-107317380D01*
X89640595Y-107031666D02*
X89164404Y-107031666D01*
X89735833Y-107317380D02*
X89402500Y-106317380D01*
X89069166Y-107317380D01*
X88831071Y-107698333D02*
X88783452Y-107650714D01*
X88688214Y-107507857D01*
X88640595Y-107412619D01*
X88592976Y-107269761D01*
X88545357Y-107031666D01*
X88545357Y-106841190D01*
X88592976Y-106603095D01*
X88640595Y-106460238D01*
X88688214Y-106365000D01*
X88783452Y-106222142D01*
X88831071Y-106174523D01*
X105212023Y-108022619D02*
X105164404Y-107975000D01*
X105069166Y-107927380D01*
X104831071Y-107927380D01*
X104735833Y-107975000D01*
X104688214Y-108022619D01*
X104640595Y-108117857D01*
X104640595Y-108213095D01*
X104688214Y-108355952D01*
X105259642Y-108927380D01*
X104640595Y-108927380D01*
X100402500Y-108403571D02*
X100069166Y-108403571D01*
X99926309Y-108927380D02*
X100402500Y-108927380D01*
X100402500Y-107927380D01*
X99926309Y-107927380D01*
X99592976Y-108927380D02*
X99069166Y-108260714D01*
X99592976Y-108260714D02*
X99069166Y-108927380D01*
X98831071Y-108260714D02*
X98450119Y-108260714D01*
X98688214Y-107927380D02*
X98688214Y-108784523D01*
X98640595Y-108879761D01*
X98545357Y-108927380D01*
X98450119Y-108927380D01*
X97735833Y-108879761D02*
X97831071Y-108927380D01*
X98021547Y-108927380D01*
X98116785Y-108879761D01*
X98164404Y-108784523D01*
X98164404Y-108403571D01*
X98116785Y-108308333D01*
X98021547Y-108260714D01*
X97831071Y-108260714D01*
X97735833Y-108308333D01*
X97688214Y-108403571D01*
X97688214Y-108498809D01*
X98164404Y-108594047D01*
X97259642Y-108927380D02*
X97259642Y-108260714D01*
X97259642Y-108451190D02*
X97212023Y-108355952D01*
X97164404Y-108308333D01*
X97069166Y-108260714D01*
X96973928Y-108260714D01*
X96640595Y-108260714D02*
X96640595Y-108927380D01*
X96640595Y-108355952D02*
X96592976Y-108308333D01*
X96497738Y-108260714D01*
X96354880Y-108260714D01*
X96259642Y-108308333D01*
X96212023Y-108403571D01*
X96212023Y-108927380D01*
X95307261Y-108927380D02*
X95307261Y-108403571D01*
X95354880Y-108308333D01*
X95450119Y-108260714D01*
X95640595Y-108260714D01*
X95735833Y-108308333D01*
X95307261Y-108879761D02*
X95402500Y-108927380D01*
X95640595Y-108927380D01*
X95735833Y-108879761D01*
X95783452Y-108784523D01*
X95783452Y-108689285D01*
X95735833Y-108594047D01*
X95640595Y-108546428D01*
X95402500Y-108546428D01*
X95307261Y-108498809D01*
X94688214Y-108927380D02*
X94783452Y-108879761D01*
X94831071Y-108784523D01*
X94831071Y-107927380D01*
X92973928Y-108832142D02*
X93021547Y-108879761D01*
X93164404Y-108927380D01*
X93259642Y-108927380D01*
X93402500Y-108879761D01*
X93497738Y-108784523D01*
X93545357Y-108689285D01*
X93592976Y-108498809D01*
X93592976Y-108355952D01*
X93545357Y-108165476D01*
X93497738Y-108070238D01*
X93402500Y-107975000D01*
X93259642Y-107927380D01*
X93164404Y-107927380D01*
X93021547Y-107975000D01*
X92973928Y-108022619D01*
X92545357Y-108927380D02*
X92545357Y-107927380D01*
X92307261Y-107927380D01*
X92164404Y-107975000D01*
X92069166Y-108070238D01*
X92021547Y-108165476D01*
X91973928Y-108355952D01*
X91973928Y-108498809D01*
X92021547Y-108689285D01*
X92069166Y-108784523D01*
X92164404Y-108879761D01*
X92307261Y-108927380D01*
X92545357Y-108927380D01*
X90831071Y-107879761D02*
X91688214Y-109165476D01*
X90545357Y-108641666D02*
X90069166Y-108641666D01*
X90640595Y-108927380D02*
X90307261Y-107927380D01*
X89973928Y-108927380D01*
X89640595Y-108927380D02*
X89640595Y-107927380D01*
X89069166Y-108927380D01*
X89069166Y-107927380D01*
X88688214Y-107927380D02*
X88069166Y-107927380D01*
X88402500Y-108308333D01*
X88259642Y-108308333D01*
X88164404Y-108355952D01*
X88116785Y-108403571D01*
X88069166Y-108498809D01*
X88069166Y-108736904D01*
X88116785Y-108832142D01*
X88164404Y-108879761D01*
X88259642Y-108927380D01*
X88545357Y-108927380D01*
X88640595Y-108879761D01*
X88688214Y-108832142D01*
X86878690Y-108927380D02*
X86878690Y-107927380D01*
X86402500Y-108260714D02*
X86402500Y-108927380D01*
X86402500Y-108355952D02*
X86354880Y-108308333D01*
X86259642Y-108260714D01*
X86116785Y-108260714D01*
X86021547Y-108308333D01*
X85973928Y-108403571D01*
X85973928Y-108927380D01*
X85497738Y-108260714D02*
X85497738Y-109260714D01*
X85497738Y-108308333D02*
X85402500Y-108260714D01*
X85212023Y-108260714D01*
X85116785Y-108308333D01*
X85069166Y-108355952D01*
X85021547Y-108451190D01*
X85021547Y-108736904D01*
X85069166Y-108832142D01*
X85116785Y-108879761D01*
X85212023Y-108927380D01*
X85402500Y-108927380D01*
X85497738Y-108879761D01*
X84164404Y-108260714D02*
X84164404Y-108927380D01*
X84592976Y-108260714D02*
X84592976Y-108784523D01*
X84545357Y-108879761D01*
X84450119Y-108927380D01*
X84307261Y-108927380D01*
X84212023Y-108879761D01*
X84164404Y-108832142D01*
X83831071Y-108260714D02*
X83450119Y-108260714D01*
X83688214Y-107927380D02*
X83688214Y-108784523D01*
X83640595Y-108879761D01*
X83545357Y-108927380D01*
X83450119Y-108927380D01*
X105259642Y-109537380D02*
X104640595Y-109537380D01*
X104973928Y-109918333D01*
X104831071Y-109918333D01*
X104735833Y-109965952D01*
X104688214Y-110013571D01*
X104640595Y-110108809D01*
X104640595Y-110346904D01*
X104688214Y-110442142D01*
X104735833Y-110489761D01*
X104831071Y-110537380D01*
X105116785Y-110537380D01*
X105212023Y-110489761D01*
X105259642Y-110442142D01*
X100402500Y-110537380D02*
X100402500Y-109537380D01*
X100021547Y-109537380D01*
X99926309Y-109585000D01*
X99878690Y-109632619D01*
X99831071Y-109727857D01*
X99831071Y-109870714D01*
X99878690Y-109965952D01*
X99926309Y-110013571D01*
X100021547Y-110061190D01*
X100402500Y-110061190D01*
X99545357Y-109537380D02*
X98973928Y-109537380D01*
X99259642Y-110537380D02*
X99259642Y-109537380D01*
X98783452Y-109537380D02*
X98212023Y-109537380D01*
X98497738Y-110537380D02*
X98497738Y-109537380D01*
X104735833Y-111480714D02*
X104735833Y-112147380D01*
X104973928Y-111099761D02*
X105212023Y-111814047D01*
X104592976Y-111814047D01*
X100450119Y-111861666D02*
X99973928Y-111861666D01*
X100545357Y-112147380D02*
X100212023Y-111147380D01*
X99878690Y-112147380D01*
X99545357Y-112147380D02*
X99545357Y-111147380D01*
X98973928Y-112147380D01*
X98973928Y-111147380D01*
X98307261Y-111147380D02*
X98212023Y-111147380D01*
X98116785Y-111195000D01*
X98069166Y-111242619D01*
X98021547Y-111337857D01*
X97973928Y-111528333D01*
X97973928Y-111766428D01*
X98021547Y-111956904D01*
X98069166Y-112052142D01*
X98116785Y-112099761D01*
X98212023Y-112147380D01*
X98307261Y-112147380D01*
X98402500Y-112099761D01*
X98450119Y-112052142D01*
X98497738Y-111956904D01*
X98545357Y-111766428D01*
X98545357Y-111528333D01*
X98497738Y-111337857D01*
X98450119Y-111242619D01*
X98402500Y-111195000D01*
X98307261Y-111147380D01*
X96783452Y-112147380D02*
X96783452Y-111147380D01*
X96307261Y-111480714D02*
X96307261Y-112147380D01*
X96307261Y-111575952D02*
X96259642Y-111528333D01*
X96164404Y-111480714D01*
X96021547Y-111480714D01*
X95926309Y-111528333D01*
X95878690Y-111623571D01*
X95878690Y-112147380D01*
X95402500Y-111480714D02*
X95402500Y-112480714D01*
X95402500Y-111528333D02*
X95307261Y-111480714D01*
X95116785Y-111480714D01*
X95021547Y-111528333D01*
X94973928Y-111575952D01*
X94926309Y-111671190D01*
X94926309Y-111956904D01*
X94973928Y-112052142D01*
X95021547Y-112099761D01*
X95116785Y-112147380D01*
X95307261Y-112147380D01*
X95402500Y-112099761D01*
X94069166Y-111480714D02*
X94069166Y-112147380D01*
X94497738Y-111480714D02*
X94497738Y-112004523D01*
X94450119Y-112099761D01*
X94354880Y-112147380D01*
X94212023Y-112147380D01*
X94116785Y-112099761D01*
X94069166Y-112052142D01*
X93735833Y-111480714D02*
X93354880Y-111480714D01*
X93592976Y-111147380D02*
X93592976Y-112004523D01*
X93545357Y-112099761D01*
X93450119Y-112147380D01*
X93354880Y-112147380D01*
X104688214Y-112757380D02*
X105164404Y-112757380D01*
X105212023Y-113233571D01*
X105164404Y-113185952D01*
X105069166Y-113138333D01*
X104831071Y-113138333D01*
X104735833Y-113185952D01*
X104688214Y-113233571D01*
X104640595Y-113328809D01*
X104640595Y-113566904D01*
X104688214Y-113662142D01*
X104735833Y-113709761D01*
X104831071Y-113757380D01*
X105069166Y-113757380D01*
X105164404Y-113709761D01*
X105212023Y-113662142D01*
X100450119Y-113471666D02*
X99973928Y-113471666D01*
X100545357Y-113757380D02*
X100212023Y-112757380D01*
X99878690Y-113757380D01*
X99116785Y-113090714D02*
X99116785Y-113757380D01*
X99545357Y-113090714D02*
X99545357Y-113614523D01*
X99497738Y-113709761D01*
X99402500Y-113757380D01*
X99259642Y-113757380D01*
X99164404Y-113709761D01*
X99116785Y-113662142D01*
X98212023Y-113757380D02*
X98212023Y-112757380D01*
X98212023Y-113709761D02*
X98307261Y-113757380D01*
X98497738Y-113757380D01*
X98592976Y-113709761D01*
X98640595Y-113662142D01*
X98688214Y-113566904D01*
X98688214Y-113281190D01*
X98640595Y-113185952D01*
X98592976Y-113138333D01*
X98497738Y-113090714D01*
X98307261Y-113090714D01*
X98212023Y-113138333D01*
X97735833Y-113757380D02*
X97735833Y-113090714D01*
X97735833Y-112757380D02*
X97783452Y-112805000D01*
X97735833Y-112852619D01*
X97688214Y-112805000D01*
X97735833Y-112757380D01*
X97735833Y-112852619D01*
X97116785Y-113757380D02*
X97212023Y-113709761D01*
X97259642Y-113662142D01*
X97307261Y-113566904D01*
X97307261Y-113281190D01*
X97259642Y-113185952D01*
X97212023Y-113138333D01*
X97116785Y-113090714D01*
X96973928Y-113090714D01*
X96878690Y-113138333D01*
X96831071Y-113185952D01*
X96783452Y-113281190D01*
X96783452Y-113566904D01*
X96831071Y-113662142D01*
X96878690Y-113709761D01*
X96973928Y-113757380D01*
X97116785Y-113757380D01*
X95592976Y-113757380D02*
X95592976Y-112757380D01*
X95116785Y-113757380D02*
X95116785Y-112757380D01*
X94545357Y-113757380D01*
X94545357Y-112757380D01*
X93021547Y-114138333D02*
X93069166Y-114090714D01*
X93164404Y-113947857D01*
X93212023Y-113852619D01*
X93259642Y-113709761D01*
X93307261Y-113471666D01*
X93307261Y-113281190D01*
X93259642Y-113043095D01*
X93212023Y-112900238D01*
X93164404Y-112805000D01*
X93069166Y-112662142D01*
X93021547Y-112614523D01*
X92069166Y-113757380D02*
X92402500Y-113281190D01*
X92640595Y-113757380D02*
X92640595Y-112757380D01*
X92259642Y-112757380D01*
X92164404Y-112805000D01*
X92116785Y-112852619D01*
X92069166Y-112947857D01*
X92069166Y-113090714D01*
X92116785Y-113185952D01*
X92164404Y-113233571D01*
X92259642Y-113281190D01*
X92640595Y-113281190D01*
X91735833Y-112757380D02*
X91069166Y-113757380D01*
X91069166Y-112757380D02*
X91735833Y-113757380D01*
X90735833Y-113471666D02*
X90259642Y-113471666D01*
X90831071Y-113757380D02*
X90497738Y-112757380D01*
X90164404Y-113757380D01*
X89926309Y-114138333D02*
X89878690Y-114090714D01*
X89783452Y-113947857D01*
X89735833Y-113852619D01*
X89688214Y-113709761D01*
X89640595Y-113471666D01*
X89640595Y-113281190D01*
X89688214Y-113043095D01*
X89735833Y-112900238D01*
X89783452Y-112805000D01*
X89878690Y-112662142D01*
X89926309Y-112614523D01*
X104735833Y-114367380D02*
X104926309Y-114367380D01*
X105021547Y-114415000D01*
X105069166Y-114462619D01*
X105164404Y-114605476D01*
X105212023Y-114795952D01*
X105212023Y-115176904D01*
X105164404Y-115272142D01*
X105116785Y-115319761D01*
X105021547Y-115367380D01*
X104831071Y-115367380D01*
X104735833Y-115319761D01*
X104688214Y-115272142D01*
X104640595Y-115176904D01*
X104640595Y-114938809D01*
X104688214Y-114843571D01*
X104735833Y-114795952D01*
X104831071Y-114748333D01*
X105021547Y-114748333D01*
X105116785Y-114795952D01*
X105164404Y-114843571D01*
X105212023Y-114938809D01*
X99878690Y-114415000D02*
X99973928Y-114367380D01*
X100116785Y-114367380D01*
X100259642Y-114415000D01*
X100354880Y-114510238D01*
X100402500Y-114605476D01*
X100450119Y-114795952D01*
X100450119Y-114938809D01*
X100402500Y-115129285D01*
X100354880Y-115224523D01*
X100259642Y-115319761D01*
X100116785Y-115367380D01*
X100021547Y-115367380D01*
X99878690Y-115319761D01*
X99831071Y-115272142D01*
X99831071Y-114938809D01*
X100021547Y-114938809D01*
X99402500Y-115367380D02*
X99402500Y-114367380D01*
X98831071Y-115367380D01*
X98831071Y-114367380D01*
X98354880Y-115367380D02*
X98354880Y-114367380D01*
X98116785Y-114367380D01*
X97973928Y-114415000D01*
X97878690Y-114510238D01*
X97831071Y-114605476D01*
X97783452Y-114795952D01*
X97783452Y-114938809D01*
X97831071Y-115129285D01*
X97878690Y-115224523D01*
X97973928Y-115319761D01*
X98116785Y-115367380D01*
X98354880Y-115367380D01*
X105259642Y-115977380D02*
X104592976Y-115977380D01*
X105021547Y-116977380D01*
X100402500Y-116453571D02*
X100069166Y-116453571D01*
X99926309Y-116977380D02*
X100402500Y-116977380D01*
X100402500Y-115977380D01*
X99926309Y-115977380D01*
X99592976Y-115977380D02*
X98926309Y-116977380D01*
X98926309Y-115977380D02*
X99592976Y-116977380D01*
X98688214Y-115977380D02*
X98116785Y-115977380D01*
X98402500Y-116977380D02*
X98402500Y-115977380D01*
X97021547Y-116977380D02*
X97021547Y-115977380D01*
X96640595Y-115977380D01*
X96545357Y-116025000D01*
X96497738Y-116072619D01*
X96450119Y-116167857D01*
X96450119Y-116310714D01*
X96497738Y-116405952D01*
X96545357Y-116453571D01*
X96640595Y-116501190D01*
X97021547Y-116501190D01*
X96116785Y-115977380D02*
X95878690Y-116977380D01*
X95688214Y-116263095D01*
X95497738Y-116977380D01*
X95259642Y-115977380D01*
X94307261Y-116977380D02*
X94640595Y-116501190D01*
X94878690Y-116977380D02*
X94878690Y-115977380D01*
X94497738Y-115977380D01*
X94402500Y-116025000D01*
X94354880Y-116072619D01*
X94307261Y-116167857D01*
X94307261Y-116310714D01*
X94354880Y-116405952D01*
X94402500Y-116453571D01*
X94497738Y-116501190D01*
X94878690Y-116501190D01*
X93116785Y-116977380D02*
X93116785Y-115977380D01*
X92640595Y-116977380D02*
X92640595Y-115977380D01*
X92069166Y-116977380D01*
X92069166Y-115977380D01*
X105021547Y-118015952D02*
X105116785Y-117968333D01*
X105164404Y-117920714D01*
X105212023Y-117825476D01*
X105212023Y-117777857D01*
X105164404Y-117682619D01*
X105116785Y-117635000D01*
X105021547Y-117587380D01*
X104831071Y-117587380D01*
X104735833Y-117635000D01*
X104688214Y-117682619D01*
X104640595Y-117777857D01*
X104640595Y-117825476D01*
X104688214Y-117920714D01*
X104735833Y-117968333D01*
X104831071Y-118015952D01*
X105021547Y-118015952D01*
X105116785Y-118063571D01*
X105164404Y-118111190D01*
X105212023Y-118206428D01*
X105212023Y-118396904D01*
X105164404Y-118492142D01*
X105116785Y-118539761D01*
X105021547Y-118587380D01*
X104831071Y-118587380D01*
X104735833Y-118539761D01*
X104688214Y-118492142D01*
X104640595Y-118396904D01*
X104640595Y-118206428D01*
X104688214Y-118111190D01*
X104735833Y-118063571D01*
X104831071Y-118015952D01*
X100450119Y-118301666D02*
X99973928Y-118301666D01*
X100545357Y-118587380D02*
X100212023Y-117587380D01*
X99878690Y-118587380D01*
X99545357Y-118587380D02*
X99545357Y-117587380D01*
X98973928Y-118587380D01*
X98973928Y-117587380D01*
X97973928Y-118587380D02*
X98545357Y-118587380D01*
X98259642Y-118587380D02*
X98259642Y-117587380D01*
X98354880Y-117730238D01*
X98450119Y-117825476D01*
X98545357Y-117873095D01*
X96783452Y-118587380D02*
X96783452Y-117587380D01*
X96307261Y-117920714D02*
X96307261Y-118587380D01*
X96307261Y-118015952D02*
X96259642Y-117968333D01*
X96164404Y-117920714D01*
X96021547Y-117920714D01*
X95926309Y-117968333D01*
X95878690Y-118063571D01*
X95878690Y-118587380D01*
X95402500Y-117920714D02*
X95402500Y-118920714D01*
X95402500Y-117968333D02*
X95307261Y-117920714D01*
X95116785Y-117920714D01*
X95021547Y-117968333D01*
X94973928Y-118015952D01*
X94926309Y-118111190D01*
X94926309Y-118396904D01*
X94973928Y-118492142D01*
X95021547Y-118539761D01*
X95116785Y-118587380D01*
X95307261Y-118587380D01*
X95402500Y-118539761D01*
X94069166Y-117920714D02*
X94069166Y-118587380D01*
X94497738Y-117920714D02*
X94497738Y-118444523D01*
X94450119Y-118539761D01*
X94354880Y-118587380D01*
X94212023Y-118587380D01*
X94116785Y-118539761D01*
X94069166Y-118492142D01*
X93735833Y-117920714D02*
X93354880Y-117920714D01*
X93592976Y-117587380D02*
X93592976Y-118444523D01*
X93545357Y-118539761D01*
X93450119Y-118587380D01*
X93354880Y-118587380D01*
X105116785Y-120197380D02*
X104926309Y-120197380D01*
X104831071Y-120149761D01*
X104783452Y-120102142D01*
X104688214Y-119959285D01*
X104640595Y-119768809D01*
X104640595Y-119387857D01*
X104688214Y-119292619D01*
X104735833Y-119245000D01*
X104831071Y-119197380D01*
X105021547Y-119197380D01*
X105116785Y-119245000D01*
X105164404Y-119292619D01*
X105212023Y-119387857D01*
X105212023Y-119625952D01*
X105164404Y-119721190D01*
X105116785Y-119768809D01*
X105021547Y-119816428D01*
X104831071Y-119816428D01*
X104735833Y-119768809D01*
X104688214Y-119721190D01*
X104640595Y-119625952D01*
X100450119Y-119911666D02*
X99973928Y-119911666D01*
X100545357Y-120197380D02*
X100212023Y-119197380D01*
X99878690Y-120197380D01*
X99545357Y-120197380D02*
X99545357Y-119197380D01*
X98973928Y-120197380D01*
X98973928Y-119197380D01*
X98545357Y-119292619D02*
X98497738Y-119245000D01*
X98402500Y-119197380D01*
X98164404Y-119197380D01*
X98069166Y-119245000D01*
X98021547Y-119292619D01*
X97973928Y-119387857D01*
X97973928Y-119483095D01*
X98021547Y-119625952D01*
X98592976Y-120197380D01*
X97973928Y-120197380D01*
X96783452Y-120197380D02*
X96783452Y-119197380D01*
X96307261Y-119530714D02*
X96307261Y-120197380D01*
X96307261Y-119625952D02*
X96259642Y-119578333D01*
X96164404Y-119530714D01*
X96021547Y-119530714D01*
X95926309Y-119578333D01*
X95878690Y-119673571D01*
X95878690Y-120197380D01*
X95402500Y-119530714D02*
X95402500Y-120530714D01*
X95402500Y-119578333D02*
X95307261Y-119530714D01*
X95116785Y-119530714D01*
X95021547Y-119578333D01*
X94973928Y-119625952D01*
X94926309Y-119721190D01*
X94926309Y-120006904D01*
X94973928Y-120102142D01*
X95021547Y-120149761D01*
X95116785Y-120197380D01*
X95307261Y-120197380D01*
X95402500Y-120149761D01*
X94069166Y-119530714D02*
X94069166Y-120197380D01*
X94497738Y-119530714D02*
X94497738Y-120054523D01*
X94450119Y-120149761D01*
X94354880Y-120197380D01*
X94212023Y-120197380D01*
X94116785Y-120149761D01*
X94069166Y-120102142D01*
X93735833Y-119530714D02*
X93354880Y-119530714D01*
X93592976Y-119197380D02*
X93592976Y-120054523D01*
X93545357Y-120149761D01*
X93450119Y-120197380D01*
X93354880Y-120197380D01*
%LPC*%
X50000000Y-150000000D02*
X168872000Y-150000000D01*
X168872000Y-150000000D02*
X168872000Y-146952000D01*
X168872000Y-146952000D02*
X50000000Y-146952000D01*
X50000000Y-146952000D02*
X50000000Y-150000000D01*
G36*
X50000000Y-150000000D02*
G01*
X168872000Y-150000000D01*
X168872000Y-146952000D01*
X50000000Y-146952000D01*
X50000000Y-150000000D01*
G37*
X50000000Y-75832000D02*
X168872000Y-75832000D01*
X168872000Y-75832000D02*
X168872000Y-78880000D01*
X168872000Y-78880000D02*
X50000000Y-78880000D01*
X50000000Y-78880000D02*
X50000000Y-75832000D01*
G36*
X50000000Y-75832000D02*
G01*
X168872000Y-75832000D01*
X168872000Y-78880000D01*
X50000000Y-78880000D01*
X50000000Y-75832000D01*
G37*
D12*
X92720000Y-132090000D03*
D13*
X92720000Y-134630000D03*
X92720000Y-137170000D03*
X92720000Y-139710000D03*
X100340000Y-139710000D03*
X100340000Y-137170000D03*
X100340000Y-134630000D03*
X100340000Y-132090000D03*
D14*
X161252000Y-95644000D03*
D13*
X153632000Y-95644000D03*
D14*
X164046000Y-126632000D03*
D13*
X156426000Y-126632000D03*
D14*
X151252000Y-95644000D03*
D13*
X143632000Y-95644000D03*
D14*
X103000000Y-132000000D03*
X108000000Y-132000000D03*
X131560000Y-89272000D03*
D13*
X131560000Y-96892000D03*
D14*
X161192000Y-85894000D03*
D13*
X153572000Y-85894000D03*
D14*
X161085000Y-105550000D03*
X156085000Y-105550000D03*
X151252000Y-89144000D03*
D13*
X143632000Y-89144000D03*
D14*
X161250000Y-122695000D03*
X156250000Y-122695000D03*
D15*
X143505000Y-124455000D03*
D16*
X143505000Y-121915000D03*
X143505000Y-119375000D03*
X143505000Y-116835000D03*
X143505000Y-114295000D03*
X143505000Y-111755000D03*
X143505000Y-109215000D03*
X143505000Y-106675000D03*
X143505000Y-104135000D03*
X143505000Y-101595000D03*
D12*
X80988000Y-85036888D03*
D14*
X80988000Y-87036888D03*
D17*
X112500000Y-89500000D03*
D14*
X74930000Y-84722000D03*
D13*
X64770000Y-84722000D03*
D18*
X93470000Y-84976000D03*
D19*
X93470000Y-87516000D03*
X93470000Y-90056000D03*
D14*
X135598000Y-85992000D03*
D13*
X127978000Y-85992000D03*
D14*
X151192000Y-85894000D03*
D13*
X143572000Y-85894000D03*
D20*
X178500000Y-102372500D03*
D21*
X178500000Y-104912500D03*
X178500000Y-107452500D03*
X178500000Y-109992500D03*
X178500000Y-112532500D03*
X178500000Y-115072500D03*
X178500000Y-117612500D03*
X178500000Y-120152500D03*
X178500000Y-122692500D03*
X178500000Y-125232500D03*
D22*
X176335000Y-95395000D03*
D23*
X176335000Y-92855000D03*
D17*
X109000000Y-87000000D03*
D14*
X161125000Y-109360000D03*
D13*
X153505000Y-109360000D03*
D24*
X135350000Y-102290000D03*
X135350000Y-123630000D03*
X90060000Y-123630000D03*
X90060000Y-102290000D03*
D15*
X93680000Y-124430000D03*
D25*
X93680000Y-101570000D03*
D16*
X96220000Y-124430000D03*
X96220000Y-101570000D03*
X98760000Y-124430000D03*
X98760000Y-101570000D03*
X101300000Y-124430000D03*
X101300000Y-101570000D03*
X103840000Y-124430000D03*
X103840000Y-101570000D03*
X106380000Y-124430000D03*
X106380000Y-101570000D03*
X108920000Y-124430000D03*
X108920000Y-101570000D03*
X111460000Y-124430000D03*
X111460000Y-101570000D03*
X114000000Y-124430000D03*
X114000000Y-101570000D03*
X116540000Y-124430000D03*
X116540000Y-101570000D03*
X119080000Y-124430000D03*
X119080000Y-101570000D03*
X121620000Y-124430000D03*
X121620000Y-101570000D03*
X124160000Y-124430000D03*
X124160000Y-101570000D03*
X126700000Y-124430000D03*
X126700000Y-101570000D03*
X129240000Y-124430000D03*
X129240000Y-101570000D03*
X131780000Y-124430000D03*
X131780000Y-101570000D03*
D14*
X56190000Y-144500000D03*
D13*
X63810000Y-144500000D03*
D14*
X79000000Y-130500000D03*
X74000000Y-130500000D03*
X93500000Y-128500000D03*
X98500000Y-128500000D03*
X72000000Y-106500000D03*
X77000000Y-106500000D03*
X151252000Y-92394000D03*
D13*
X143632000Y-92394000D03*
D14*
X103190000Y-137160000D03*
D13*
X110810000Y-137160000D03*
D14*
X89584000Y-130950000D03*
X84584000Y-130950000D03*
D26*
X75080000Y-81420000D03*
D27*
X64920000Y-81420000D03*
D28*
X59675000Y-137795000D03*
X59675000Y-126365000D03*
D29*
X66025000Y-127635000D03*
D30*
X68565000Y-128905000D03*
X66025000Y-130175000D03*
X68565000Y-131445000D03*
X66025000Y-132715000D03*
X68565000Y-133985000D03*
X66025000Y-135255000D03*
X68565000Y-136525000D03*
D31*
X54775000Y-125755000D03*
X56295000Y-128295000D03*
X54775000Y-135865000D03*
X56295000Y-138405000D03*
D32*
X62725000Y-124205000D03*
X62725000Y-139955000D03*
D33*
X124310000Y-96832000D03*
D34*
X122810000Y-96832000D03*
D14*
X161250000Y-119500000D03*
X156250000Y-119500000D03*
X128060000Y-89272000D03*
D13*
X128060000Y-96892000D03*
D26*
X98768000Y-96660000D03*
D27*
X88608000Y-96660000D03*
D14*
X161192000Y-89144000D03*
D13*
X153572000Y-89144000D03*
D33*
X81000000Y-97222599D03*
D34*
X81000000Y-95722599D03*
D14*
X86322000Y-136538000D03*
D13*
X78702000Y-136538000D03*
D14*
X89116000Y-84976000D03*
X89116000Y-89976000D03*
X72000000Y-94500000D03*
X77000000Y-94500000D03*
D12*
X72190000Y-110800000D03*
D13*
X79810000Y-110800000D03*
D14*
X161085000Y-101740000D03*
X156085000Y-101740000D03*
X78702000Y-139840000D03*
D13*
X86322000Y-139840000D03*
D14*
X72000000Y-91250000D03*
X77000000Y-91250000D03*
X72000000Y-88000000D03*
X77000000Y-88000000D03*
D22*
X176335000Y-133495000D03*
D23*
X176335000Y-130955000D03*
D14*
X72000000Y-97500000D03*
X77000000Y-97500000D03*
X56190000Y-119500000D03*
D13*
X63810000Y-119500000D03*
D15*
X114023000Y-96660000D03*
D16*
X116563000Y-96660000D03*
X119103000Y-96660000D03*
D35*
X156110000Y-116020000D03*
D36*
X156110000Y-114750000D03*
X156110000Y-113480000D03*
D14*
X72000000Y-100500000D03*
X77000000Y-100500000D03*
D17*
X112500000Y-85000000D03*
D14*
X86576000Y-90016000D03*
X86576000Y-85016000D03*
D37*
X59467500Y-86560000D03*
X59467500Y-111560000D03*
D38*
X60887500Y-104600000D03*
D39*
X60887500Y-101830000D03*
X60887500Y-99060000D03*
X60887500Y-96290000D03*
X60887500Y-93520000D03*
X58047500Y-103215000D03*
X58047500Y-100445000D03*
X58047500Y-97675000D03*
X58047500Y-94905000D03*
D33*
X80988000Y-90349401D03*
D34*
X80988000Y-91849401D03*
D14*
X74000000Y-133500000D03*
X79000000Y-133500000D03*
X72000000Y-103500000D03*
X77000000Y-103500000D03*
X102070000Y-96660000D03*
D13*
X109690000Y-96660000D03*
D33*
X113793401Y-137300000D03*
D34*
X115293401Y-137300000D03*
D14*
X161252000Y-92394000D03*
D13*
X153632000Y-92394000D03*
D12*
X156680000Y-131204000D03*
D13*
X154140000Y-131204000D03*
X151600000Y-131204000D03*
X149060000Y-131204000D03*
X146520000Y-131204000D03*
X143980000Y-131204000D03*
X141440000Y-131204000D03*
X138900000Y-131204000D03*
X136360000Y-131204000D03*
X136360000Y-138824000D03*
X138900000Y-138824000D03*
X141440000Y-138824000D03*
X143980000Y-138824000D03*
X146520000Y-138824000D03*
X149060000Y-138824000D03*
X151600000Y-138824000D03*
X154140000Y-138824000D03*
X156680000Y-138824000D03*
M02*
