G04 #@! TF.GenerationSoftware,KiCad,Pcbnew,(6.0.0)*
G04 #@! TF.CreationDate,2022-02-05T21:05:29-08:00*
G04 #@! TF.ProjectId,Duo2_Direwolf,44756f32-5f44-4697-9265-776f6c662e6b,rev?*
G04 #@! TF.SameCoordinates,Original*
G04 #@! TF.FileFunction,Legend,Top*
G04 #@! TF.FilePolarity,Positive*
%FSLAX46Y46*%
G04 Gerber Fmt 4.6, Leading zero omitted, Abs format (unit mm)*
G04 Created by KiCad (PCBNEW (6.0.0)) date 2022-02-05 21:05:29*
%MOMM*%
%LPD*%
G01*
G04 APERTURE LIST*
%ADD10C,2.000000*%
%ADD11C,0.150000*%
%ADD12C,0.254000*%
%ADD13C,0.120181*%
%ADD14C,0.120000*%
%ADD15C,0.200000*%
%ADD16C,0.127000*%
%ADD17C,0.500000*%
%ADD18C,0.100000*%
%ADD19R,1.600000X1.600000*%
%ADD20O,1.600000X1.600000*%
%ADD21C,1.600000*%
%ADD22R,1.150000X1.800000*%
%ADD23R,1.700000X1.700000*%
%ADD24O,1.700000X1.700000*%
%ADD25R,2.000000X2.000000*%
%ADD26R,1.508000X1.508000*%
%ADD27C,1.508000*%
%ADD28R,1.650000X1.650000*%
%ADD29C,1.650000*%
%ADD30R,1.800000X1.800000*%
%ADD31C,1.800000*%
%ADD32C,2.200000*%
%ADD33C,1.700000*%
%ADD34R,1.500000X1.000000*%
%ADD35R,2.200000X2.200000*%
%ADD36O,2.200000X2.200000*%
%ADD37C,3.200000*%
%ADD38R,1.400000X1.400000*%
%ADD39C,1.400000*%
%ADD40C,1.530000*%
%ADD41C,2.550000*%
%ADD42R,1.200000X1.200000*%
%ADD43C,1.200000*%
%ADD44R,1.000000X1.500000*%
%ADD45R,1.500000X1.050000*%
%ADD46O,1.500000X1.050000*%
%ADD47C,3.180000*%
%ADD48R,1.635000X1.635000*%
%ADD49C,1.635000*%
G04 APERTURE END LIST*
D10*
X169000000Y-92000000D02*
X169000000Y-134000000D01*
D11*
X105359404Y-87000000D02*
X105264166Y-86952380D01*
X105121309Y-86952380D01*
X104978452Y-87000000D01*
X104883214Y-87095238D01*
X104835595Y-87190476D01*
X104787976Y-87380952D01*
X104787976Y-87523809D01*
X104835595Y-87714285D01*
X104883214Y-87809523D01*
X104978452Y-87904761D01*
X105121309Y-87952380D01*
X105216547Y-87952380D01*
X105359404Y-87904761D01*
X105407023Y-87857142D01*
X105407023Y-87523809D01*
X105216547Y-87523809D01*
X105835595Y-87952380D02*
X105835595Y-86952380D01*
X106407023Y-87952380D01*
X106407023Y-86952380D01*
X106883214Y-87952380D02*
X106883214Y-86952380D01*
X107121309Y-86952380D01*
X107264166Y-87000000D01*
X107359404Y-87095238D01*
X107407023Y-87190476D01*
X107454642Y-87380952D01*
X107454642Y-87523809D01*
X107407023Y-87714285D01*
X107359404Y-87809523D01*
X107264166Y-87904761D01*
X107121309Y-87952380D01*
X106883214Y-87952380D01*
X115492571Y-92048380D02*
X115492571Y-92857904D01*
X115540190Y-92953142D01*
X115587809Y-93000761D01*
X115683047Y-93048380D01*
X115873523Y-93048380D01*
X115968761Y-93000761D01*
X116016380Y-92953142D01*
X116064000Y-92857904D01*
X116064000Y-92048380D01*
X116492571Y-92762666D02*
X116968761Y-92762666D01*
X116397333Y-93048380D02*
X116730666Y-92048380D01*
X117064000Y-93048380D01*
X117968761Y-93048380D02*
X117635428Y-92572190D01*
X117397333Y-93048380D02*
X117397333Y-92048380D01*
X117778285Y-92048380D01*
X117873523Y-92096000D01*
X117921142Y-92143619D01*
X117968761Y-92238857D01*
X117968761Y-92381714D01*
X117921142Y-92476952D01*
X117873523Y-92524571D01*
X117778285Y-92572190D01*
X117397333Y-92572190D01*
X118254476Y-92048380D02*
X118825904Y-92048380D01*
X118540190Y-93048380D02*
X118540190Y-92048380D01*
X119683047Y-93048380D02*
X119111619Y-93048380D01*
X119397333Y-93048380D02*
X119397333Y-92048380D01*
X119302095Y-92191238D01*
X119206857Y-92286476D01*
X119111619Y-92334095D01*
X171740357Y-109452380D02*
X172359404Y-109452380D01*
X172026071Y-109833333D01*
X172168928Y-109833333D01*
X172264166Y-109880952D01*
X172311785Y-109928571D01*
X172359404Y-110023809D01*
X172359404Y-110261904D01*
X172311785Y-110357142D01*
X172264166Y-110404761D01*
X172168928Y-110452380D01*
X171883214Y-110452380D01*
X171787976Y-110404761D01*
X171740357Y-110357142D01*
X172787976Y-110357142D02*
X172835595Y-110404761D01*
X172787976Y-110452380D01*
X172740357Y-110404761D01*
X172787976Y-110357142D01*
X172787976Y-110452380D01*
X173168928Y-109452380D02*
X173787976Y-109452380D01*
X173454642Y-109833333D01*
X173597500Y-109833333D01*
X173692738Y-109880952D01*
X173740357Y-109928571D01*
X173787976Y-110023809D01*
X173787976Y-110261904D01*
X173740357Y-110357142D01*
X173692738Y-110404761D01*
X173597500Y-110452380D01*
X173311785Y-110452380D01*
X173216547Y-110404761D01*
X173168928Y-110357142D01*
X174073690Y-109452380D02*
X174407023Y-110452380D01*
X174740357Y-109452380D01*
X171785714Y-117666666D02*
X172261904Y-117666666D01*
X171690476Y-117952380D02*
X172023809Y-116952380D01*
X172357142Y-117952380D01*
X172642857Y-117047619D02*
X172690476Y-117000000D01*
X172785714Y-116952380D01*
X173023809Y-116952380D01*
X173119047Y-117000000D01*
X173166666Y-117047619D01*
X173214285Y-117142857D01*
X173214285Y-117238095D01*
X173166666Y-117380952D01*
X172595238Y-117952380D01*
X173214285Y-117952380D01*
X172359404Y-114500000D02*
X172264166Y-114452380D01*
X172121309Y-114452380D01*
X171978452Y-114500000D01*
X171883214Y-114595238D01*
X171835595Y-114690476D01*
X171787976Y-114880952D01*
X171787976Y-115023809D01*
X171835595Y-115214285D01*
X171883214Y-115309523D01*
X171978452Y-115404761D01*
X172121309Y-115452380D01*
X172216547Y-115452380D01*
X172359404Y-115404761D01*
X172407023Y-115357142D01*
X172407023Y-115023809D01*
X172216547Y-115023809D01*
X172835595Y-115452380D02*
X172835595Y-114452380D01*
X173407023Y-115452380D01*
X173407023Y-114452380D01*
X173883214Y-115452380D02*
X173883214Y-114452380D01*
X174121309Y-114452380D01*
X174264166Y-114500000D01*
X174359404Y-114595238D01*
X174407023Y-114690476D01*
X174454642Y-114880952D01*
X174454642Y-115023809D01*
X174407023Y-115214285D01*
X174359404Y-115309523D01*
X174264166Y-115404761D01*
X174121309Y-115452380D01*
X173883214Y-115452380D01*
X171835595Y-105452380D02*
X171835595Y-104452380D01*
X172073690Y-104452380D01*
X172216547Y-104500000D01*
X172311785Y-104595238D01*
X172359404Y-104690476D01*
X172407023Y-104880952D01*
X172407023Y-105023809D01*
X172359404Y-105214285D01*
X172311785Y-105309523D01*
X172216547Y-105404761D01*
X172073690Y-105452380D01*
X171835595Y-105452380D01*
X172787976Y-105166666D02*
X173264166Y-105166666D01*
X172692738Y-105452380D02*
X173026071Y-104452380D01*
X173359404Y-105452380D01*
X173549880Y-104452380D02*
X174121309Y-104452380D01*
X173835595Y-105452380D02*
X173835595Y-104452380D01*
X174407023Y-105166666D02*
X174883214Y-105166666D01*
X174311785Y-105452380D02*
X174645119Y-104452380D01*
X174978452Y-105452380D01*
X171785714Y-122666666D02*
X172261904Y-122666666D01*
X171690476Y-122952380D02*
X172023809Y-121952380D01*
X172357142Y-122952380D01*
X172595238Y-121952380D02*
X173214285Y-121952380D01*
X172880952Y-122333333D01*
X173023809Y-122333333D01*
X173119047Y-122380952D01*
X173166666Y-122428571D01*
X173214285Y-122523809D01*
X173214285Y-122761904D01*
X173166666Y-122857142D01*
X173119047Y-122904761D01*
X173023809Y-122952380D01*
X172738095Y-122952380D01*
X172642857Y-122904761D01*
X172595238Y-122857142D01*
X172359404Y-119500000D02*
X172264166Y-119452380D01*
X172121309Y-119452380D01*
X171978452Y-119500000D01*
X171883214Y-119595238D01*
X171835595Y-119690476D01*
X171787976Y-119880952D01*
X171787976Y-120023809D01*
X171835595Y-120214285D01*
X171883214Y-120309523D01*
X171978452Y-120404761D01*
X172121309Y-120452380D01*
X172216547Y-120452380D01*
X172359404Y-120404761D01*
X172407023Y-120357142D01*
X172407023Y-120023809D01*
X172216547Y-120023809D01*
X172835595Y-120452380D02*
X172835595Y-119452380D01*
X173407023Y-120452380D01*
X173407023Y-119452380D01*
X173883214Y-120452380D02*
X173883214Y-119452380D01*
X174121309Y-119452380D01*
X174264166Y-119500000D01*
X174359404Y-119595238D01*
X174407023Y-119690476D01*
X174454642Y-119880952D01*
X174454642Y-120023809D01*
X174407023Y-120214285D01*
X174359404Y-120309523D01*
X174264166Y-120404761D01*
X174121309Y-120452380D01*
X173883214Y-120452380D01*
X113587333Y-94572380D02*
X113254000Y-94096190D01*
X113015904Y-94572380D02*
X113015904Y-93572380D01*
X113396857Y-93572380D01*
X113492095Y-93620000D01*
X113539714Y-93667619D01*
X113587333Y-93762857D01*
X113587333Y-93905714D01*
X113539714Y-94000952D01*
X113492095Y-94048571D01*
X113396857Y-94096190D01*
X113015904Y-94096190D01*
X113920666Y-93572380D02*
X114587333Y-94572380D01*
X114587333Y-93572380D02*
X113920666Y-94572380D01*
X179535595Y-128652380D02*
X179535595Y-127652380D01*
X179916547Y-127652380D01*
X180011785Y-127700000D01*
X180059404Y-127747619D01*
X180107023Y-127842857D01*
X180107023Y-127985714D01*
X180059404Y-128080952D01*
X180011785Y-128128571D01*
X179916547Y-128176190D01*
X179535595Y-128176190D01*
X180392738Y-127652380D02*
X180964166Y-127652380D01*
X180678452Y-128652380D02*
X180678452Y-127652380D01*
X181154642Y-127652380D02*
X181726071Y-127652380D01*
X181440357Y-128652380D02*
X181440357Y-127652380D01*
X108811785Y-90452380D02*
X108335595Y-90452380D01*
X108287976Y-90928571D01*
X108335595Y-90880952D01*
X108430833Y-90833333D01*
X108668928Y-90833333D01*
X108764166Y-90880952D01*
X108811785Y-90928571D01*
X108859404Y-91023809D01*
X108859404Y-91261904D01*
X108811785Y-91357142D01*
X108764166Y-91404761D01*
X108668928Y-91452380D01*
X108430833Y-91452380D01*
X108335595Y-91404761D01*
X108287976Y-91357142D01*
X109145119Y-90452380D02*
X109478452Y-91452380D01*
X109811785Y-90452380D01*
X151166666Y-119785714D02*
X151166666Y-119309523D01*
X151452380Y-119880952D02*
X150452380Y-119547619D01*
X151452380Y-119214285D01*
X151452380Y-118880952D02*
X150452380Y-118880952D01*
X150452380Y-118642857D01*
X150500000Y-118500000D01*
X150595238Y-118404761D01*
X150690476Y-118357142D01*
X150880952Y-118309523D01*
X151023809Y-118309523D01*
X151214285Y-118357142D01*
X151309523Y-118404761D01*
X151404761Y-118500000D01*
X151452380Y-118642857D01*
X151452380Y-118880952D01*
X151404761Y-117928571D02*
X151452380Y-117785714D01*
X151452380Y-117547619D01*
X151404761Y-117452380D01*
X151357142Y-117404761D01*
X151261904Y-117357142D01*
X151166666Y-117357142D01*
X151071428Y-117404761D01*
X151023809Y-117452380D01*
X150976190Y-117547619D01*
X150928571Y-117738095D01*
X150880952Y-117833333D01*
X150833333Y-117880952D01*
X150738095Y-117928571D01*
X150642857Y-117928571D01*
X150547619Y-117880952D01*
X150500000Y-117833333D01*
X150452380Y-117738095D01*
X150452380Y-117500000D01*
X150500000Y-117357142D01*
X151452380Y-116404761D02*
X151452380Y-116976190D01*
X151452380Y-116690476D02*
X150452380Y-116690476D01*
X150595238Y-116785714D01*
X150690476Y-116880952D01*
X150738095Y-116976190D01*
X151452380Y-115452380D02*
X151452380Y-116023809D01*
X151452380Y-115738095D02*
X150452380Y-115738095D01*
X150595238Y-115833333D01*
X150690476Y-115928571D01*
X150738095Y-116023809D01*
X151452380Y-114500000D02*
X151452380Y-115071428D01*
X151452380Y-114785714D02*
X150452380Y-114785714D01*
X150595238Y-114880952D01*
X150690476Y-114976190D01*
X150738095Y-115071428D01*
X150452380Y-113595238D02*
X150452380Y-114071428D01*
X150928571Y-114119047D01*
X150880952Y-114071428D01*
X150833333Y-113976190D01*
X150833333Y-113738095D01*
X150880952Y-113642857D01*
X150928571Y-113595238D01*
X151023809Y-113547619D01*
X151261904Y-113547619D01*
X151357142Y-113595238D01*
X151404761Y-113642857D01*
X151452380Y-113738095D01*
X151452380Y-113976190D01*
X151404761Y-114071428D01*
X151357142Y-114119047D01*
X150928571Y-112023809D02*
X150976190Y-111880952D01*
X151023809Y-111833333D01*
X151119047Y-111785714D01*
X151261904Y-111785714D01*
X151357142Y-111833333D01*
X151404761Y-111880952D01*
X151452380Y-111976190D01*
X151452380Y-112357142D01*
X150452380Y-112357142D01*
X150452380Y-112023809D01*
X150500000Y-111928571D01*
X150547619Y-111880952D01*
X150642857Y-111833333D01*
X150738095Y-111833333D01*
X150833333Y-111880952D01*
X150880952Y-111928571D01*
X150928571Y-112023809D01*
X150928571Y-112357142D01*
X151452380Y-111357142D02*
X150785714Y-111357142D01*
X150976190Y-111357142D02*
X150880952Y-111309523D01*
X150833333Y-111261904D01*
X150785714Y-111166666D01*
X150785714Y-111071428D01*
X151404761Y-110357142D02*
X151452380Y-110452380D01*
X151452380Y-110642857D01*
X151404761Y-110738095D01*
X151309523Y-110785714D01*
X150928571Y-110785714D01*
X150833333Y-110738095D01*
X150785714Y-110642857D01*
X150785714Y-110452380D01*
X150833333Y-110357142D01*
X150928571Y-110309523D01*
X151023809Y-110309523D01*
X151119047Y-110785714D01*
X151452380Y-109452380D02*
X150928571Y-109452380D01*
X150833333Y-109500000D01*
X150785714Y-109595238D01*
X150785714Y-109785714D01*
X150833333Y-109880952D01*
X151404761Y-109452380D02*
X151452380Y-109547619D01*
X151452380Y-109785714D01*
X151404761Y-109880952D01*
X151309523Y-109928571D01*
X151214285Y-109928571D01*
X151119047Y-109880952D01*
X151071428Y-109785714D01*
X151071428Y-109547619D01*
X151023809Y-109452380D01*
X151452380Y-108976190D02*
X150452380Y-108976190D01*
X151071428Y-108880952D02*
X151452380Y-108595238D01*
X150785714Y-108595238D02*
X151166666Y-108976190D01*
X151452380Y-108023809D02*
X151404761Y-108119047D01*
X151357142Y-108166666D01*
X151261904Y-108214285D01*
X150976190Y-108214285D01*
X150880952Y-108166666D01*
X150833333Y-108119047D01*
X150785714Y-108023809D01*
X150785714Y-107880952D01*
X150833333Y-107785714D01*
X150880952Y-107738095D01*
X150976190Y-107690476D01*
X151261904Y-107690476D01*
X151357142Y-107738095D01*
X151404761Y-107785714D01*
X151452380Y-107880952D01*
X151452380Y-108023809D01*
X150785714Y-106833333D02*
X151452380Y-106833333D01*
X150785714Y-107261904D02*
X151309523Y-107261904D01*
X151404761Y-107214285D01*
X151452380Y-107119047D01*
X151452380Y-106976190D01*
X151404761Y-106880952D01*
X151357142Y-106833333D01*
X150785714Y-106500000D02*
X150785714Y-106119047D01*
X150452380Y-106357142D02*
X151309523Y-106357142D01*
X151404761Y-106309523D01*
X151452380Y-106214285D01*
X151452380Y-106119047D01*
X172359404Y-125000000D02*
X172264166Y-124952380D01*
X172121309Y-124952380D01*
X171978452Y-125000000D01*
X171883214Y-125095238D01*
X171835595Y-125190476D01*
X171787976Y-125380952D01*
X171787976Y-125523809D01*
X171835595Y-125714285D01*
X171883214Y-125809523D01*
X171978452Y-125904761D01*
X172121309Y-125952380D01*
X172216547Y-125952380D01*
X172359404Y-125904761D01*
X172407023Y-125857142D01*
X172407023Y-125523809D01*
X172216547Y-125523809D01*
X172835595Y-125952380D02*
X172835595Y-124952380D01*
X173407023Y-125952380D01*
X173407023Y-124952380D01*
X173883214Y-125952380D02*
X173883214Y-124952380D01*
X174121309Y-124952380D01*
X174264166Y-125000000D01*
X174359404Y-125095238D01*
X174407023Y-125190476D01*
X174454642Y-125380952D01*
X174454642Y-125523809D01*
X174407023Y-125714285D01*
X174359404Y-125809523D01*
X174264166Y-125904761D01*
X174121309Y-125952380D01*
X173883214Y-125952380D01*
X172359404Y-107000000D02*
X172264166Y-106952380D01*
X172121309Y-106952380D01*
X171978452Y-107000000D01*
X171883214Y-107095238D01*
X171835595Y-107190476D01*
X171787976Y-107380952D01*
X171787976Y-107523809D01*
X171835595Y-107714285D01*
X171883214Y-107809523D01*
X171978452Y-107904761D01*
X172121309Y-107952380D01*
X172216547Y-107952380D01*
X172359404Y-107904761D01*
X172407023Y-107857142D01*
X172407023Y-107523809D01*
X172216547Y-107523809D01*
X172835595Y-107952380D02*
X172835595Y-106952380D01*
X173407023Y-107952380D01*
X173407023Y-106952380D01*
X173883214Y-107952380D02*
X173883214Y-106952380D01*
X174121309Y-106952380D01*
X174264166Y-107000000D01*
X174359404Y-107095238D01*
X174407023Y-107190476D01*
X174454642Y-107380952D01*
X174454642Y-107523809D01*
X174407023Y-107714285D01*
X174359404Y-107809523D01*
X174264166Y-107904761D01*
X174121309Y-107952380D01*
X173883214Y-107952380D01*
X114668928Y-85428571D02*
X114811785Y-85476190D01*
X114859404Y-85523809D01*
X114907023Y-85619047D01*
X114907023Y-85761904D01*
X114859404Y-85857142D01*
X114811785Y-85904761D01*
X114716547Y-85952380D01*
X114335595Y-85952380D01*
X114335595Y-84952380D01*
X114668928Y-84952380D01*
X114764166Y-85000000D01*
X114811785Y-85047619D01*
X114859404Y-85142857D01*
X114859404Y-85238095D01*
X114811785Y-85333333D01*
X114764166Y-85380952D01*
X114668928Y-85428571D01*
X114335595Y-85428571D01*
X115287976Y-85666666D02*
X115764166Y-85666666D01*
X115192738Y-85952380D02*
X115526071Y-84952380D01*
X115859404Y-85952380D01*
X116049880Y-84952380D02*
X116621309Y-84952380D01*
X116335595Y-85952380D02*
X116335595Y-84952380D01*
X116811785Y-84952380D02*
X117383214Y-84952380D01*
X117097500Y-85952380D02*
X117097500Y-84952380D01*
X171835595Y-112952380D02*
X171835595Y-111952380D01*
X172073690Y-111952380D01*
X172216547Y-112000000D01*
X172311785Y-112095238D01*
X172359404Y-112190476D01*
X172407023Y-112380952D01*
X172407023Y-112523809D01*
X172359404Y-112714285D01*
X172311785Y-112809523D01*
X172216547Y-112904761D01*
X172073690Y-112952380D01*
X171835595Y-112952380D01*
X172787976Y-112666666D02*
X173264166Y-112666666D01*
X172692738Y-112952380D02*
X173026071Y-111952380D01*
X173359404Y-112952380D01*
X173549880Y-111952380D02*
X174121309Y-111952380D01*
X173835595Y-112952380D02*
X173835595Y-111952380D01*
X174407023Y-112666666D02*
X174883214Y-112666666D01*
X174311785Y-112952380D02*
X174645119Y-111952380D01*
X174978452Y-112952380D01*
X180107023Y-98557142D02*
X180059404Y-98604761D01*
X179916547Y-98652380D01*
X179821309Y-98652380D01*
X179678452Y-98604761D01*
X179583214Y-98509523D01*
X179535595Y-98414285D01*
X179487976Y-98223809D01*
X179487976Y-98080952D01*
X179535595Y-97890476D01*
X179583214Y-97795238D01*
X179678452Y-97700000D01*
X179821309Y-97652380D01*
X179916547Y-97652380D01*
X180059404Y-97700000D01*
X180107023Y-97747619D01*
X180535595Y-98652380D02*
X180535595Y-97652380D01*
X180773690Y-97652380D01*
X180916547Y-97700000D01*
X181011785Y-97795238D01*
X181059404Y-97890476D01*
X181107023Y-98080952D01*
X181107023Y-98223809D01*
X181059404Y-98414285D01*
X181011785Y-98509523D01*
X180916547Y-98604761D01*
X180773690Y-98652380D01*
X180535595Y-98652380D01*
X118326095Y-93572380D02*
X118897523Y-93572380D01*
X118611809Y-94572380D02*
X118611809Y-93572380D01*
X119135619Y-93572380D02*
X119802285Y-94572380D01*
X119802285Y-93572380D02*
X119135619Y-94572380D01*
X171740357Y-101952380D02*
X172359404Y-101952380D01*
X172026071Y-102333333D01*
X172168928Y-102333333D01*
X172264166Y-102380952D01*
X172311785Y-102428571D01*
X172359404Y-102523809D01*
X172359404Y-102761904D01*
X172311785Y-102857142D01*
X172264166Y-102904761D01*
X172168928Y-102952380D01*
X171883214Y-102952380D01*
X171787976Y-102904761D01*
X171740357Y-102857142D01*
X172787976Y-102857142D02*
X172835595Y-102904761D01*
X172787976Y-102952380D01*
X172740357Y-102904761D01*
X172787976Y-102857142D01*
X172787976Y-102952380D01*
X173168928Y-101952380D02*
X173787976Y-101952380D01*
X173454642Y-102333333D01*
X173597500Y-102333333D01*
X173692738Y-102380952D01*
X173740357Y-102428571D01*
X173787976Y-102523809D01*
X173787976Y-102761904D01*
X173740357Y-102857142D01*
X173692738Y-102904761D01*
X173597500Y-102952380D01*
X173311785Y-102952380D01*
X173216547Y-102904761D01*
X173168928Y-102857142D01*
X174073690Y-101952380D02*
X174407023Y-102952380D01*
X174740357Y-101952380D01*
X95720095Y-141578380D02*
X95720095Y-142387904D01*
X95767714Y-142483142D01*
X95815333Y-142530761D01*
X95910571Y-142578380D01*
X96101047Y-142578380D01*
X96196285Y-142530761D01*
X96243904Y-142483142D01*
X96291523Y-142387904D01*
X96291523Y-141578380D01*
X97291523Y-142578380D02*
X96720095Y-142578380D01*
X97005809Y-142578380D02*
X97005809Y-141578380D01*
X96910571Y-141721238D01*
X96815333Y-141816476D01*
X96720095Y-141864095D01*
X163117333Y-96096380D02*
X162784000Y-95620190D01*
X162545904Y-96096380D02*
X162545904Y-95096380D01*
X162926857Y-95096380D01*
X163022095Y-95144000D01*
X163069714Y-95191619D01*
X163117333Y-95286857D01*
X163117333Y-95429714D01*
X163069714Y-95524952D01*
X163022095Y-95572571D01*
X162926857Y-95620190D01*
X162545904Y-95620190D01*
X163974476Y-95096380D02*
X163784000Y-95096380D01*
X163688761Y-95144000D01*
X163641142Y-95191619D01*
X163545904Y-95334476D01*
X163498285Y-95524952D01*
X163498285Y-95905904D01*
X163545904Y-96001142D01*
X163593523Y-96048761D01*
X163688761Y-96096380D01*
X163879238Y-96096380D01*
X163974476Y-96048761D01*
X164022095Y-96001142D01*
X164069714Y-95905904D01*
X164069714Y-95667809D01*
X164022095Y-95572571D01*
X163974476Y-95524952D01*
X163879238Y-95477333D01*
X163688761Y-95477333D01*
X163593523Y-95524952D01*
X163545904Y-95572571D01*
X163498285Y-95667809D01*
X159593142Y-129454380D02*
X159259809Y-128978190D01*
X159021714Y-129454380D02*
X159021714Y-128454380D01*
X159402666Y-128454380D01*
X159497904Y-128502000D01*
X159545523Y-128549619D01*
X159593142Y-128644857D01*
X159593142Y-128787714D01*
X159545523Y-128882952D01*
X159497904Y-128930571D01*
X159402666Y-128978190D01*
X159021714Y-128978190D01*
X160545523Y-129454380D02*
X159974095Y-129454380D01*
X160259809Y-129454380D02*
X160259809Y-128454380D01*
X160164571Y-128597238D01*
X160069333Y-128692476D01*
X159974095Y-128740095D01*
X161116952Y-128882952D02*
X161021714Y-128835333D01*
X160974095Y-128787714D01*
X160926476Y-128692476D01*
X160926476Y-128644857D01*
X160974095Y-128549619D01*
X161021714Y-128502000D01*
X161116952Y-128454380D01*
X161307428Y-128454380D01*
X161402666Y-128502000D01*
X161450285Y-128549619D01*
X161497904Y-128644857D01*
X161497904Y-128692476D01*
X161450285Y-128787714D01*
X161402666Y-128835333D01*
X161307428Y-128882952D01*
X161116952Y-128882952D01*
X161021714Y-128930571D01*
X160974095Y-128978190D01*
X160926476Y-129073428D01*
X160926476Y-129263904D01*
X160974095Y-129359142D01*
X161021714Y-129406761D01*
X161116952Y-129454380D01*
X161307428Y-129454380D01*
X161402666Y-129406761D01*
X161450285Y-129359142D01*
X161497904Y-129263904D01*
X161497904Y-129073428D01*
X161450285Y-128978190D01*
X161402666Y-128930571D01*
X161307428Y-128882952D01*
X147275333Y-98466380D02*
X146942000Y-97990190D01*
X146703904Y-98466380D02*
X146703904Y-97466380D01*
X147084857Y-97466380D01*
X147180095Y-97514000D01*
X147227714Y-97561619D01*
X147275333Y-97656857D01*
X147275333Y-97799714D01*
X147227714Y-97894952D01*
X147180095Y-97942571D01*
X147084857Y-97990190D01*
X146703904Y-97990190D01*
X148180095Y-97466380D02*
X147703904Y-97466380D01*
X147656285Y-97942571D01*
X147703904Y-97894952D01*
X147799142Y-97847333D01*
X148037238Y-97847333D01*
X148132476Y-97894952D01*
X148180095Y-97942571D01*
X148227714Y-98037809D01*
X148227714Y-98275904D01*
X148180095Y-98371142D01*
X148132476Y-98418761D01*
X148037238Y-98466380D01*
X147799142Y-98466380D01*
X147703904Y-98418761D01*
X147656285Y-98371142D01*
X63136666Y-102176571D02*
X62803333Y-102176571D01*
X62803333Y-102700380D02*
X62803333Y-101700380D01*
X63279523Y-101700380D01*
X63993809Y-102176571D02*
X64136666Y-102224190D01*
X64184285Y-102271809D01*
X64231904Y-102367047D01*
X64231904Y-102509904D01*
X64184285Y-102605142D01*
X64136666Y-102652761D01*
X64041428Y-102700380D01*
X63660476Y-102700380D01*
X63660476Y-101700380D01*
X63993809Y-101700380D01*
X64089047Y-101748000D01*
X64136666Y-101795619D01*
X64184285Y-101890857D01*
X64184285Y-101986095D01*
X64136666Y-102081333D01*
X64089047Y-102128952D01*
X63993809Y-102176571D01*
X63660476Y-102176571D01*
X65089047Y-101700380D02*
X64898571Y-101700380D01*
X64803333Y-101748000D01*
X64755714Y-101795619D01*
X64660476Y-101938476D01*
X64612857Y-102128952D01*
X64612857Y-102509904D01*
X64660476Y-102605142D01*
X64708095Y-102652761D01*
X64803333Y-102700380D01*
X64993809Y-102700380D01*
X65089047Y-102652761D01*
X65136666Y-102605142D01*
X65184285Y-102509904D01*
X65184285Y-102271809D01*
X65136666Y-102176571D01*
X65089047Y-102128952D01*
X64993809Y-102081333D01*
X64803333Y-102081333D01*
X64708095Y-102128952D01*
X64660476Y-102176571D01*
X64612857Y-102271809D01*
X110063142Y-132323142D02*
X110015523Y-132370761D01*
X109872666Y-132418380D01*
X109777428Y-132418380D01*
X109634571Y-132370761D01*
X109539333Y-132275523D01*
X109491714Y-132180285D01*
X109444095Y-131989809D01*
X109444095Y-131846952D01*
X109491714Y-131656476D01*
X109539333Y-131561238D01*
X109634571Y-131466000D01*
X109777428Y-131418380D01*
X109872666Y-131418380D01*
X110015523Y-131466000D01*
X110063142Y-131513619D01*
X111015523Y-132418380D02*
X110444095Y-132418380D01*
X110729809Y-132418380D02*
X110729809Y-131418380D01*
X110634571Y-131561238D01*
X110539333Y-131656476D01*
X110444095Y-131704095D01*
X111634571Y-131418380D02*
X111729809Y-131418380D01*
X111825047Y-131466000D01*
X111872666Y-131513619D01*
X111920285Y-131608857D01*
X111967904Y-131799333D01*
X111967904Y-132037428D01*
X111920285Y-132227904D01*
X111872666Y-132323142D01*
X111825047Y-132370761D01*
X111729809Y-132418380D01*
X111634571Y-132418380D01*
X111539333Y-132370761D01*
X111491714Y-132323142D01*
X111444095Y-132227904D01*
X111396476Y-132037428D01*
X111396476Y-131799333D01*
X111444095Y-131608857D01*
X111491714Y-131513619D01*
X111539333Y-131466000D01*
X111634571Y-131418380D01*
X130891142Y-99398380D02*
X130557809Y-98922190D01*
X130319714Y-99398380D02*
X130319714Y-98398380D01*
X130700666Y-98398380D01*
X130795904Y-98446000D01*
X130843523Y-98493619D01*
X130891142Y-98588857D01*
X130891142Y-98731714D01*
X130843523Y-98826952D01*
X130795904Y-98874571D01*
X130700666Y-98922190D01*
X130319714Y-98922190D01*
X131843523Y-99398380D02*
X131272095Y-99398380D01*
X131557809Y-99398380D02*
X131557809Y-98398380D01*
X131462571Y-98541238D01*
X131367333Y-98636476D01*
X131272095Y-98684095D01*
X132176857Y-98398380D02*
X132843523Y-98398380D01*
X132414952Y-99398380D01*
X163149142Y-86444380D02*
X162815809Y-85968190D01*
X162577714Y-86444380D02*
X162577714Y-85444380D01*
X162958666Y-85444380D01*
X163053904Y-85492000D01*
X163101523Y-85539619D01*
X163149142Y-85634857D01*
X163149142Y-85777714D01*
X163101523Y-85872952D01*
X163053904Y-85920571D01*
X162958666Y-85968190D01*
X162577714Y-85968190D01*
X164101523Y-86444380D02*
X163530095Y-86444380D01*
X163815809Y-86444380D02*
X163815809Y-85444380D01*
X163720571Y-85587238D01*
X163625333Y-85682476D01*
X163530095Y-85730095D01*
X164434857Y-85444380D02*
X165053904Y-85444380D01*
X164720571Y-85825333D01*
X164863428Y-85825333D01*
X164958666Y-85872952D01*
X165006285Y-85920571D01*
X165053904Y-86015809D01*
X165053904Y-86253904D01*
X165006285Y-86349142D01*
X164958666Y-86396761D01*
X164863428Y-86444380D01*
X164577714Y-86444380D01*
X164482476Y-86396761D01*
X164434857Y-86349142D01*
X153719333Y-105907142D02*
X153671714Y-105954761D01*
X153528857Y-106002380D01*
X153433619Y-106002380D01*
X153290761Y-105954761D01*
X153195523Y-105859523D01*
X153147904Y-105764285D01*
X153100285Y-105573809D01*
X153100285Y-105430952D01*
X153147904Y-105240476D01*
X153195523Y-105145238D01*
X153290761Y-105050000D01*
X153433619Y-105002380D01*
X153528857Y-105002380D01*
X153671714Y-105050000D01*
X153719333Y-105097619D01*
X154624095Y-105002380D02*
X154147904Y-105002380D01*
X154100285Y-105478571D01*
X154147904Y-105430952D01*
X154243142Y-105383333D01*
X154481238Y-105383333D01*
X154576476Y-105430952D01*
X154624095Y-105478571D01*
X154671714Y-105573809D01*
X154671714Y-105811904D01*
X154624095Y-105907142D01*
X154576476Y-105954761D01*
X154481238Y-106002380D01*
X154243142Y-106002380D01*
X154147904Y-105954761D01*
X154100285Y-105907142D01*
X141273333Y-89746380D02*
X140940000Y-89270190D01*
X140701904Y-89746380D02*
X140701904Y-88746380D01*
X141082857Y-88746380D01*
X141178095Y-88794000D01*
X141225714Y-88841619D01*
X141273333Y-88936857D01*
X141273333Y-89079714D01*
X141225714Y-89174952D01*
X141178095Y-89222571D01*
X141082857Y-89270190D01*
X140701904Y-89270190D01*
X141749523Y-89746380D02*
X141940000Y-89746380D01*
X142035238Y-89698761D01*
X142082857Y-89651142D01*
X142178095Y-89508285D01*
X142225714Y-89317809D01*
X142225714Y-88936857D01*
X142178095Y-88841619D01*
X142130476Y-88794000D01*
X142035238Y-88746380D01*
X141844761Y-88746380D01*
X141749523Y-88794000D01*
X141701904Y-88841619D01*
X141654285Y-88936857D01*
X141654285Y-89174952D01*
X141701904Y-89270190D01*
X141749523Y-89317809D01*
X141844761Y-89365428D01*
X142035238Y-89365428D01*
X142130476Y-89317809D01*
X142178095Y-89270190D01*
X142225714Y-89174952D01*
X153973333Y-123179142D02*
X153925714Y-123226761D01*
X153782857Y-123274380D01*
X153687619Y-123274380D01*
X153544761Y-123226761D01*
X153449523Y-123131523D01*
X153401904Y-123036285D01*
X153354285Y-122845809D01*
X153354285Y-122702952D01*
X153401904Y-122512476D01*
X153449523Y-122417238D01*
X153544761Y-122322000D01*
X153687619Y-122274380D01*
X153782857Y-122274380D01*
X153925714Y-122322000D01*
X153973333Y-122369619D01*
X154306666Y-122274380D02*
X154925714Y-122274380D01*
X154592380Y-122655333D01*
X154735238Y-122655333D01*
X154830476Y-122702952D01*
X154878095Y-122750571D01*
X154925714Y-122845809D01*
X154925714Y-123083904D01*
X154878095Y-123179142D01*
X154830476Y-123226761D01*
X154735238Y-123274380D01*
X154449523Y-123274380D01*
X154354285Y-123226761D01*
X154306666Y-123179142D01*
X139738095Y-124952380D02*
X139738095Y-125761904D01*
X139785714Y-125857142D01*
X139833333Y-125904761D01*
X139928571Y-125952380D01*
X140119047Y-125952380D01*
X140214285Y-125904761D01*
X140261904Y-125857142D01*
X140309523Y-125761904D01*
X140309523Y-124952380D01*
X140690476Y-124952380D02*
X141309523Y-124952380D01*
X140976190Y-125333333D01*
X141119047Y-125333333D01*
X141214285Y-125380952D01*
X141261904Y-125428571D01*
X141309523Y-125523809D01*
X141309523Y-125761904D01*
X141261904Y-125857142D01*
X141214285Y-125904761D01*
X141119047Y-125952380D01*
X140833333Y-125952380D01*
X140738095Y-125904761D01*
X140690476Y-125857142D01*
X147283452Y-104301666D02*
X147759642Y-104301666D01*
X147188214Y-104587380D02*
X147521547Y-103587380D01*
X147854880Y-104587380D01*
X148140595Y-103682619D02*
X148188214Y-103635000D01*
X148283452Y-103587380D01*
X148521547Y-103587380D01*
X148616785Y-103635000D01*
X148664404Y-103682619D01*
X148712023Y-103777857D01*
X148712023Y-103873095D01*
X148664404Y-104015952D01*
X148092976Y-104587380D01*
X148712023Y-104587380D01*
X147283452Y-106841666D02*
X147759642Y-106841666D01*
X147188214Y-107127380D02*
X147521547Y-106127380D01*
X147854880Y-107127380D01*
X148712023Y-107127380D02*
X148140595Y-107127380D01*
X148426309Y-107127380D02*
X148426309Y-106127380D01*
X148331071Y-106270238D01*
X148235833Y-106365476D01*
X148140595Y-106413095D01*
X146140595Y-123907380D02*
X146473928Y-124907380D01*
X146807261Y-123907380D01*
X147140595Y-124907380D02*
X147140595Y-123907380D01*
X147378690Y-123907380D01*
X147521547Y-123955000D01*
X147616785Y-124050238D01*
X147664404Y-124145476D01*
X147712023Y-124335952D01*
X147712023Y-124478809D01*
X147664404Y-124669285D01*
X147616785Y-124764523D01*
X147521547Y-124859761D01*
X147378690Y-124907380D01*
X147140595Y-124907380D01*
X148140595Y-124907380D02*
X148140595Y-123907380D01*
X148378690Y-123907380D01*
X148521547Y-123955000D01*
X148616785Y-124050238D01*
X148664404Y-124145476D01*
X148712023Y-124335952D01*
X148712023Y-124478809D01*
X148664404Y-124669285D01*
X148616785Y-124764523D01*
X148521547Y-124859761D01*
X148378690Y-124907380D01*
X148140595Y-124907380D01*
X146283452Y-117404761D02*
X146426309Y-117452380D01*
X146664404Y-117452380D01*
X146759642Y-117404761D01*
X146807261Y-117357142D01*
X146854880Y-117261904D01*
X146854880Y-117166666D01*
X146807261Y-117071428D01*
X146759642Y-117023809D01*
X146664404Y-116976190D01*
X146473928Y-116928571D01*
X146378690Y-116880952D01*
X146331071Y-116833333D01*
X146283452Y-116738095D01*
X146283452Y-116642857D01*
X146331071Y-116547619D01*
X146378690Y-116500000D01*
X146473928Y-116452380D01*
X146712023Y-116452380D01*
X146854880Y-116500000D01*
X147283452Y-117452380D02*
X147283452Y-116452380D01*
X147521547Y-116452380D01*
X147664404Y-116500000D01*
X147759642Y-116595238D01*
X147807261Y-116690476D01*
X147854880Y-116880952D01*
X147854880Y-117023809D01*
X147807261Y-117214285D01*
X147759642Y-117309523D01*
X147664404Y-117404761D01*
X147521547Y-117452380D01*
X147283452Y-117452380D01*
X148235833Y-117166666D02*
X148712023Y-117166666D01*
X148140595Y-117452380D02*
X148473928Y-116452380D01*
X148807261Y-117452380D01*
X145235833Y-114461666D02*
X145712023Y-114461666D01*
X145140595Y-114747380D02*
X145473928Y-113747380D01*
X145807261Y-114747380D01*
X146140595Y-114747380D02*
X146140595Y-113747380D01*
X146378690Y-113747380D01*
X146521547Y-113795000D01*
X146616785Y-113890238D01*
X146664404Y-113985476D01*
X146712023Y-114175952D01*
X146712023Y-114318809D01*
X146664404Y-114509285D01*
X146616785Y-114604523D01*
X146521547Y-114699761D01*
X146378690Y-114747380D01*
X146140595Y-114747380D01*
X147140595Y-114747380D02*
X147140595Y-113747380D01*
X147378690Y-113747380D01*
X147521547Y-113795000D01*
X147616785Y-113890238D01*
X147664404Y-113985476D01*
X147712023Y-114175952D01*
X147712023Y-114318809D01*
X147664404Y-114509285D01*
X147616785Y-114604523D01*
X147521547Y-114699761D01*
X147378690Y-114747380D01*
X147140595Y-114747380D01*
X148712023Y-114747380D02*
X148378690Y-114271190D01*
X148140595Y-114747380D02*
X148140595Y-113747380D01*
X148521547Y-113747380D01*
X148616785Y-113795000D01*
X148664404Y-113842619D01*
X148712023Y-113937857D01*
X148712023Y-114080714D01*
X148664404Y-114175952D01*
X148616785Y-114223571D01*
X148521547Y-114271190D01*
X148140595Y-114271190D01*
X146331071Y-119779761D02*
X146473928Y-119827380D01*
X146712023Y-119827380D01*
X146807261Y-119779761D01*
X146854880Y-119732142D01*
X146902500Y-119636904D01*
X146902500Y-119541666D01*
X146854880Y-119446428D01*
X146807261Y-119398809D01*
X146712023Y-119351190D01*
X146521547Y-119303571D01*
X146426309Y-119255952D01*
X146378690Y-119208333D01*
X146331071Y-119113095D01*
X146331071Y-119017857D01*
X146378690Y-118922619D01*
X146426309Y-118875000D01*
X146521547Y-118827380D01*
X146759642Y-118827380D01*
X146902500Y-118875000D01*
X147902500Y-119732142D02*
X147854880Y-119779761D01*
X147712023Y-119827380D01*
X147616785Y-119827380D01*
X147473928Y-119779761D01*
X147378690Y-119684523D01*
X147331071Y-119589285D01*
X147283452Y-119398809D01*
X147283452Y-119255952D01*
X147331071Y-119065476D01*
X147378690Y-118970238D01*
X147473928Y-118875000D01*
X147616785Y-118827380D01*
X147712023Y-118827380D01*
X147854880Y-118875000D01*
X147902500Y-118922619D01*
X148807261Y-119827380D02*
X148331071Y-119827380D01*
X148331071Y-118827380D01*
X146616785Y-121500000D02*
X146521547Y-121452380D01*
X146378690Y-121452380D01*
X146235833Y-121500000D01*
X146140595Y-121595238D01*
X146092976Y-121690476D01*
X146045357Y-121880952D01*
X146045357Y-122023809D01*
X146092976Y-122214285D01*
X146140595Y-122309523D01*
X146235833Y-122404761D01*
X146378690Y-122452380D01*
X146473928Y-122452380D01*
X146616785Y-122404761D01*
X146664404Y-122357142D01*
X146664404Y-122023809D01*
X146473928Y-122023809D01*
X147092976Y-122452380D02*
X147092976Y-121452380D01*
X147664404Y-122452380D01*
X147664404Y-121452380D01*
X148140595Y-122452380D02*
X148140595Y-121452380D01*
X148378690Y-121452380D01*
X148521547Y-121500000D01*
X148616785Y-121595238D01*
X148664404Y-121690476D01*
X148712023Y-121880952D01*
X148712023Y-122023809D01*
X148664404Y-122214285D01*
X148616785Y-122309523D01*
X148521547Y-122404761D01*
X148378690Y-122452380D01*
X148140595Y-122452380D01*
X147283452Y-101761666D02*
X147759642Y-101761666D01*
X147188214Y-102047380D02*
X147521547Y-101047380D01*
X147854880Y-102047380D01*
X148092976Y-101047380D02*
X148712023Y-101047380D01*
X148378690Y-101428333D01*
X148521547Y-101428333D01*
X148616785Y-101475952D01*
X148664404Y-101523571D01*
X148712023Y-101618809D01*
X148712023Y-101856904D01*
X148664404Y-101952142D01*
X148616785Y-101999761D01*
X148521547Y-102047380D01*
X148235833Y-102047380D01*
X148140595Y-101999761D01*
X148092976Y-101952142D01*
X145664404Y-111926666D02*
X146140595Y-111926666D01*
X145569166Y-112212380D02*
X145902500Y-111212380D01*
X146235833Y-112212380D01*
X147045357Y-112212380D02*
X146569166Y-112212380D01*
X146569166Y-111212380D01*
X147950119Y-112212380D02*
X147616785Y-111736190D01*
X147378690Y-112212380D02*
X147378690Y-111212380D01*
X147759642Y-111212380D01*
X147854880Y-111260000D01*
X147902500Y-111307619D01*
X147950119Y-111402857D01*
X147950119Y-111545714D01*
X147902500Y-111640952D01*
X147854880Y-111688571D01*
X147759642Y-111736190D01*
X147378690Y-111736190D01*
X148235833Y-111212380D02*
X148807261Y-111212380D01*
X148521547Y-112212380D02*
X148521547Y-111212380D01*
X147283452Y-109381666D02*
X147759642Y-109381666D01*
X147188214Y-109667380D02*
X147521547Y-108667380D01*
X147854880Y-109667380D01*
X148378690Y-108667380D02*
X148473928Y-108667380D01*
X148569166Y-108715000D01*
X148616785Y-108762619D01*
X148664404Y-108857857D01*
X148712023Y-109048333D01*
X148712023Y-109286428D01*
X148664404Y-109476904D01*
X148616785Y-109572142D01*
X148569166Y-109619761D01*
X148473928Y-109667380D01*
X148378690Y-109667380D01*
X148283452Y-109619761D01*
X148235833Y-109572142D01*
X148188214Y-109476904D01*
X148140595Y-109286428D01*
X148140595Y-109048333D01*
X148188214Y-108857857D01*
X148235833Y-108762619D01*
X148283452Y-108715000D01*
X148378690Y-108667380D01*
X63136666Y-99428571D02*
X62803333Y-99428571D01*
X62803333Y-99952380D02*
X62803333Y-98952380D01*
X63279523Y-98952380D01*
X63993809Y-99428571D02*
X64136666Y-99476190D01*
X64184285Y-99523809D01*
X64231904Y-99619047D01*
X64231904Y-99761904D01*
X64184285Y-99857142D01*
X64136666Y-99904761D01*
X64041428Y-99952380D01*
X63660476Y-99952380D01*
X63660476Y-98952380D01*
X63993809Y-98952380D01*
X64089047Y-99000000D01*
X64136666Y-99047619D01*
X64184285Y-99142857D01*
X64184285Y-99238095D01*
X64136666Y-99333333D01*
X64089047Y-99380952D01*
X63993809Y-99428571D01*
X63660476Y-99428571D01*
X64565238Y-98952380D02*
X65231904Y-98952380D01*
X64803333Y-99952380D01*
X80357142Y-82857142D02*
X80309523Y-82904761D01*
X80166666Y-82952380D01*
X80071428Y-82952380D01*
X79928571Y-82904761D01*
X79833333Y-82809523D01*
X79785714Y-82714285D01*
X79738095Y-82523809D01*
X79738095Y-82380952D01*
X79785714Y-82190476D01*
X79833333Y-82095238D01*
X79928571Y-82000000D01*
X80071428Y-81952380D01*
X80166666Y-81952380D01*
X80309523Y-82000000D01*
X80357142Y-82047619D01*
X80738095Y-82047619D02*
X80785714Y-82000000D01*
X80880952Y-81952380D01*
X81119047Y-81952380D01*
X81214285Y-82000000D01*
X81261904Y-82047619D01*
X81309523Y-82142857D01*
X81309523Y-82238095D01*
X81261904Y-82380952D01*
X80690476Y-82952380D01*
X81309523Y-82952380D01*
X81928571Y-81952380D02*
X82023809Y-81952380D01*
X82119047Y-82000000D01*
X82166666Y-82047619D01*
X82214285Y-82142857D01*
X82261904Y-82333333D01*
X82261904Y-82571428D01*
X82214285Y-82761904D01*
X82166666Y-82857142D01*
X82119047Y-82904761D01*
X82023809Y-82952380D01*
X81928571Y-82952380D01*
X81833333Y-82904761D01*
X81785714Y-82857142D01*
X81738095Y-82761904D01*
X81690476Y-82571428D01*
X81690476Y-82333333D01*
X81738095Y-82142857D01*
X81785714Y-82047619D01*
X81833333Y-82000000D01*
X81928571Y-81952380D01*
X108192738Y-88952380D02*
X108764166Y-88952380D01*
X108478452Y-89952380D02*
X108478452Y-88952380D01*
X109097500Y-89952380D02*
X109097500Y-88952380D01*
X109478452Y-88952380D01*
X109573690Y-89000000D01*
X109621309Y-89047619D01*
X109668928Y-89142857D01*
X109668928Y-89285714D01*
X109621309Y-89380952D01*
X109573690Y-89428571D01*
X109478452Y-89476190D01*
X109097500Y-89476190D01*
X110049880Y-89047619D02*
X110097500Y-89000000D01*
X110192738Y-88952380D01*
X110430833Y-88952380D01*
X110526071Y-89000000D01*
X110573690Y-89047619D01*
X110621309Y-89142857D01*
X110621309Y-89238095D01*
X110573690Y-89380952D01*
X110002261Y-89952380D01*
X110621309Y-89952380D01*
X64144666Y-86936571D02*
X63811333Y-86936571D01*
X63811333Y-87460380D02*
X63811333Y-86460380D01*
X64287523Y-86460380D01*
X65192285Y-87460380D02*
X64620857Y-87460380D01*
X64906571Y-87460380D02*
X64906571Y-86460380D01*
X64811333Y-86603238D01*
X64716095Y-86698476D01*
X64620857Y-86746095D01*
X94505714Y-81110380D02*
X94505714Y-80110380D01*
X94886666Y-80110380D01*
X94981904Y-80158000D01*
X95029523Y-80205619D01*
X95077142Y-80300857D01*
X95077142Y-80443714D01*
X95029523Y-80538952D01*
X94981904Y-80586571D01*
X94886666Y-80634190D01*
X94505714Y-80634190D01*
X95458095Y-81062761D02*
X95600952Y-81110380D01*
X95839047Y-81110380D01*
X95934285Y-81062761D01*
X95981904Y-81015142D01*
X96029523Y-80919904D01*
X96029523Y-80824666D01*
X95981904Y-80729428D01*
X95934285Y-80681809D01*
X95839047Y-80634190D01*
X95648571Y-80586571D01*
X95553333Y-80538952D01*
X95505714Y-80491333D01*
X95458095Y-80396095D01*
X95458095Y-80300857D01*
X95505714Y-80205619D01*
X95553333Y-80158000D01*
X95648571Y-80110380D01*
X95886666Y-80110380D01*
X96029523Y-80158000D01*
X96981904Y-81110380D02*
X96410476Y-81110380D01*
X96696190Y-81110380D02*
X96696190Y-80110380D01*
X96600952Y-80253238D01*
X96505714Y-80348476D01*
X96410476Y-80396095D01*
X131145142Y-84158380D02*
X130811809Y-83682190D01*
X130573714Y-84158380D02*
X130573714Y-83158380D01*
X130954666Y-83158380D01*
X131049904Y-83206000D01*
X131097523Y-83253619D01*
X131145142Y-83348857D01*
X131145142Y-83491714D01*
X131097523Y-83586952D01*
X131049904Y-83634571D01*
X130954666Y-83682190D01*
X130573714Y-83682190D01*
X132097523Y-84158380D02*
X131526095Y-84158380D01*
X131811809Y-84158380D02*
X131811809Y-83158380D01*
X131716571Y-83301238D01*
X131621333Y-83396476D01*
X131526095Y-83444095D01*
X132954666Y-83158380D02*
X132764190Y-83158380D01*
X132668952Y-83206000D01*
X132621333Y-83253619D01*
X132526095Y-83396476D01*
X132478476Y-83586952D01*
X132478476Y-83967904D01*
X132526095Y-84063142D01*
X132573714Y-84110761D01*
X132668952Y-84158380D01*
X132859428Y-84158380D01*
X132954666Y-84110761D01*
X133002285Y-84063142D01*
X133049904Y-83967904D01*
X133049904Y-83729809D01*
X133002285Y-83634571D01*
X132954666Y-83586952D01*
X132859428Y-83539333D01*
X132668952Y-83539333D01*
X132573714Y-83586952D01*
X132526095Y-83634571D01*
X132478476Y-83729809D01*
X140289142Y-86444380D02*
X139955809Y-85968190D01*
X139717714Y-86444380D02*
X139717714Y-85444380D01*
X140098666Y-85444380D01*
X140193904Y-85492000D01*
X140241523Y-85539619D01*
X140289142Y-85634857D01*
X140289142Y-85777714D01*
X140241523Y-85872952D01*
X140193904Y-85920571D01*
X140098666Y-85968190D01*
X139717714Y-85968190D01*
X141241523Y-86444380D02*
X140670095Y-86444380D01*
X140955809Y-86444380D02*
X140955809Y-85444380D01*
X140860571Y-85587238D01*
X140765333Y-85682476D01*
X140670095Y-85730095D01*
X141622476Y-85539619D02*
X141670095Y-85492000D01*
X141765333Y-85444380D01*
X142003428Y-85444380D01*
X142098666Y-85492000D01*
X142146285Y-85539619D01*
X142193904Y-85634857D01*
X142193904Y-85730095D01*
X142146285Y-85872952D01*
X141574857Y-86444380D01*
X142193904Y-86444380D01*
X175396548Y-99284687D02*
X175396548Y-99999225D01*
X175348912Y-100142133D01*
X175253640Y-100237405D01*
X175110733Y-100285041D01*
X175015461Y-100285041D01*
X176396902Y-100285041D02*
X175825271Y-100285041D01*
X176111087Y-100285041D02*
X176111087Y-99284687D01*
X176015815Y-99427594D01*
X175920543Y-99522866D01*
X175825271Y-99570502D01*
X179451011Y-100252972D02*
X179451011Y-99251665D01*
X180643043Y-99203983D02*
X179784780Y-100491378D01*
X181167538Y-99251665D02*
X181358263Y-99251665D01*
X181453625Y-99299346D01*
X181548988Y-99394709D01*
X181596669Y-99585434D01*
X181596669Y-99919203D01*
X181548988Y-100109928D01*
X181453625Y-100205290D01*
X181358263Y-100252972D01*
X181167538Y-100252972D01*
X181072175Y-100205290D01*
X180976812Y-100109928D01*
X180929131Y-99919203D01*
X180929131Y-99585434D01*
X180976812Y-99394709D01*
X181072175Y-99299346D01*
X181167538Y-99251665D01*
X175261904Y-98652380D02*
X175261904Y-97652380D01*
X175500000Y-97652380D01*
X175642857Y-97700000D01*
X175738095Y-97795238D01*
X175785714Y-97890476D01*
X175833333Y-98080952D01*
X175833333Y-98223809D01*
X175785714Y-98414285D01*
X175738095Y-98509523D01*
X175642857Y-98604761D01*
X175500000Y-98652380D01*
X175261904Y-98652380D01*
X176785714Y-98652380D02*
X176214285Y-98652380D01*
X176500000Y-98652380D02*
X176500000Y-97652380D01*
X176404761Y-97795238D01*
X176309523Y-97890476D01*
X176214285Y-97938095D01*
X104692738Y-85452380D02*
X105264166Y-85452380D01*
X104978452Y-86452380D02*
X104978452Y-85452380D01*
X105597500Y-86452380D02*
X105597500Y-85452380D01*
X105978452Y-85452380D01*
X106073690Y-85500000D01*
X106121309Y-85547619D01*
X106168928Y-85642857D01*
X106168928Y-85785714D01*
X106121309Y-85880952D01*
X106073690Y-85928571D01*
X105978452Y-85976190D01*
X105597500Y-85976190D01*
X106502261Y-85452380D02*
X107121309Y-85452380D01*
X106787976Y-85833333D01*
X106930833Y-85833333D01*
X107026071Y-85880952D01*
X107073690Y-85928571D01*
X107121309Y-86023809D01*
X107121309Y-86261904D01*
X107073690Y-86357142D01*
X107026071Y-86404761D01*
X106930833Y-86452380D01*
X106645119Y-86452380D01*
X106549880Y-86404761D01*
X106502261Y-86357142D01*
X160357142Y-112182380D02*
X160023809Y-111706190D01*
X159785714Y-112182380D02*
X159785714Y-111182380D01*
X160166666Y-111182380D01*
X160261904Y-111230000D01*
X160309523Y-111277619D01*
X160357142Y-111372857D01*
X160357142Y-111515714D01*
X160309523Y-111610952D01*
X160261904Y-111658571D01*
X160166666Y-111706190D01*
X159785714Y-111706190D01*
X161309523Y-112182380D02*
X160738095Y-112182380D01*
X161023809Y-112182380D02*
X161023809Y-111182380D01*
X160928571Y-111325238D01*
X160833333Y-111420476D01*
X160738095Y-111468095D01*
X162166666Y-111515714D02*
X162166666Y-112182380D01*
X161928571Y-111134761D02*
X161690476Y-111849047D01*
X162309523Y-111849047D01*
X63136666Y-91928571D02*
X62803333Y-91928571D01*
X62803333Y-92452380D02*
X62803333Y-91452380D01*
X63279523Y-91452380D01*
X63993809Y-91928571D02*
X64136666Y-91976190D01*
X64184285Y-92023809D01*
X64231904Y-92119047D01*
X64231904Y-92261904D01*
X64184285Y-92357142D01*
X64136666Y-92404761D01*
X64041428Y-92452380D01*
X63660476Y-92452380D01*
X63660476Y-91452380D01*
X63993809Y-91452380D01*
X64089047Y-91500000D01*
X64136666Y-91547619D01*
X64184285Y-91642857D01*
X64184285Y-91738095D01*
X64136666Y-91833333D01*
X64089047Y-91880952D01*
X63993809Y-91928571D01*
X63660476Y-91928571D01*
X64708095Y-92452380D02*
X64898571Y-92452380D01*
X64993809Y-92404761D01*
X65041428Y-92357142D01*
X65136666Y-92214285D01*
X65184285Y-92023809D01*
X65184285Y-91642857D01*
X65136666Y-91547619D01*
X65089047Y-91500000D01*
X64993809Y-91452380D01*
X64803333Y-91452380D01*
X64708095Y-91500000D01*
X64660476Y-91547619D01*
X64612857Y-91642857D01*
X64612857Y-91880952D01*
X64660476Y-91976190D01*
X64708095Y-92023809D01*
X64803333Y-92071428D01*
X64993809Y-92071428D01*
X65089047Y-92023809D01*
X65136666Y-91976190D01*
X65184285Y-91880952D01*
X80480095Y-124306380D02*
X80480095Y-125115904D01*
X80527714Y-125211142D01*
X80575333Y-125258761D01*
X80670571Y-125306380D01*
X80861047Y-125306380D01*
X80956285Y-125258761D01*
X81003904Y-125211142D01*
X81051523Y-125115904D01*
X81051523Y-124306380D01*
X81480095Y-124401619D02*
X81527714Y-124354000D01*
X81622952Y-124306380D01*
X81861047Y-124306380D01*
X81956285Y-124354000D01*
X82003904Y-124401619D01*
X82051523Y-124496857D01*
X82051523Y-124592095D01*
X82003904Y-124734952D01*
X81432476Y-125306380D01*
X82051523Y-125306380D01*
X111150380Y-117642857D02*
X110150380Y-117642857D01*
X111150380Y-117071428D01*
X110150380Y-117071428D01*
X111150380Y-116166666D02*
X110626571Y-116166666D01*
X110531333Y-116214285D01*
X110483714Y-116309523D01*
X110483714Y-116500000D01*
X110531333Y-116595238D01*
X111102761Y-116166666D02*
X111150380Y-116261904D01*
X111150380Y-116500000D01*
X111102761Y-116595238D01*
X111007523Y-116642857D01*
X110912285Y-116642857D01*
X110817047Y-116595238D01*
X110769428Y-116500000D01*
X110769428Y-116261904D01*
X110721809Y-116166666D01*
X110483714Y-115690476D02*
X111150380Y-115690476D01*
X110578952Y-115690476D02*
X110531333Y-115642857D01*
X110483714Y-115547619D01*
X110483714Y-115404761D01*
X110531333Y-115309523D01*
X110626571Y-115261904D01*
X111150380Y-115261904D01*
X111150380Y-114642857D02*
X111102761Y-114738095D01*
X111055142Y-114785714D01*
X110959904Y-114833333D01*
X110674190Y-114833333D01*
X110578952Y-114785714D01*
X110531333Y-114738095D01*
X110483714Y-114642857D01*
X110483714Y-114500000D01*
X110531333Y-114404761D01*
X110578952Y-114357142D01*
X110674190Y-114309523D01*
X110959904Y-114309523D01*
X111055142Y-114357142D01*
X111102761Y-114404761D01*
X111150380Y-114500000D01*
X111150380Y-114642857D01*
X111150380Y-113880952D02*
X110150380Y-113880952D01*
X110150380Y-113500000D01*
X110198000Y-113404761D01*
X110245619Y-113357142D01*
X110340857Y-113309523D01*
X110483714Y-113309523D01*
X110578952Y-113357142D01*
X110626571Y-113404761D01*
X110674190Y-113500000D01*
X110674190Y-113880952D01*
X111150380Y-112880952D02*
X110483714Y-112880952D01*
X110150380Y-112880952D02*
X110198000Y-112928571D01*
X110245619Y-112880952D01*
X110198000Y-112833333D01*
X110150380Y-112880952D01*
X110245619Y-112880952D01*
X111150380Y-111642857D02*
X110150380Y-111642857D01*
X110150380Y-111404761D01*
X110198000Y-111261904D01*
X110293238Y-111166666D01*
X110388476Y-111119047D01*
X110578952Y-111071428D01*
X110721809Y-111071428D01*
X110912285Y-111119047D01*
X111007523Y-111166666D01*
X111102761Y-111261904D01*
X111150380Y-111404761D01*
X111150380Y-111642857D01*
X110483714Y-110214285D02*
X111150380Y-110214285D01*
X110483714Y-110642857D02*
X111007523Y-110642857D01*
X111102761Y-110595238D01*
X111150380Y-110500000D01*
X111150380Y-110357142D01*
X111102761Y-110261904D01*
X111055142Y-110214285D01*
X111150380Y-109595238D02*
X111102761Y-109690476D01*
X111055142Y-109738095D01*
X110959904Y-109785714D01*
X110674190Y-109785714D01*
X110578952Y-109738095D01*
X110531333Y-109690476D01*
X110483714Y-109595238D01*
X110483714Y-109452380D01*
X110531333Y-109357142D01*
X110578952Y-109309523D01*
X110674190Y-109261904D01*
X110959904Y-109261904D01*
X111055142Y-109309523D01*
X111102761Y-109357142D01*
X111150380Y-109452380D01*
X111150380Y-109595238D01*
X110245619Y-108880952D02*
X110198000Y-108833333D01*
X110150380Y-108738095D01*
X110150380Y-108500000D01*
X110198000Y-108404761D01*
X110245619Y-108357142D01*
X110340857Y-108309523D01*
X110436095Y-108309523D01*
X110578952Y-108357142D01*
X111150380Y-108928571D01*
X111150380Y-108309523D01*
X53643333Y-144864380D02*
X53310000Y-144388190D01*
X53071904Y-144864380D02*
X53071904Y-143864380D01*
X53452857Y-143864380D01*
X53548095Y-143912000D01*
X53595714Y-143959619D01*
X53643333Y-144054857D01*
X53643333Y-144197714D01*
X53595714Y-144292952D01*
X53548095Y-144340571D01*
X53452857Y-144388190D01*
X53071904Y-144388190D01*
X54024285Y-143959619D02*
X54071904Y-143912000D01*
X54167142Y-143864380D01*
X54405238Y-143864380D01*
X54500476Y-143912000D01*
X54548095Y-143959619D01*
X54595714Y-144054857D01*
X54595714Y-144150095D01*
X54548095Y-144292952D01*
X53976666Y-144864380D01*
X54595714Y-144864380D01*
X74217333Y-128767142D02*
X74169714Y-128814761D01*
X74026857Y-128862380D01*
X73931619Y-128862380D01*
X73788761Y-128814761D01*
X73693523Y-128719523D01*
X73645904Y-128624285D01*
X73598285Y-128433809D01*
X73598285Y-128290952D01*
X73645904Y-128100476D01*
X73693523Y-128005238D01*
X73788761Y-127910000D01*
X73931619Y-127862380D01*
X74026857Y-127862380D01*
X74169714Y-127910000D01*
X74217333Y-127957619D01*
X75169714Y-128862380D02*
X74598285Y-128862380D01*
X74884000Y-128862380D02*
X74884000Y-127862380D01*
X74788761Y-128005238D01*
X74693523Y-128100476D01*
X74598285Y-128148095D01*
X91235333Y-128259142D02*
X91187714Y-128306761D01*
X91044857Y-128354380D01*
X90949619Y-128354380D01*
X90806761Y-128306761D01*
X90711523Y-128211523D01*
X90663904Y-128116285D01*
X90616285Y-127925809D01*
X90616285Y-127782952D01*
X90663904Y-127592476D01*
X90711523Y-127497238D01*
X90806761Y-127402000D01*
X90949619Y-127354380D01*
X91044857Y-127354380D01*
X91187714Y-127402000D01*
X91235333Y-127449619D01*
X91806761Y-127782952D02*
X91711523Y-127735333D01*
X91663904Y-127687714D01*
X91616285Y-127592476D01*
X91616285Y-127544857D01*
X91663904Y-127449619D01*
X91711523Y-127402000D01*
X91806761Y-127354380D01*
X91997238Y-127354380D01*
X92092476Y-127402000D01*
X92140095Y-127449619D01*
X92187714Y-127544857D01*
X92187714Y-127592476D01*
X92140095Y-127687714D01*
X92092476Y-127735333D01*
X91997238Y-127782952D01*
X91806761Y-127782952D01*
X91711523Y-127830571D01*
X91663904Y-127878190D01*
X91616285Y-127973428D01*
X91616285Y-128163904D01*
X91663904Y-128259142D01*
X91711523Y-128306761D01*
X91806761Y-128354380D01*
X91997238Y-128354380D01*
X92092476Y-128306761D01*
X92140095Y-128259142D01*
X92187714Y-128163904D01*
X92187714Y-127973428D01*
X92140095Y-127878190D01*
X92092476Y-127830571D01*
X91997238Y-127782952D01*
X79075142Y-106923142D02*
X79027523Y-106970761D01*
X78884666Y-107018380D01*
X78789428Y-107018380D01*
X78646571Y-106970761D01*
X78551333Y-106875523D01*
X78503714Y-106780285D01*
X78456095Y-106589809D01*
X78456095Y-106446952D01*
X78503714Y-106256476D01*
X78551333Y-106161238D01*
X78646571Y-106066000D01*
X78789428Y-106018380D01*
X78884666Y-106018380D01*
X79027523Y-106066000D01*
X79075142Y-106113619D01*
X80027523Y-107018380D02*
X79456095Y-107018380D01*
X79741809Y-107018380D02*
X79741809Y-106018380D01*
X79646571Y-106161238D01*
X79551333Y-106256476D01*
X79456095Y-106304095D01*
X80408476Y-106113619D02*
X80456095Y-106066000D01*
X80551333Y-106018380D01*
X80789428Y-106018380D01*
X80884666Y-106066000D01*
X80932285Y-106113619D01*
X80979904Y-106208857D01*
X80979904Y-106304095D01*
X80932285Y-106446952D01*
X80360857Y-107018380D01*
X80979904Y-107018380D01*
X141273333Y-92452380D02*
X140940000Y-91976190D01*
X140701904Y-92452380D02*
X140701904Y-91452380D01*
X141082857Y-91452380D01*
X141178095Y-91500000D01*
X141225714Y-91547619D01*
X141273333Y-91642857D01*
X141273333Y-91785714D01*
X141225714Y-91880952D01*
X141178095Y-91928571D01*
X141082857Y-91976190D01*
X140701904Y-91976190D01*
X141606666Y-91452380D02*
X142273333Y-91452380D01*
X141844761Y-92452380D01*
X88666666Y-141952380D02*
X88666666Y-142666666D01*
X88619047Y-142809523D01*
X88523809Y-142904761D01*
X88380952Y-142952380D01*
X88285714Y-142952380D01*
X89142857Y-142952380D02*
X89142857Y-141952380D01*
X89523809Y-141952380D01*
X89619047Y-142000000D01*
X89666666Y-142047619D01*
X89714285Y-142142857D01*
X89714285Y-142285714D01*
X89666666Y-142380952D01*
X89619047Y-142428571D01*
X89523809Y-142476190D01*
X89142857Y-142476190D01*
X90666666Y-142952380D02*
X90095238Y-142952380D01*
X90380952Y-142952380D02*
X90380952Y-141952380D01*
X90285714Y-142095238D01*
X90190476Y-142190476D01*
X90095238Y-142238095D01*
X88952380Y-141733333D02*
X88952380Y-141114285D01*
X89333333Y-141447619D01*
X89333333Y-141304761D01*
X89380952Y-141209523D01*
X89428571Y-141161904D01*
X89523809Y-141114285D01*
X89761904Y-141114285D01*
X89857142Y-141161904D01*
X89904761Y-141209523D01*
X89952380Y-141304761D01*
X89952380Y-141590476D01*
X89904761Y-141685714D01*
X89857142Y-141733333D01*
X89852380Y-135314285D02*
X89852380Y-135885714D01*
X89852380Y-135600000D02*
X88852380Y-135600000D01*
X88995238Y-135695238D01*
X89090476Y-135790476D01*
X89138095Y-135885714D01*
X106357142Y-140038380D02*
X106023809Y-139562190D01*
X105785714Y-140038380D02*
X105785714Y-139038380D01*
X106166666Y-139038380D01*
X106261904Y-139086000D01*
X106309523Y-139133619D01*
X106357142Y-139228857D01*
X106357142Y-139371714D01*
X106309523Y-139466952D01*
X106261904Y-139514571D01*
X106166666Y-139562190D01*
X105785714Y-139562190D01*
X107309523Y-140038380D02*
X106738095Y-140038380D01*
X107023809Y-140038380D02*
X107023809Y-139038380D01*
X106928571Y-139181238D01*
X106833333Y-139276476D01*
X106738095Y-139324095D01*
X108261904Y-140038380D02*
X107690476Y-140038380D01*
X107976190Y-140038380D02*
X107976190Y-139038380D01*
X107880952Y-139181238D01*
X107785714Y-139276476D01*
X107690476Y-139324095D01*
X84631333Y-129275142D02*
X84583714Y-129322761D01*
X84440857Y-129370380D01*
X84345619Y-129370380D01*
X84202761Y-129322761D01*
X84107523Y-129227523D01*
X84059904Y-129132285D01*
X84012285Y-128941809D01*
X84012285Y-128798952D01*
X84059904Y-128608476D01*
X84107523Y-128513238D01*
X84202761Y-128418000D01*
X84345619Y-128370380D01*
X84440857Y-128370380D01*
X84583714Y-128418000D01*
X84631333Y-128465619D01*
X84964666Y-128370380D02*
X85631333Y-128370380D01*
X85202761Y-129370380D01*
X76761904Y-81110380D02*
X76761904Y-80110380D01*
X77000000Y-80110380D01*
X77142857Y-80158000D01*
X77238095Y-80253238D01*
X77285714Y-80348476D01*
X77333333Y-80538952D01*
X77333333Y-80681809D01*
X77285714Y-80872285D01*
X77238095Y-80967523D01*
X77142857Y-81062761D01*
X77000000Y-81110380D01*
X76761904Y-81110380D01*
X78238095Y-80110380D02*
X77761904Y-80110380D01*
X77714285Y-80586571D01*
X77761904Y-80538952D01*
X77857142Y-80491333D01*
X78095238Y-80491333D01*
X78190476Y-80538952D01*
X78238095Y-80586571D01*
X78285714Y-80681809D01*
X78285714Y-80919904D01*
X78238095Y-81015142D01*
X78190476Y-81062761D01*
X78095238Y-81110380D01*
X77857142Y-81110380D01*
X77761904Y-81062761D01*
X77714285Y-81015142D01*
X76738095Y-82634380D02*
X76738095Y-81634380D01*
X77309523Y-82634380D02*
X76880952Y-82062952D01*
X77309523Y-81634380D02*
X76738095Y-82205809D01*
D12*
X71992666Y-122126523D02*
X71992666Y-123033666D01*
X71932190Y-123215095D01*
X71811238Y-123336047D01*
X71629809Y-123396523D01*
X71508857Y-123396523D01*
X72536952Y-122247476D02*
X72597428Y-122187000D01*
X72718380Y-122126523D01*
X73020761Y-122126523D01*
X73141714Y-122187000D01*
X73202190Y-122247476D01*
X73262666Y-122368428D01*
X73262666Y-122489380D01*
X73202190Y-122670809D01*
X72476476Y-123396523D01*
X73262666Y-123396523D01*
D11*
X133748666Y-95096380D02*
X133748666Y-95810666D01*
X133701047Y-95953523D01*
X133605809Y-96048761D01*
X133462952Y-96096380D01*
X133367714Y-96096380D01*
X134224857Y-96096380D02*
X134224857Y-95096380D01*
X134605809Y-95096380D01*
X134701047Y-95144000D01*
X134748666Y-95191619D01*
X134796285Y-95286857D01*
X134796285Y-95429714D01*
X134748666Y-95524952D01*
X134701047Y-95572571D01*
X134605809Y-95620190D01*
X134224857Y-95620190D01*
X135653428Y-95429714D02*
X135653428Y-96096380D01*
X135415333Y-95048761D02*
X135177238Y-95763047D01*
X135796285Y-95763047D01*
X122001142Y-94223142D02*
X121953523Y-94270761D01*
X121810666Y-94318380D01*
X121715428Y-94318380D01*
X121572571Y-94270761D01*
X121477333Y-94175523D01*
X121429714Y-94080285D01*
X121382095Y-93889809D01*
X121382095Y-93746952D01*
X121429714Y-93556476D01*
X121477333Y-93461238D01*
X121572571Y-93366000D01*
X121715428Y-93318380D01*
X121810666Y-93318380D01*
X121953523Y-93366000D01*
X122001142Y-93413619D01*
X122953523Y-94318380D02*
X122382095Y-94318380D01*
X122667809Y-94318380D02*
X122667809Y-93318380D01*
X122572571Y-93461238D01*
X122477333Y-93556476D01*
X122382095Y-93604095D01*
X123286857Y-93318380D02*
X123905904Y-93318380D01*
X123572571Y-93699333D01*
X123715428Y-93699333D01*
X123810666Y-93746952D01*
X123858285Y-93794571D01*
X123905904Y-93889809D01*
X123905904Y-94127904D01*
X123858285Y-94223142D01*
X123810666Y-94270761D01*
X123715428Y-94318380D01*
X123429714Y-94318380D01*
X123334476Y-94270761D01*
X123286857Y-94223142D01*
X153884333Y-119984142D02*
X153836714Y-120031761D01*
X153693857Y-120079380D01*
X153598619Y-120079380D01*
X153455761Y-120031761D01*
X153360523Y-119936523D01*
X153312904Y-119841285D01*
X153265285Y-119650809D01*
X153265285Y-119507952D01*
X153312904Y-119317476D01*
X153360523Y-119222238D01*
X153455761Y-119127000D01*
X153598619Y-119079380D01*
X153693857Y-119079380D01*
X153836714Y-119127000D01*
X153884333Y-119174619D01*
X154741476Y-119412714D02*
X154741476Y-120079380D01*
X154503380Y-119031761D02*
X154265285Y-119746047D01*
X154884333Y-119746047D01*
X142166666Y-126952380D02*
X142166666Y-127666666D01*
X142119047Y-127809523D01*
X142023809Y-127904761D01*
X141880952Y-127952380D01*
X141785714Y-127952380D01*
X142642857Y-127952380D02*
X142642857Y-126952380D01*
X143023809Y-126952380D01*
X143119047Y-127000000D01*
X143166666Y-127047619D01*
X143214285Y-127142857D01*
X143214285Y-127285714D01*
X143166666Y-127380952D01*
X143119047Y-127428571D01*
X143023809Y-127476190D01*
X142642857Y-127476190D01*
X143547619Y-126952380D02*
X144214285Y-126952380D01*
X143785714Y-127952380D01*
X149785714Y-129452380D02*
X149214285Y-129452380D01*
X149500000Y-129452380D02*
X149500000Y-128452380D01*
X149404761Y-128595238D01*
X149309523Y-128690476D01*
X149214285Y-128738095D01*
X143666666Y-128452380D02*
X144285714Y-128452380D01*
X143952380Y-128833333D01*
X144095238Y-128833333D01*
X144190476Y-128880952D01*
X144238095Y-128928571D01*
X144285714Y-129023809D01*
X144285714Y-129261904D01*
X144238095Y-129357142D01*
X144190476Y-129404761D01*
X144095238Y-129452380D01*
X143809523Y-129452380D01*
X143714285Y-129404761D01*
X143666666Y-129357142D01*
X68366666Y-106452380D02*
X68366666Y-107166666D01*
X68319047Y-107309523D01*
X68223809Y-107404761D01*
X68080952Y-107452380D01*
X67985714Y-107452380D01*
X68842857Y-107452380D02*
X68842857Y-106452380D01*
X69223809Y-106452380D01*
X69319047Y-106500000D01*
X69366666Y-106547619D01*
X69414285Y-106642857D01*
X69414285Y-106785714D01*
X69366666Y-106880952D01*
X69319047Y-106928571D01*
X69223809Y-106976190D01*
X68842857Y-106976190D01*
X70271428Y-106452380D02*
X70080952Y-106452380D01*
X69985714Y-106500000D01*
X69938095Y-106547619D01*
X69842857Y-106690476D01*
X69795238Y-106880952D01*
X69795238Y-107261904D01*
X69842857Y-107357142D01*
X69890476Y-107404761D01*
X69985714Y-107452380D01*
X70176190Y-107452380D01*
X70271428Y-107404761D01*
X70319047Y-107357142D01*
X70366666Y-107261904D01*
X70366666Y-107023809D01*
X70319047Y-106928571D01*
X70271428Y-106880952D01*
X70176190Y-106833333D01*
X69985714Y-106833333D01*
X69890476Y-106880952D01*
X69842857Y-106928571D01*
X69795238Y-107023809D01*
X65685714Y-109452380D02*
X65114285Y-109452380D01*
X65400000Y-109452380D02*
X65400000Y-108452380D01*
X65304761Y-108595238D01*
X65209523Y-108690476D01*
X65114285Y-108738095D01*
X70666666Y-108452380D02*
X71285714Y-108452380D01*
X70952380Y-108833333D01*
X71095238Y-108833333D01*
X71190476Y-108880952D01*
X71238095Y-108928571D01*
X71285714Y-109023809D01*
X71285714Y-109261904D01*
X71238095Y-109357142D01*
X71190476Y-109404761D01*
X71095238Y-109452380D01*
X70809523Y-109452380D01*
X70714285Y-109404761D01*
X70666666Y-109357142D01*
X63644666Y-104462571D02*
X63311333Y-104462571D01*
X63311333Y-104986380D02*
X63311333Y-103986380D01*
X63787523Y-103986380D01*
X64501809Y-104462571D02*
X64644666Y-104510190D01*
X64692285Y-104557809D01*
X64739904Y-104653047D01*
X64739904Y-104795904D01*
X64692285Y-104891142D01*
X64644666Y-104938761D01*
X64549428Y-104986380D01*
X64168476Y-104986380D01*
X64168476Y-103986380D01*
X64501809Y-103986380D01*
X64597047Y-104034000D01*
X64644666Y-104081619D01*
X64692285Y-104176857D01*
X64692285Y-104272095D01*
X64644666Y-104367333D01*
X64597047Y-104414952D01*
X64501809Y-104462571D01*
X64168476Y-104462571D01*
X65644666Y-103986380D02*
X65168476Y-103986380D01*
X65120857Y-104462571D01*
X65168476Y-104414952D01*
X65263714Y-104367333D01*
X65501809Y-104367333D01*
X65597047Y-104414952D01*
X65644666Y-104462571D01*
X65692285Y-104557809D01*
X65692285Y-104795904D01*
X65644666Y-104891142D01*
X65597047Y-104938761D01*
X65501809Y-104986380D01*
X65263714Y-104986380D01*
X65168476Y-104938761D01*
X65120857Y-104891142D01*
X127335142Y-99398380D02*
X127001809Y-98922190D01*
X126763714Y-99398380D02*
X126763714Y-98398380D01*
X127144666Y-98398380D01*
X127239904Y-98446000D01*
X127287523Y-98493619D01*
X127335142Y-98588857D01*
X127335142Y-98731714D01*
X127287523Y-98826952D01*
X127239904Y-98874571D01*
X127144666Y-98922190D01*
X126763714Y-98922190D01*
X128287523Y-99398380D02*
X127716095Y-99398380D01*
X128001809Y-99398380D02*
X128001809Y-98398380D01*
X127906571Y-98541238D01*
X127811333Y-98636476D01*
X127716095Y-98684095D01*
X129192285Y-98398380D02*
X128716095Y-98398380D01*
X128668476Y-98874571D01*
X128716095Y-98826952D01*
X128811333Y-98779333D01*
X129049428Y-98779333D01*
X129144666Y-98826952D01*
X129192285Y-98874571D01*
X129239904Y-98969809D01*
X129239904Y-99207904D01*
X129192285Y-99303142D01*
X129144666Y-99350761D01*
X129049428Y-99398380D01*
X128811333Y-99398380D01*
X128716095Y-99350761D01*
X128668476Y-99303142D01*
X92695904Y-94826380D02*
X92695904Y-93826380D01*
X92934000Y-93826380D01*
X93076857Y-93874000D01*
X93172095Y-93969238D01*
X93219714Y-94064476D01*
X93267333Y-94254952D01*
X93267333Y-94397809D01*
X93219714Y-94588285D01*
X93172095Y-94683523D01*
X93076857Y-94778761D01*
X92934000Y-94826380D01*
X92695904Y-94826380D01*
X94124476Y-94159714D02*
X94124476Y-94826380D01*
X93886380Y-93778761D02*
X93648285Y-94493047D01*
X94267333Y-94493047D01*
X98506095Y-94826380D02*
X98506095Y-93826380D01*
X99077523Y-94826380D02*
X98648952Y-94254952D01*
X99077523Y-93826380D02*
X98506095Y-94397809D01*
X63136666Y-94428571D02*
X62803333Y-94428571D01*
X62803333Y-94952380D02*
X62803333Y-93952380D01*
X63279523Y-93952380D01*
X63993809Y-94428571D02*
X64136666Y-94476190D01*
X64184285Y-94523809D01*
X64231904Y-94619047D01*
X64231904Y-94761904D01*
X64184285Y-94857142D01*
X64136666Y-94904761D01*
X64041428Y-94952380D01*
X63660476Y-94952380D01*
X63660476Y-93952380D01*
X63993809Y-93952380D01*
X64089047Y-94000000D01*
X64136666Y-94047619D01*
X64184285Y-94142857D01*
X64184285Y-94238095D01*
X64136666Y-94333333D01*
X64089047Y-94380952D01*
X63993809Y-94428571D01*
X63660476Y-94428571D01*
X64803333Y-94380952D02*
X64708095Y-94333333D01*
X64660476Y-94285714D01*
X64612857Y-94190476D01*
X64612857Y-94142857D01*
X64660476Y-94047619D01*
X64708095Y-94000000D01*
X64803333Y-93952380D01*
X64993809Y-93952380D01*
X65089047Y-94000000D01*
X65136666Y-94047619D01*
X65184285Y-94142857D01*
X65184285Y-94190476D01*
X65136666Y-94285714D01*
X65089047Y-94333333D01*
X64993809Y-94380952D01*
X64803333Y-94380952D01*
X64708095Y-94428571D01*
X64660476Y-94476190D01*
X64612857Y-94571428D01*
X64612857Y-94761904D01*
X64660476Y-94857142D01*
X64708095Y-94904761D01*
X64803333Y-94952380D01*
X64993809Y-94952380D01*
X65089047Y-94904761D01*
X65136666Y-94857142D01*
X65184285Y-94761904D01*
X65184285Y-94571428D01*
X65136666Y-94476190D01*
X65089047Y-94428571D01*
X64993809Y-94380952D01*
X163149142Y-89746380D02*
X162815809Y-89270190D01*
X162577714Y-89746380D02*
X162577714Y-88746380D01*
X162958666Y-88746380D01*
X163053904Y-88794000D01*
X163101523Y-88841619D01*
X163149142Y-88936857D01*
X163149142Y-89079714D01*
X163101523Y-89174952D01*
X163053904Y-89222571D01*
X162958666Y-89270190D01*
X162577714Y-89270190D01*
X164101523Y-89746380D02*
X163530095Y-89746380D01*
X163815809Y-89746380D02*
X163815809Y-88746380D01*
X163720571Y-88889238D01*
X163625333Y-88984476D01*
X163530095Y-89032095D01*
X164720571Y-88746380D02*
X164815809Y-88746380D01*
X164911047Y-88794000D01*
X164958666Y-88841619D01*
X165006285Y-88936857D01*
X165053904Y-89127333D01*
X165053904Y-89365428D01*
X165006285Y-89555904D01*
X164958666Y-89651142D01*
X164911047Y-89698761D01*
X164815809Y-89746380D01*
X164720571Y-89746380D01*
X164625333Y-89698761D01*
X164577714Y-89651142D01*
X164530095Y-89555904D01*
X164482476Y-89365428D01*
X164482476Y-89127333D01*
X164530095Y-88936857D01*
X164577714Y-88841619D01*
X164625333Y-88794000D01*
X164720571Y-88746380D01*
X83757142Y-95357142D02*
X83709523Y-95404761D01*
X83566666Y-95452380D01*
X83471428Y-95452380D01*
X83328571Y-95404761D01*
X83233333Y-95309523D01*
X83185714Y-95214285D01*
X83138095Y-95023809D01*
X83138095Y-94880952D01*
X83185714Y-94690476D01*
X83233333Y-94595238D01*
X83328571Y-94500000D01*
X83471428Y-94452380D01*
X83566666Y-94452380D01*
X83709523Y-94500000D01*
X83757142Y-94547619D01*
X84709523Y-95452380D02*
X84138095Y-95452380D01*
X84423809Y-95452380D02*
X84423809Y-94452380D01*
X84328571Y-94595238D01*
X84233333Y-94690476D01*
X84138095Y-94738095D01*
X85661904Y-95452380D02*
X85090476Y-95452380D01*
X85376190Y-95452380D02*
X85376190Y-94452380D01*
X85280952Y-94595238D01*
X85185714Y-94690476D01*
X85090476Y-94738095D01*
X76249333Y-137498380D02*
X75916000Y-137022190D01*
X75677904Y-137498380D02*
X75677904Y-136498380D01*
X76058857Y-136498380D01*
X76154095Y-136546000D01*
X76201714Y-136593619D01*
X76249333Y-136688857D01*
X76249333Y-136831714D01*
X76201714Y-136926952D01*
X76154095Y-136974571D01*
X76058857Y-137022190D01*
X75677904Y-137022190D01*
X76582666Y-136498380D02*
X77201714Y-136498380D01*
X76868380Y-136879333D01*
X77011238Y-136879333D01*
X77106476Y-136926952D01*
X77154095Y-136974571D01*
X77201714Y-137069809D01*
X77201714Y-137307904D01*
X77154095Y-137403142D01*
X77106476Y-137450761D01*
X77011238Y-137498380D01*
X76725523Y-137498380D01*
X76630285Y-137450761D01*
X76582666Y-137403142D01*
X62914476Y-96928571D02*
X62581142Y-96928571D01*
X62581142Y-97452380D02*
X62581142Y-96452380D01*
X63057333Y-96452380D01*
X63771619Y-96928571D02*
X63914476Y-96976190D01*
X63962095Y-97023809D01*
X64009714Y-97119047D01*
X64009714Y-97261904D01*
X63962095Y-97357142D01*
X63914476Y-97404761D01*
X63819238Y-97452380D01*
X63438285Y-97452380D01*
X63438285Y-96452380D01*
X63771619Y-96452380D01*
X63866857Y-96500000D01*
X63914476Y-96547619D01*
X63962095Y-96642857D01*
X63962095Y-96738095D01*
X63914476Y-96833333D01*
X63866857Y-96880952D01*
X63771619Y-96928571D01*
X63438285Y-96928571D01*
X64962095Y-97452380D02*
X64390666Y-97452380D01*
X64676380Y-97452380D02*
X64676380Y-96452380D01*
X64581142Y-96595238D01*
X64485904Y-96690476D01*
X64390666Y-96738095D01*
X65581142Y-96452380D02*
X65676380Y-96452380D01*
X65771619Y-96500000D01*
X65819238Y-96547619D01*
X65866857Y-96642857D01*
X65914476Y-96833333D01*
X65914476Y-97071428D01*
X65866857Y-97261904D01*
X65819238Y-97357142D01*
X65771619Y-97404761D01*
X65676380Y-97452380D01*
X65581142Y-97452380D01*
X65485904Y-97404761D01*
X65438285Y-97357142D01*
X65390666Y-97261904D01*
X65343047Y-97071428D01*
X65343047Y-96833333D01*
X65390666Y-96642857D01*
X65438285Y-96547619D01*
X65485904Y-96500000D01*
X65581142Y-96452380D01*
X88727142Y-83357142D02*
X88679523Y-83404761D01*
X88536666Y-83452380D01*
X88441428Y-83452380D01*
X88298571Y-83404761D01*
X88203333Y-83309523D01*
X88155714Y-83214285D01*
X88108095Y-83023809D01*
X88108095Y-82880952D01*
X88155714Y-82690476D01*
X88203333Y-82595238D01*
X88298571Y-82500000D01*
X88441428Y-82452380D01*
X88536666Y-82452380D01*
X88679523Y-82500000D01*
X88727142Y-82547619D01*
X89108095Y-82547619D02*
X89155714Y-82500000D01*
X89250952Y-82452380D01*
X89489047Y-82452380D01*
X89584285Y-82500000D01*
X89631904Y-82547619D01*
X89679523Y-82642857D01*
X89679523Y-82738095D01*
X89631904Y-82880952D01*
X89060476Y-83452380D01*
X89679523Y-83452380D01*
X90060476Y-82547619D02*
X90108095Y-82500000D01*
X90203333Y-82452380D01*
X90441428Y-82452380D01*
X90536666Y-82500000D01*
X90584285Y-82547619D01*
X90631904Y-82642857D01*
X90631904Y-82738095D01*
X90584285Y-82880952D01*
X90012857Y-83452380D01*
X90631904Y-83452380D01*
X73757142Y-95157142D02*
X73709523Y-95204761D01*
X73566666Y-95252380D01*
X73471428Y-95252380D01*
X73328571Y-95204761D01*
X73233333Y-95109523D01*
X73185714Y-95014285D01*
X73138095Y-94823809D01*
X73138095Y-94680952D01*
X73185714Y-94490476D01*
X73233333Y-94395238D01*
X73328571Y-94300000D01*
X73471428Y-94252380D01*
X73566666Y-94252380D01*
X73709523Y-94300000D01*
X73757142Y-94347619D01*
X74709523Y-95252380D02*
X74138095Y-95252380D01*
X74423809Y-95252380D02*
X74423809Y-94252380D01*
X74328571Y-94395238D01*
X74233333Y-94490476D01*
X74138095Y-94538095D01*
X75185714Y-95252380D02*
X75376190Y-95252380D01*
X75471428Y-95204761D01*
X75519047Y-95157142D01*
X75614285Y-95014285D01*
X75661904Y-94823809D01*
X75661904Y-94442857D01*
X75614285Y-94347619D01*
X75566666Y-94300000D01*
X75471428Y-94252380D01*
X75280952Y-94252380D01*
X75185714Y-94300000D01*
X75138095Y-94347619D01*
X75090476Y-94442857D01*
X75090476Y-94680952D01*
X75138095Y-94776190D01*
X75185714Y-94823809D01*
X75280952Y-94871428D01*
X75471428Y-94871428D01*
X75566666Y-94823809D01*
X75614285Y-94776190D01*
X75661904Y-94680952D01*
X75169904Y-113478380D02*
X75169904Y-112478380D01*
X75408000Y-112478380D01*
X75550857Y-112526000D01*
X75646095Y-112621238D01*
X75693714Y-112716476D01*
X75741333Y-112906952D01*
X75741333Y-113049809D01*
X75693714Y-113240285D01*
X75646095Y-113335523D01*
X75550857Y-113430761D01*
X75408000Y-113478380D01*
X75169904Y-113478380D01*
X76074666Y-112478380D02*
X76693714Y-112478380D01*
X76360380Y-112859333D01*
X76503238Y-112859333D01*
X76598476Y-112906952D01*
X76646095Y-112954571D01*
X76693714Y-113049809D01*
X76693714Y-113287904D01*
X76646095Y-113383142D01*
X76598476Y-113430761D01*
X76503238Y-113478380D01*
X76217523Y-113478380D01*
X76122285Y-113430761D01*
X76074666Y-113383142D01*
X71938095Y-113452380D02*
X71938095Y-112452380D01*
X72509523Y-113452380D02*
X72080952Y-112880952D01*
X72509523Y-112452380D02*
X71938095Y-113023809D01*
X153719333Y-102097142D02*
X153671714Y-102144761D01*
X153528857Y-102192380D01*
X153433619Y-102192380D01*
X153290761Y-102144761D01*
X153195523Y-102049523D01*
X153147904Y-101954285D01*
X153100285Y-101763809D01*
X153100285Y-101620952D01*
X153147904Y-101430476D01*
X153195523Y-101335238D01*
X153290761Y-101240000D01*
X153433619Y-101192380D01*
X153528857Y-101192380D01*
X153671714Y-101240000D01*
X153719333Y-101287619D01*
X154576476Y-101192380D02*
X154386000Y-101192380D01*
X154290761Y-101240000D01*
X154243142Y-101287619D01*
X154147904Y-101430476D01*
X154100285Y-101620952D01*
X154100285Y-102001904D01*
X154147904Y-102097142D01*
X154195523Y-102144761D01*
X154290761Y-102192380D01*
X154481238Y-102192380D01*
X154576476Y-102144761D01*
X154624095Y-102097142D01*
X154671714Y-102001904D01*
X154671714Y-101763809D01*
X154624095Y-101668571D01*
X154576476Y-101620952D01*
X154481238Y-101573333D01*
X154290761Y-101573333D01*
X154195523Y-101620952D01*
X154147904Y-101668571D01*
X154100285Y-101763809D01*
X76249333Y-140292380D02*
X75916000Y-139816190D01*
X75677904Y-140292380D02*
X75677904Y-139292380D01*
X76058857Y-139292380D01*
X76154095Y-139340000D01*
X76201714Y-139387619D01*
X76249333Y-139482857D01*
X76249333Y-139625714D01*
X76201714Y-139720952D01*
X76154095Y-139768571D01*
X76058857Y-139816190D01*
X75677904Y-139816190D01*
X77106476Y-139625714D02*
X77106476Y-140292380D01*
X76868380Y-139244761D02*
X76630285Y-139959047D01*
X77249333Y-139959047D01*
X73857142Y-91683142D02*
X73809523Y-91730761D01*
X73666666Y-91778380D01*
X73571428Y-91778380D01*
X73428571Y-91730761D01*
X73333333Y-91635523D01*
X73285714Y-91540285D01*
X73238095Y-91349809D01*
X73238095Y-91206952D01*
X73285714Y-91016476D01*
X73333333Y-90921238D01*
X73428571Y-90826000D01*
X73571428Y-90778380D01*
X73666666Y-90778380D01*
X73809523Y-90826000D01*
X73857142Y-90873619D01*
X74809523Y-91778380D02*
X74238095Y-91778380D01*
X74523809Y-91778380D02*
X74523809Y-90778380D01*
X74428571Y-90921238D01*
X74333333Y-91016476D01*
X74238095Y-91064095D01*
X75714285Y-90778380D02*
X75238095Y-90778380D01*
X75190476Y-91254571D01*
X75238095Y-91206952D01*
X75333333Y-91159333D01*
X75571428Y-91159333D01*
X75666666Y-91206952D01*
X75714285Y-91254571D01*
X75761904Y-91349809D01*
X75761904Y-91587904D01*
X75714285Y-91683142D01*
X75666666Y-91730761D01*
X75571428Y-91778380D01*
X75333333Y-91778380D01*
X75238095Y-91730761D01*
X75190476Y-91683142D01*
X68661142Y-87619142D02*
X68613523Y-87666761D01*
X68470666Y-87714380D01*
X68375428Y-87714380D01*
X68232571Y-87666761D01*
X68137333Y-87571523D01*
X68089714Y-87476285D01*
X68042095Y-87285809D01*
X68042095Y-87142952D01*
X68089714Y-86952476D01*
X68137333Y-86857238D01*
X68232571Y-86762000D01*
X68375428Y-86714380D01*
X68470666Y-86714380D01*
X68613523Y-86762000D01*
X68661142Y-86809619D01*
X69042095Y-86809619D02*
X69089714Y-86762000D01*
X69184952Y-86714380D01*
X69423047Y-86714380D01*
X69518285Y-86762000D01*
X69565904Y-86809619D01*
X69613523Y-86904857D01*
X69613523Y-87000095D01*
X69565904Y-87142952D01*
X68994476Y-87714380D01*
X69613523Y-87714380D01*
X69946857Y-86714380D02*
X70565904Y-86714380D01*
X70232571Y-87095333D01*
X70375428Y-87095333D01*
X70470666Y-87142952D01*
X70518285Y-87190571D01*
X70565904Y-87285809D01*
X70565904Y-87523904D01*
X70518285Y-87619142D01*
X70470666Y-87666761D01*
X70375428Y-87714380D01*
X70089714Y-87714380D01*
X69994476Y-87666761D01*
X69946857Y-87619142D01*
X137166666Y-97452380D02*
X137166666Y-98166666D01*
X137119047Y-98309523D01*
X137023809Y-98404761D01*
X136880952Y-98452380D01*
X136785714Y-98452380D01*
X137642857Y-98452380D02*
X137642857Y-97452380D01*
X138023809Y-97452380D01*
X138119047Y-97500000D01*
X138166666Y-97547619D01*
X138214285Y-97642857D01*
X138214285Y-97785714D01*
X138166666Y-97880952D01*
X138119047Y-97928571D01*
X138023809Y-97976190D01*
X137642857Y-97976190D01*
X138595238Y-97547619D02*
X138642857Y-97500000D01*
X138738095Y-97452380D01*
X138976190Y-97452380D01*
X139071428Y-97500000D01*
X139119047Y-97547619D01*
X139166666Y-97642857D01*
X139166666Y-97738095D01*
X139119047Y-97880952D01*
X138547619Y-98452380D01*
X139166666Y-98452380D01*
X141252380Y-98114285D02*
X141252380Y-98685714D01*
X141252380Y-98400000D02*
X140252380Y-98400000D01*
X140395238Y-98495238D01*
X140490476Y-98590476D01*
X140538095Y-98685714D01*
X140204380Y-93377333D02*
X140204380Y-92758285D01*
X140585333Y-93091619D01*
X140585333Y-92948761D01*
X140632952Y-92853523D01*
X140680571Y-92805904D01*
X140775809Y-92758285D01*
X141013904Y-92758285D01*
X141109142Y-92805904D01*
X141156761Y-92853523D01*
X141204380Y-92948761D01*
X141204380Y-93234476D01*
X141156761Y-93329714D01*
X141109142Y-93377333D01*
X175061904Y-128652380D02*
X175061904Y-127652380D01*
X175300000Y-127652380D01*
X175442857Y-127700000D01*
X175538095Y-127795238D01*
X175585714Y-127890476D01*
X175633333Y-128080952D01*
X175633333Y-128223809D01*
X175585714Y-128414285D01*
X175538095Y-128509523D01*
X175442857Y-128604761D01*
X175300000Y-128652380D01*
X175061904Y-128652380D01*
X176014285Y-127747619D02*
X176061904Y-127700000D01*
X176157142Y-127652380D01*
X176395238Y-127652380D01*
X176490476Y-127700000D01*
X176538095Y-127747619D01*
X176585714Y-127842857D01*
X176585714Y-127938095D01*
X176538095Y-128080952D01*
X175966666Y-128652380D01*
X176585714Y-128652380D01*
X73957142Y-97957142D02*
X73909523Y-98004761D01*
X73766666Y-98052380D01*
X73671428Y-98052380D01*
X73528571Y-98004761D01*
X73433333Y-97909523D01*
X73385714Y-97814285D01*
X73338095Y-97623809D01*
X73338095Y-97480952D01*
X73385714Y-97290476D01*
X73433333Y-97195238D01*
X73528571Y-97100000D01*
X73671428Y-97052380D01*
X73766666Y-97052380D01*
X73909523Y-97100000D01*
X73957142Y-97147619D01*
X74338095Y-97147619D02*
X74385714Y-97100000D01*
X74480952Y-97052380D01*
X74719047Y-97052380D01*
X74814285Y-97100000D01*
X74861904Y-97147619D01*
X74909523Y-97242857D01*
X74909523Y-97338095D01*
X74861904Y-97480952D01*
X74290476Y-98052380D01*
X74909523Y-98052380D01*
X75861904Y-98052380D02*
X75290476Y-98052380D01*
X75576190Y-98052380D02*
X75576190Y-97052380D01*
X75480952Y-97195238D01*
X75385714Y-97290476D01*
X75290476Y-97338095D01*
X59833333Y-117582380D02*
X59500000Y-117106190D01*
X59261904Y-117582380D02*
X59261904Y-116582380D01*
X59642857Y-116582380D01*
X59738095Y-116630000D01*
X59785714Y-116677619D01*
X59833333Y-116772857D01*
X59833333Y-116915714D01*
X59785714Y-117010952D01*
X59738095Y-117058571D01*
X59642857Y-117106190D01*
X59261904Y-117106190D01*
X60785714Y-117582380D02*
X60214285Y-117582380D01*
X60500000Y-117582380D02*
X60500000Y-116582380D01*
X60404761Y-116725238D01*
X60309523Y-116820476D01*
X60214285Y-116868095D01*
X113420666Y-92048380D02*
X113420666Y-92762666D01*
X113373047Y-92905523D01*
X113277809Y-93000761D01*
X113134952Y-93048380D01*
X113039714Y-93048380D01*
X113801619Y-92048380D02*
X114420666Y-92048380D01*
X114087333Y-92429333D01*
X114230190Y-92429333D01*
X114325428Y-92476952D01*
X114373047Y-92524571D01*
X114420666Y-92619809D01*
X114420666Y-92857904D01*
X114373047Y-92953142D01*
X114325428Y-93000761D01*
X114230190Y-93048380D01*
X113944476Y-93048380D01*
X113849238Y-93000761D01*
X113801619Y-92953142D01*
X158452380Y-115511904D02*
X159261904Y-115511904D01*
X159357142Y-115464285D01*
X159404761Y-115416666D01*
X159452380Y-115321428D01*
X159452380Y-115130952D01*
X159404761Y-115035714D01*
X159357142Y-114988095D01*
X159261904Y-114940476D01*
X158452380Y-114940476D01*
X158452380Y-114035714D02*
X158452380Y-114226190D01*
X158500000Y-114321428D01*
X158547619Y-114369047D01*
X158690476Y-114464285D01*
X158880952Y-114511904D01*
X159261904Y-114511904D01*
X159357142Y-114464285D01*
X159404761Y-114416666D01*
X159452380Y-114321428D01*
X159452380Y-114130952D01*
X159404761Y-114035714D01*
X159357142Y-113988095D01*
X159261904Y-113940476D01*
X159023809Y-113940476D01*
X158928571Y-113988095D01*
X158880952Y-114035714D01*
X158833333Y-114130952D01*
X158833333Y-114321428D01*
X158880952Y-114416666D01*
X158928571Y-114464285D01*
X159023809Y-114511904D01*
X79075142Y-100827142D02*
X79027523Y-100874761D01*
X78884666Y-100922380D01*
X78789428Y-100922380D01*
X78646571Y-100874761D01*
X78551333Y-100779523D01*
X78503714Y-100684285D01*
X78456095Y-100493809D01*
X78456095Y-100350952D01*
X78503714Y-100160476D01*
X78551333Y-100065238D01*
X78646571Y-99970000D01*
X78789428Y-99922380D01*
X78884666Y-99922380D01*
X79027523Y-99970000D01*
X79075142Y-100017619D01*
X80027523Y-100922380D02*
X79456095Y-100922380D01*
X79741809Y-100922380D02*
X79741809Y-99922380D01*
X79646571Y-100065238D01*
X79551333Y-100160476D01*
X79456095Y-100208095D01*
X80884666Y-99922380D02*
X80694190Y-99922380D01*
X80598952Y-99970000D01*
X80551333Y-100017619D01*
X80456095Y-100160476D01*
X80408476Y-100350952D01*
X80408476Y-100731904D01*
X80456095Y-100827142D01*
X80503714Y-100874761D01*
X80598952Y-100922380D01*
X80789428Y-100922380D01*
X80884666Y-100874761D01*
X80932285Y-100827142D01*
X80979904Y-100731904D01*
X80979904Y-100493809D01*
X80932285Y-100398571D01*
X80884666Y-100350952D01*
X80789428Y-100303333D01*
X80598952Y-100303333D01*
X80503714Y-100350952D01*
X80456095Y-100398571D01*
X80408476Y-100493809D01*
X164166666Y-117273571D02*
X163833333Y-117273571D01*
X163833333Y-117797380D02*
X163833333Y-116797380D01*
X164309523Y-116797380D01*
X165023809Y-117273571D02*
X165166666Y-117321190D01*
X165214285Y-117368809D01*
X165261904Y-117464047D01*
X165261904Y-117606904D01*
X165214285Y-117702142D01*
X165166666Y-117749761D01*
X165071428Y-117797380D01*
X164690476Y-117797380D01*
X164690476Y-116797380D01*
X165023809Y-116797380D01*
X165119047Y-116845000D01*
X165166666Y-116892619D01*
X165214285Y-116987857D01*
X165214285Y-117083095D01*
X165166666Y-117178333D01*
X165119047Y-117225952D01*
X165023809Y-117273571D01*
X164690476Y-117273571D01*
X166214285Y-117797380D02*
X165642857Y-117797380D01*
X165928571Y-117797380D02*
X165928571Y-116797380D01*
X165833333Y-116940238D01*
X165738095Y-117035476D01*
X165642857Y-117083095D01*
X114192738Y-83452380D02*
X114764166Y-83452380D01*
X114478452Y-84452380D02*
X114478452Y-83452380D01*
X115097500Y-84452380D02*
X115097500Y-83452380D01*
X115478452Y-83452380D01*
X115573690Y-83500000D01*
X115621309Y-83547619D01*
X115668928Y-83642857D01*
X115668928Y-83785714D01*
X115621309Y-83880952D01*
X115573690Y-83928571D01*
X115478452Y-83976190D01*
X115097500Y-83976190D01*
X116621309Y-84452380D02*
X116049880Y-84452380D01*
X116335595Y-84452380D02*
X116335595Y-83452380D01*
X116240357Y-83595238D01*
X116145119Y-83690476D01*
X116049880Y-83738095D01*
X85857142Y-83357142D02*
X85809523Y-83404761D01*
X85666666Y-83452380D01*
X85571428Y-83452380D01*
X85428571Y-83404761D01*
X85333333Y-83309523D01*
X85285714Y-83214285D01*
X85238095Y-83023809D01*
X85238095Y-82880952D01*
X85285714Y-82690476D01*
X85333333Y-82595238D01*
X85428571Y-82500000D01*
X85571428Y-82452380D01*
X85666666Y-82452380D01*
X85809523Y-82500000D01*
X85857142Y-82547619D01*
X86809523Y-83452380D02*
X86238095Y-83452380D01*
X86523809Y-83452380D02*
X86523809Y-82452380D01*
X86428571Y-82595238D01*
X86333333Y-82690476D01*
X86238095Y-82738095D01*
X87666666Y-82785714D02*
X87666666Y-83452380D01*
X87428571Y-82404761D02*
X87190476Y-83119047D01*
X87809523Y-83119047D01*
X62914476Y-89428571D02*
X62581142Y-89428571D01*
X62581142Y-89952380D02*
X62581142Y-88952380D01*
X63057333Y-88952380D01*
X63771619Y-89428571D02*
X63914476Y-89476190D01*
X63962095Y-89523809D01*
X64009714Y-89619047D01*
X64009714Y-89761904D01*
X63962095Y-89857142D01*
X63914476Y-89904761D01*
X63819238Y-89952380D01*
X63438285Y-89952380D01*
X63438285Y-88952380D01*
X63771619Y-88952380D01*
X63866857Y-89000000D01*
X63914476Y-89047619D01*
X63962095Y-89142857D01*
X63962095Y-89238095D01*
X63914476Y-89333333D01*
X63866857Y-89380952D01*
X63771619Y-89428571D01*
X63438285Y-89428571D01*
X64962095Y-89952380D02*
X64390666Y-89952380D01*
X64676380Y-89952380D02*
X64676380Y-88952380D01*
X64581142Y-89095238D01*
X64485904Y-89190476D01*
X64390666Y-89238095D01*
X65914476Y-89952380D02*
X65343047Y-89952380D01*
X65628761Y-89952380D02*
X65628761Y-88952380D01*
X65533523Y-89095238D01*
X65438285Y-89190476D01*
X65343047Y-89238095D01*
X164166666Y-99636571D02*
X163833333Y-99636571D01*
X163833333Y-100160380D02*
X163833333Y-99160380D01*
X164309523Y-99160380D01*
X165023809Y-99636571D02*
X165166666Y-99684190D01*
X165214285Y-99731809D01*
X165261904Y-99827047D01*
X165261904Y-99969904D01*
X165214285Y-100065142D01*
X165166666Y-100112761D01*
X165071428Y-100160380D01*
X164690476Y-100160380D01*
X164690476Y-99160380D01*
X165023809Y-99160380D01*
X165119047Y-99208000D01*
X165166666Y-99255619D01*
X165214285Y-99350857D01*
X165214285Y-99446095D01*
X165166666Y-99541333D01*
X165119047Y-99588952D01*
X165023809Y-99636571D01*
X164690476Y-99636571D01*
X165595238Y-99160380D02*
X166214285Y-99160380D01*
X165880952Y-99541333D01*
X166023809Y-99541333D01*
X166119047Y-99588952D01*
X166166666Y-99636571D01*
X166214285Y-99731809D01*
X166214285Y-99969904D01*
X166166666Y-100065142D01*
X166119047Y-100112761D01*
X166023809Y-100160380D01*
X165738095Y-100160380D01*
X165642857Y-100112761D01*
X165595238Y-100065142D01*
X117666666Y-86952380D02*
X117666666Y-87666666D01*
X117619047Y-87809523D01*
X117523809Y-87904761D01*
X117380952Y-87952380D01*
X117285714Y-87952380D01*
X118142857Y-87952380D02*
X118142857Y-86952380D01*
X118523809Y-86952380D01*
X118619047Y-87000000D01*
X118666666Y-87047619D01*
X118714285Y-87142857D01*
X118714285Y-87285714D01*
X118666666Y-87380952D01*
X118619047Y-87428571D01*
X118523809Y-87476190D01*
X118142857Y-87476190D01*
X119619047Y-86952380D02*
X119142857Y-86952380D01*
X119095238Y-87428571D01*
X119142857Y-87380952D01*
X119238095Y-87333333D01*
X119476190Y-87333333D01*
X119571428Y-87380952D01*
X119619047Y-87428571D01*
X119666666Y-87523809D01*
X119666666Y-87761904D01*
X119619047Y-87857142D01*
X119571428Y-87904761D01*
X119476190Y-87952380D01*
X119238095Y-87952380D01*
X119142857Y-87904761D01*
X119095238Y-87857142D01*
X116085714Y-90000380D02*
X115514285Y-90000380D01*
X115800000Y-90000380D02*
X115800000Y-89000380D01*
X115704761Y-89143238D01*
X115609523Y-89238476D01*
X115514285Y-89286095D01*
X121066666Y-89000380D02*
X121685714Y-89000380D01*
X121352380Y-89381333D01*
X121495238Y-89381333D01*
X121590476Y-89428952D01*
X121638095Y-89476571D01*
X121685714Y-89571809D01*
X121685714Y-89809904D01*
X121638095Y-89905142D01*
X121590476Y-89952761D01*
X121495238Y-90000380D01*
X121209523Y-90000380D01*
X121114285Y-89952761D01*
X121066666Y-89905142D01*
X63382666Y-113384380D02*
X63382666Y-114098666D01*
X63335047Y-114241523D01*
X63239809Y-114336761D01*
X63096952Y-114384380D01*
X63001714Y-114384380D01*
X64287428Y-113717714D02*
X64287428Y-114384380D01*
X64049333Y-113336761D02*
X63811238Y-114051047D01*
X64430285Y-114051047D01*
D13*
X50944970Y-100321206D02*
X50464246Y-100321206D01*
X50464246Y-100206748D01*
X50487138Y-100138073D01*
X50532921Y-100092290D01*
X50578704Y-100069398D01*
X50670270Y-100046507D01*
X50738945Y-100046507D01*
X50830512Y-100069398D01*
X50876295Y-100092290D01*
X50922078Y-100138073D01*
X50944970Y-100206748D01*
X50944970Y-100321206D01*
X50693162Y-99680241D02*
X50716054Y-99611566D01*
X50738945Y-99588674D01*
X50784729Y-99565783D01*
X50853403Y-99565783D01*
X50899187Y-99588674D01*
X50922078Y-99611566D01*
X50944970Y-99657349D01*
X50944970Y-99840482D01*
X50464246Y-99840482D01*
X50464246Y-99680241D01*
X50487138Y-99634458D01*
X50510029Y-99611566D01*
X50555812Y-99588674D01*
X50601596Y-99588674D01*
X50647379Y-99611566D01*
X50670270Y-99634458D01*
X50693162Y-99680241D01*
X50693162Y-99840482D01*
X50944970Y-99336867D02*
X50944970Y-99245300D01*
X50922078Y-99199517D01*
X50899187Y-99176625D01*
X50830512Y-99130842D01*
X50738945Y-99107950D01*
X50555812Y-99107950D01*
X50510029Y-99130842D01*
X50487138Y-99153734D01*
X50464246Y-99199517D01*
X50464246Y-99291083D01*
X50487138Y-99336867D01*
X50510029Y-99359758D01*
X50555812Y-99382650D01*
X50670270Y-99382650D01*
X50716054Y-99359758D01*
X50738945Y-99336867D01*
X50761837Y-99291083D01*
X50761837Y-99199517D01*
X50738945Y-99153734D01*
X50716054Y-99130842D01*
X50670270Y-99107950D01*
X50693162Y-98741684D02*
X50693162Y-98901926D01*
X50944970Y-98901926D02*
X50464246Y-98901926D01*
X50464246Y-98673010D01*
D11*
X83647142Y-93207142D02*
X83599523Y-93254761D01*
X83456666Y-93302380D01*
X83361428Y-93302380D01*
X83218571Y-93254761D01*
X83123333Y-93159523D01*
X83075714Y-93064285D01*
X83028095Y-92873809D01*
X83028095Y-92730952D01*
X83075714Y-92540476D01*
X83123333Y-92445238D01*
X83218571Y-92350000D01*
X83361428Y-92302380D01*
X83456666Y-92302380D01*
X83599523Y-92350000D01*
X83647142Y-92397619D01*
X84599523Y-93302380D02*
X84028095Y-93302380D01*
X84313809Y-93302380D02*
X84313809Y-92302380D01*
X84218571Y-92445238D01*
X84123333Y-92540476D01*
X84028095Y-92588095D01*
X84932857Y-92302380D02*
X85599523Y-92302380D01*
X85170952Y-93302380D01*
X74217333Y-136133142D02*
X74169714Y-136180761D01*
X74026857Y-136228380D01*
X73931619Y-136228380D01*
X73788761Y-136180761D01*
X73693523Y-136085523D01*
X73645904Y-135990285D01*
X73598285Y-135799809D01*
X73598285Y-135656952D01*
X73645904Y-135466476D01*
X73693523Y-135371238D01*
X73788761Y-135276000D01*
X73931619Y-135228380D01*
X74026857Y-135228380D01*
X74169714Y-135276000D01*
X74217333Y-135323619D01*
X74598285Y-135323619D02*
X74645904Y-135276000D01*
X74741142Y-135228380D01*
X74979238Y-135228380D01*
X75074476Y-135276000D01*
X75122095Y-135323619D01*
X75169714Y-135418857D01*
X75169714Y-135514095D01*
X75122095Y-135656952D01*
X74550666Y-136228380D01*
X75169714Y-136228380D01*
X79075142Y-103875142D02*
X79027523Y-103922761D01*
X78884666Y-103970380D01*
X78789428Y-103970380D01*
X78646571Y-103922761D01*
X78551333Y-103827523D01*
X78503714Y-103732285D01*
X78456095Y-103541809D01*
X78456095Y-103398952D01*
X78503714Y-103208476D01*
X78551333Y-103113238D01*
X78646571Y-103018000D01*
X78789428Y-102970380D01*
X78884666Y-102970380D01*
X79027523Y-103018000D01*
X79075142Y-103065619D01*
X80027523Y-103970380D02*
X79456095Y-103970380D01*
X79741809Y-103970380D02*
X79741809Y-102970380D01*
X79646571Y-103113238D01*
X79551333Y-103208476D01*
X79456095Y-103256095D01*
X80598952Y-103398952D02*
X80503714Y-103351333D01*
X80456095Y-103303714D01*
X80408476Y-103208476D01*
X80408476Y-103160857D01*
X80456095Y-103065619D01*
X80503714Y-103018000D01*
X80598952Y-102970380D01*
X80789428Y-102970380D01*
X80884666Y-103018000D01*
X80932285Y-103065619D01*
X80979904Y-103160857D01*
X80979904Y-103208476D01*
X80932285Y-103303714D01*
X80884666Y-103351333D01*
X80789428Y-103398952D01*
X80598952Y-103398952D01*
X80503714Y-103446571D01*
X80456095Y-103494190D01*
X80408476Y-103589428D01*
X80408476Y-103779904D01*
X80456095Y-103875142D01*
X80503714Y-103922761D01*
X80598952Y-103970380D01*
X80789428Y-103970380D01*
X80884666Y-103922761D01*
X80932285Y-103875142D01*
X80979904Y-103779904D01*
X80979904Y-103589428D01*
X80932285Y-103494190D01*
X80884666Y-103446571D01*
X80789428Y-103398952D01*
X164166666Y-107764571D02*
X163833333Y-107764571D01*
X163833333Y-108288380D02*
X163833333Y-107288380D01*
X164309523Y-107288380D01*
X165023809Y-107764571D02*
X165166666Y-107812190D01*
X165214285Y-107859809D01*
X165261904Y-107955047D01*
X165261904Y-108097904D01*
X165214285Y-108193142D01*
X165166666Y-108240761D01*
X165071428Y-108288380D01*
X164690476Y-108288380D01*
X164690476Y-107288380D01*
X165023809Y-107288380D01*
X165119047Y-107336000D01*
X165166666Y-107383619D01*
X165214285Y-107478857D01*
X165214285Y-107574095D01*
X165166666Y-107669333D01*
X165119047Y-107716952D01*
X165023809Y-107764571D01*
X164690476Y-107764571D01*
X166119047Y-107621714D02*
X166119047Y-108288380D01*
X165880952Y-107240761D02*
X165642857Y-107955047D01*
X166261904Y-107955047D01*
X123726666Y-86968380D02*
X123726666Y-87682666D01*
X123679047Y-87825523D01*
X123583809Y-87920761D01*
X123440952Y-87968380D01*
X123345714Y-87968380D01*
X124202857Y-87968380D02*
X124202857Y-86968380D01*
X124583809Y-86968380D01*
X124679047Y-87016000D01*
X124726666Y-87063619D01*
X124774285Y-87158857D01*
X124774285Y-87301714D01*
X124726666Y-87396952D01*
X124679047Y-87444571D01*
X124583809Y-87492190D01*
X124202857Y-87492190D01*
X125107619Y-86968380D02*
X125726666Y-86968380D01*
X125393333Y-87349333D01*
X125536190Y-87349333D01*
X125631428Y-87396952D01*
X125679047Y-87444571D01*
X125726666Y-87539809D01*
X125726666Y-87777904D01*
X125679047Y-87873142D01*
X125631428Y-87920761D01*
X125536190Y-87968380D01*
X125250476Y-87968380D01*
X125155238Y-87920761D01*
X125107619Y-87873142D01*
X105237142Y-94742380D02*
X104903809Y-94266190D01*
X104665714Y-94742380D02*
X104665714Y-93742380D01*
X105046666Y-93742380D01*
X105141904Y-93790000D01*
X105189523Y-93837619D01*
X105237142Y-93932857D01*
X105237142Y-94075714D01*
X105189523Y-94170952D01*
X105141904Y-94218571D01*
X105046666Y-94266190D01*
X104665714Y-94266190D01*
X106189523Y-94742380D02*
X105618095Y-94742380D01*
X105903809Y-94742380D02*
X105903809Y-93742380D01*
X105808571Y-93885238D01*
X105713333Y-93980476D01*
X105618095Y-94028095D01*
X106665714Y-94742380D02*
X106856190Y-94742380D01*
X106951428Y-94694761D01*
X106999047Y-94647142D01*
X107094285Y-94504285D01*
X107141904Y-94313809D01*
X107141904Y-93932857D01*
X107094285Y-93837619D01*
X107046666Y-93790000D01*
X106951428Y-93742380D01*
X106760952Y-93742380D01*
X106665714Y-93790000D01*
X106618095Y-93837619D01*
X106570476Y-93932857D01*
X106570476Y-94170952D01*
X106618095Y-94266190D01*
X106665714Y-94313809D01*
X106760952Y-94361428D01*
X106951428Y-94361428D01*
X107046666Y-94313809D01*
X107094285Y-94266190D01*
X107141904Y-94170952D01*
X165666666Y-124928571D02*
X165333333Y-124928571D01*
X165333333Y-125452380D02*
X165333333Y-124452380D01*
X165809523Y-124452380D01*
X166523809Y-124928571D02*
X166666666Y-124976190D01*
X166714285Y-125023809D01*
X166761904Y-125119047D01*
X166761904Y-125261904D01*
X166714285Y-125357142D01*
X166666666Y-125404761D01*
X166571428Y-125452380D01*
X166190476Y-125452380D01*
X166190476Y-124452380D01*
X166523809Y-124452380D01*
X166619047Y-124500000D01*
X166666666Y-124547619D01*
X166714285Y-124642857D01*
X166714285Y-124738095D01*
X166666666Y-124833333D01*
X166619047Y-124880952D01*
X166523809Y-124928571D01*
X166190476Y-124928571D01*
X167142857Y-124547619D02*
X167190476Y-124500000D01*
X167285714Y-124452380D01*
X167523809Y-124452380D01*
X167619047Y-124500000D01*
X167666666Y-124547619D01*
X167714285Y-124642857D01*
X167714285Y-124738095D01*
X167666666Y-124880952D01*
X167095238Y-125452380D01*
X167714285Y-125452380D01*
X114376734Y-134407142D02*
X114329115Y-134454761D01*
X114186258Y-134502380D01*
X114091020Y-134502380D01*
X113948162Y-134454761D01*
X113852924Y-134359523D01*
X113805305Y-134264285D01*
X113757686Y-134073809D01*
X113757686Y-133930952D01*
X113805305Y-133740476D01*
X113852924Y-133645238D01*
X113948162Y-133550000D01*
X114091020Y-133502380D01*
X114186258Y-133502380D01*
X114329115Y-133550000D01*
X114376734Y-133597619D01*
X114852924Y-134502380D02*
X115043401Y-134502380D01*
X115138639Y-134454761D01*
X115186258Y-134407142D01*
X115281496Y-134264285D01*
X115329115Y-134073809D01*
X115329115Y-133692857D01*
X115281496Y-133597619D01*
X115233877Y-133550000D01*
X115138639Y-133502380D01*
X114948162Y-133502380D01*
X114852924Y-133550000D01*
X114805305Y-133597619D01*
X114757686Y-133692857D01*
X114757686Y-133930952D01*
X114805305Y-134026190D01*
X114852924Y-134073809D01*
X114948162Y-134121428D01*
X115138639Y-134121428D01*
X115233877Y-134073809D01*
X115281496Y-134026190D01*
X115329115Y-133930952D01*
X155166666Y-128452380D02*
X155166666Y-129166666D01*
X155119047Y-129309523D01*
X155023809Y-129404761D01*
X154880952Y-129452380D01*
X154785714Y-129452380D01*
X155642857Y-129452380D02*
X155642857Y-128452380D01*
X156023809Y-128452380D01*
X156119047Y-128500000D01*
X156166666Y-128547619D01*
X156214285Y-128642857D01*
X156214285Y-128785714D01*
X156166666Y-128880952D01*
X156119047Y-128928571D01*
X156023809Y-128976190D01*
X155642857Y-128976190D01*
X156785714Y-128880952D02*
X156690476Y-128833333D01*
X156642857Y-128785714D01*
X156595238Y-128690476D01*
X156595238Y-128642857D01*
X156642857Y-128547619D01*
X156690476Y-128500000D01*
X156785714Y-128452380D01*
X156976190Y-128452380D01*
X157071428Y-128500000D01*
X157119047Y-128547619D01*
X157166666Y-128642857D01*
X157166666Y-128690476D01*
X157119047Y-128785714D01*
X157071428Y-128833333D01*
X156976190Y-128880952D01*
X156785714Y-128880952D01*
X156690476Y-128928571D01*
X156642857Y-128976190D01*
X156595238Y-129071428D01*
X156595238Y-129261904D01*
X156642857Y-129357142D01*
X156690476Y-129404761D01*
X156785714Y-129452380D01*
X156976190Y-129452380D01*
X157071428Y-129404761D01*
X157119047Y-129357142D01*
X157166666Y-129261904D01*
X157166666Y-129071428D01*
X157119047Y-128976190D01*
X157071428Y-128928571D01*
X156976190Y-128880952D01*
X149266666Y-126452380D02*
X149885714Y-126452380D01*
X149552380Y-126833333D01*
X149695238Y-126833333D01*
X149790476Y-126880952D01*
X149838095Y-126928571D01*
X149885714Y-127023809D01*
X149885714Y-127261904D01*
X149838095Y-127357142D01*
X149790476Y-127404761D01*
X149695238Y-127452380D01*
X149409523Y-127452380D01*
X149314285Y-127404761D01*
X149266666Y-127357142D01*
X155285714Y-127452380D02*
X154714285Y-127452380D01*
X155000000Y-127452380D02*
X155000000Y-126452380D01*
X154904761Y-126595238D01*
X154809523Y-126690476D01*
X154714285Y-126738095D01*
X163117333Y-93048380D02*
X162784000Y-92572190D01*
X162545904Y-93048380D02*
X162545904Y-92048380D01*
X162926857Y-92048380D01*
X163022095Y-92096000D01*
X163069714Y-92143619D01*
X163117333Y-92238857D01*
X163117333Y-92381714D01*
X163069714Y-92476952D01*
X163022095Y-92524571D01*
X162926857Y-92572190D01*
X162545904Y-92572190D01*
X163688761Y-92476952D02*
X163593523Y-92429333D01*
X163545904Y-92381714D01*
X163498285Y-92286476D01*
X163498285Y-92238857D01*
X163545904Y-92143619D01*
X163593523Y-92096000D01*
X163688761Y-92048380D01*
X163879238Y-92048380D01*
X163974476Y-92096000D01*
X164022095Y-92143619D01*
X164069714Y-92238857D01*
X164069714Y-92286476D01*
X164022095Y-92381714D01*
X163974476Y-92429333D01*
X163879238Y-92476952D01*
X163688761Y-92476952D01*
X163593523Y-92524571D01*
X163545904Y-92572190D01*
X163498285Y-92667428D01*
X163498285Y-92857904D01*
X163545904Y-92953142D01*
X163593523Y-93000761D01*
X163688761Y-93048380D01*
X163879238Y-93048380D01*
X163974476Y-93000761D01*
X164022095Y-92953142D01*
X164069714Y-92857904D01*
X164069714Y-92667428D01*
X164022095Y-92572190D01*
X163974476Y-92524571D01*
X163879238Y-92476952D01*
X158712095Y-134466380D02*
X158712095Y-135275904D01*
X158759714Y-135371142D01*
X158807333Y-135418761D01*
X158902571Y-135466380D01*
X159093047Y-135466380D01*
X159188285Y-135418761D01*
X159235904Y-135371142D01*
X159283523Y-135275904D01*
X159283523Y-134466380D01*
X160188285Y-134799714D02*
X160188285Y-135466380D01*
X159950190Y-134418761D02*
X159712095Y-135133047D01*
X160331142Y-135133047D01*
D14*
X99180000Y-141040000D02*
X99180000Y-130760000D01*
X93880000Y-141040000D02*
X99180000Y-141040000D01*
X99180000Y-130760000D02*
X97530000Y-130760000D01*
X95530000Y-130760000D02*
X93880000Y-130760000D01*
X93880000Y-130760000D02*
X93880000Y-141040000D01*
X95530000Y-130760000D02*
G75*
G03*
X97530000Y-130760000I1000000J0D01*
G01*
X160712000Y-97014000D02*
X154172000Y-97014000D01*
X154172000Y-97014000D02*
X154172000Y-96684000D01*
X160712000Y-96684000D02*
X160712000Y-97014000D01*
X160712000Y-94604000D02*
X160712000Y-94274000D01*
X160712000Y-94274000D02*
X154172000Y-94274000D01*
X154172000Y-94274000D02*
X154172000Y-94604000D01*
X163506000Y-127672000D02*
X163506000Y-128002000D01*
X163506000Y-128002000D02*
X156966000Y-128002000D01*
X156966000Y-128002000D02*
X156966000Y-127672000D01*
X156966000Y-125262000D02*
X156966000Y-125592000D01*
X163506000Y-125592000D02*
X163506000Y-125262000D01*
X163506000Y-125262000D02*
X156966000Y-125262000D01*
X150712000Y-94274000D02*
X144172000Y-94274000D01*
X144172000Y-94274000D02*
X144172000Y-94604000D01*
X150712000Y-94604000D02*
X150712000Y-94274000D01*
X144172000Y-97014000D02*
X144172000Y-96684000D01*
X150712000Y-97014000D02*
X144172000Y-97014000D01*
X150712000Y-96684000D02*
X150712000Y-97014000D01*
D15*
X68288000Y-102700000D02*
X68288000Y-101300000D01*
D14*
X103230000Y-133055000D02*
X103230000Y-133070000D01*
X103230000Y-130930000D02*
X107770000Y-130930000D01*
X103230000Y-130930000D02*
X103230000Y-130945000D01*
X107770000Y-133055000D02*
X107770000Y-133070000D01*
X107770000Y-130930000D02*
X107770000Y-130945000D01*
X103230000Y-133070000D02*
X107770000Y-133070000D01*
X130190000Y-96352000D02*
X130520000Y-96352000D01*
X132930000Y-89812000D02*
X132930000Y-96352000D01*
X130520000Y-89812000D02*
X130190000Y-89812000D01*
X132930000Y-96352000D02*
X132600000Y-96352000D01*
X130190000Y-89812000D02*
X130190000Y-96352000D01*
X132600000Y-89812000D02*
X132930000Y-89812000D01*
X160652000Y-84854000D02*
X160652000Y-84524000D01*
X160652000Y-84524000D02*
X154112000Y-84524000D01*
X160652000Y-86934000D02*
X160652000Y-87264000D01*
X154112000Y-87264000D02*
X154112000Y-86934000D01*
X160652000Y-87264000D02*
X154112000Y-87264000D01*
X154112000Y-84524000D02*
X154112000Y-84854000D01*
X161205000Y-106920000D02*
X155965000Y-106920000D01*
X155965000Y-104495000D02*
X155965000Y-104180000D01*
X155965000Y-106920000D02*
X155965000Y-106605000D01*
X161205000Y-104180000D02*
X155965000Y-104180000D01*
X161205000Y-106920000D02*
X161205000Y-106605000D01*
X161205000Y-104495000D02*
X161205000Y-104180000D01*
X150712000Y-90184000D02*
X150712000Y-90514000D01*
X150712000Y-87774000D02*
X144172000Y-87774000D01*
X150712000Y-90514000D02*
X144172000Y-90514000D01*
X144172000Y-87774000D02*
X144172000Y-88104000D01*
X150712000Y-88104000D02*
X150712000Y-87774000D01*
X144172000Y-90514000D02*
X144172000Y-90184000D01*
X161370000Y-121640000D02*
X161370000Y-121325000D01*
X156130000Y-124065000D02*
X156130000Y-123750000D01*
X161370000Y-121325000D02*
X156130000Y-121325000D01*
X161370000Y-124065000D02*
X156130000Y-124065000D01*
X156130000Y-121640000D02*
X156130000Y-121325000D01*
X161370000Y-124065000D02*
X161370000Y-123750000D01*
X144835000Y-125785000D02*
X143505000Y-125785000D01*
X142175000Y-123185000D02*
X142175000Y-100265000D01*
X151675000Y-123185000D02*
X151675000Y-100265000D01*
X144835000Y-125785000D02*
X151675000Y-125785000D01*
X151675000Y-125785000D02*
X151675000Y-123185000D01*
X144835000Y-124455000D02*
X144835000Y-125785000D01*
X144835000Y-123185000D02*
X142175000Y-123185000D01*
X144835000Y-123185000D02*
X144835000Y-100265000D01*
X151675000Y-100265000D02*
X142175000Y-100265000D01*
D15*
X68288000Y-100200000D02*
X68288000Y-98800000D01*
D14*
X82773000Y-87917888D02*
X82028000Y-87917888D01*
X79948000Y-86516888D02*
X78452000Y-86516888D01*
X79948000Y-86636888D02*
X78477000Y-86636888D01*
X83468000Y-86757888D02*
X82028000Y-86757888D01*
X79948000Y-86116888D02*
X78409000Y-86116888D01*
X79948000Y-87917888D02*
X79203000Y-87917888D01*
X79948000Y-87997888D02*
X79289000Y-87997888D01*
X82542000Y-88117888D02*
X79434000Y-88117888D01*
X79948000Y-87957888D02*
X79245000Y-87957888D01*
X79948000Y-86436888D02*
X78438000Y-86436888D01*
X83538000Y-86436888D02*
X82028000Y-86436888D01*
X82086000Y-88397888D02*
X79890000Y-88397888D01*
X81506000Y-88597888D02*
X80470000Y-88597888D01*
X79948000Y-86837888D02*
X78533000Y-86837888D01*
X83110000Y-87517888D02*
X82028000Y-87517888D01*
X82239000Y-88317888D02*
X79737000Y-88317888D01*
X79948000Y-87077888D02*
X78623000Y-87077888D01*
X82687000Y-87997888D02*
X82028000Y-87997888D01*
X79948000Y-87837888D02*
X79124000Y-87837888D01*
X82371000Y-88237888D02*
X79605000Y-88237888D01*
X83544000Y-86396888D02*
X82028000Y-86396888D01*
X83416000Y-86917888D02*
X82028000Y-86917888D01*
X83336000Y-87117888D02*
X82028000Y-87117888D01*
X82166000Y-88357888D02*
X79810000Y-88357888D01*
X82731000Y-87957888D02*
X82028000Y-87957888D01*
X79948000Y-87877888D02*
X79162000Y-87877888D01*
X79948000Y-87357888D02*
X78764000Y-87357888D01*
X82713000Y-83482113D02*
X82213000Y-83482113D01*
X83137000Y-87477888D02*
X82028000Y-87477888D01*
X83561000Y-86236888D02*
X82028000Y-86236888D01*
X83278000Y-87237888D02*
X82028000Y-87237888D01*
X79948000Y-86356888D02*
X78427000Y-86356888D01*
X83256000Y-87277888D02*
X82028000Y-87277888D01*
X83531000Y-86476888D02*
X82028000Y-86476888D01*
X79948000Y-86036888D02*
X78408000Y-86036888D01*
X79948000Y-87717888D02*
X79017000Y-87717888D01*
X79948000Y-86757888D02*
X78508000Y-86757888D01*
X79948000Y-86716888D02*
X78497000Y-86716888D01*
X82992000Y-87677888D02*
X82028000Y-87677888D01*
X79948000Y-87477888D02*
X78839000Y-87477888D01*
X79948000Y-86556888D02*
X78460000Y-86556888D01*
X79948000Y-87277888D02*
X78720000Y-87277888D01*
X83568000Y-86076888D02*
X82028000Y-86076888D01*
X79948000Y-86476888D02*
X78445000Y-86476888D01*
X83163000Y-87437888D02*
X82028000Y-87437888D01*
X81272000Y-88637888D02*
X80704000Y-88637888D01*
X79948000Y-87397888D02*
X78788000Y-87397888D01*
X82959000Y-87717888D02*
X82028000Y-87717888D01*
X83524000Y-86516888D02*
X82028000Y-86516888D01*
X82641000Y-88037888D02*
X82028000Y-88037888D01*
X79948000Y-86957888D02*
X78574000Y-86957888D01*
X79948000Y-86236888D02*
X78415000Y-86236888D01*
X79948000Y-87317888D02*
X78741000Y-87317888D01*
X83557000Y-86276888D02*
X82028000Y-86276888D01*
X79948000Y-86076888D02*
X78408000Y-86076888D01*
X83212000Y-87357888D02*
X82028000Y-87357888D01*
X79948000Y-87797888D02*
X79087000Y-87797888D01*
X83023000Y-87637888D02*
X82028000Y-87637888D01*
X81999000Y-88437888D02*
X79977000Y-88437888D01*
X83479000Y-86716888D02*
X82028000Y-86716888D01*
X83386000Y-86997888D02*
X82028000Y-86997888D01*
X79948000Y-86396888D02*
X78432000Y-86396888D01*
X83508000Y-86596888D02*
X82028000Y-86596888D01*
X83402000Y-86957888D02*
X82028000Y-86957888D01*
X82431000Y-88197888D02*
X79545000Y-88197888D01*
X83298000Y-87197888D02*
X82028000Y-87197888D01*
X79948000Y-86797888D02*
X78520000Y-86797888D01*
X79948000Y-87237888D02*
X78698000Y-87237888D01*
X79948000Y-87037888D02*
X78606000Y-87037888D01*
X79948000Y-86596888D02*
X78468000Y-86596888D01*
X83489000Y-86676888D02*
X82028000Y-86676888D01*
X79948000Y-86676888D02*
X78487000Y-86676888D01*
X82852000Y-87837888D02*
X82028000Y-87837888D01*
X82593000Y-88077888D02*
X79383000Y-88077888D01*
X83443000Y-86837888D02*
X82028000Y-86837888D01*
X82814000Y-87877888D02*
X82028000Y-87877888D01*
X81793000Y-88517888D02*
X80183000Y-88517888D01*
X79948000Y-88037888D02*
X79335000Y-88037888D01*
X83568000Y-86036888D02*
X82028000Y-86036888D01*
X82307000Y-88277888D02*
X79669000Y-88277888D01*
X83516000Y-86556888D02*
X82028000Y-86556888D01*
X83456000Y-86797888D02*
X82028000Y-86797888D01*
X83188000Y-87397888D02*
X82028000Y-87397888D01*
X82925000Y-87757888D02*
X82028000Y-87757888D01*
X83567000Y-86116888D02*
X82028000Y-86116888D01*
X79948000Y-87517888D02*
X78866000Y-87517888D01*
X83370000Y-87037888D02*
X82028000Y-87037888D01*
X79948000Y-86877888D02*
X78546000Y-86877888D01*
X83564000Y-86196888D02*
X82028000Y-86196888D01*
X79948000Y-87637888D02*
X78953000Y-87637888D01*
X79948000Y-87197888D02*
X78678000Y-87197888D01*
X79948000Y-86316888D02*
X78423000Y-86316888D01*
X82889000Y-87797888D02*
X82028000Y-87797888D01*
X79948000Y-87157888D02*
X78659000Y-87157888D01*
X81665000Y-88557888D02*
X80311000Y-88557888D01*
X79948000Y-86276888D02*
X78419000Y-86276888D01*
X79948000Y-87677888D02*
X78984000Y-87677888D01*
X83083000Y-87557888D02*
X82028000Y-87557888D01*
X79948000Y-86196888D02*
X78412000Y-86196888D01*
X79948000Y-87437888D02*
X78813000Y-87437888D01*
X83235000Y-87317888D02*
X82028000Y-87317888D01*
X81903000Y-88477888D02*
X80073000Y-88477888D01*
X83499000Y-86636888D02*
X82028000Y-86636888D01*
X79948000Y-86156888D02*
X78410000Y-86156888D01*
X83553000Y-86316888D02*
X82028000Y-86316888D01*
X83317000Y-87157888D02*
X82028000Y-87157888D01*
X83353000Y-87077888D02*
X82028000Y-87077888D01*
X83430000Y-86877888D02*
X82028000Y-86877888D01*
X79948000Y-87557888D02*
X78893000Y-87557888D01*
X83053000Y-87597888D02*
X82028000Y-87597888D01*
X79948000Y-86997888D02*
X78590000Y-86997888D01*
X79948000Y-87117888D02*
X78640000Y-87117888D01*
X83549000Y-86356888D02*
X82028000Y-86356888D01*
X79948000Y-87757888D02*
X79051000Y-87757888D01*
X83566000Y-86156888D02*
X82028000Y-86156888D01*
X79948000Y-86917888D02*
X78560000Y-86917888D01*
X82463000Y-83232113D02*
X82463000Y-83732113D01*
X82488000Y-88157888D02*
X79488000Y-88157888D01*
X79948000Y-87597888D02*
X78923000Y-87597888D01*
X83608000Y-86036888D02*
G75*
G03*
X83608000Y-86036888I-2620000J0D01*
G01*
X111300000Y-88300000D02*
X113700000Y-88300000D01*
X113700000Y-90700000D02*
X111300000Y-90700000D01*
X113700000Y-88300000D02*
X113700000Y-90700000D01*
X111300000Y-90700000D02*
X111300000Y-88300000D01*
X65810000Y-84722000D02*
X66580000Y-84722000D01*
X73120000Y-83352000D02*
X66580000Y-83352000D01*
X73120000Y-86092000D02*
X73120000Y-83352000D01*
X66580000Y-83352000D02*
X66580000Y-86092000D01*
X73890000Y-84722000D02*
X73120000Y-84722000D01*
X66580000Y-86092000D02*
X73120000Y-86092000D01*
D16*
X99970000Y-93266000D02*
X99970000Y-81666000D01*
X91470000Y-81666000D02*
X91470000Y-93266000D01*
X99970000Y-81666000D02*
X91470000Y-81666000D01*
X91470000Y-93266000D02*
X99970000Y-93266000D01*
D15*
X93570000Y-81116000D02*
G75*
G03*
X93570000Y-81116000I-100000J0D01*
G01*
D14*
X128518000Y-87362000D02*
X128518000Y-87032000D01*
X128518000Y-84622000D02*
X128518000Y-84952000D01*
X135058000Y-87032000D02*
X135058000Y-87362000D01*
X135058000Y-84952000D02*
X135058000Y-84622000D01*
X135058000Y-87362000D02*
X128518000Y-87362000D01*
X135058000Y-84622000D02*
X128518000Y-84622000D01*
X144112000Y-84524000D02*
X144112000Y-84854000D01*
X150652000Y-84854000D02*
X150652000Y-84524000D01*
X150652000Y-86934000D02*
X150652000Y-87264000D01*
X150652000Y-87264000D02*
X144112000Y-87264000D01*
X144112000Y-87264000D02*
X144112000Y-86934000D01*
X150652000Y-84524000D02*
X144112000Y-84524000D01*
D16*
X175250000Y-100872500D02*
X181750000Y-100872500D01*
X181750000Y-100872500D02*
X181750000Y-126732500D01*
X181750000Y-126732500D02*
X175250000Y-126732500D01*
X175250000Y-126732500D02*
X175250000Y-100872500D01*
D17*
X178750000Y-99832500D02*
G75*
G03*
X178750000Y-99832500I-250000J0D01*
G01*
D14*
X177545000Y-92855000D02*
X177415000Y-92855000D01*
X177415000Y-92855000D02*
X177545000Y-92855000D01*
X177545000Y-95395000D02*
X177415000Y-95395000D01*
X177545000Y-92855000D02*
X177545000Y-92855000D01*
X177545000Y-96685000D02*
X183705000Y-96685000D01*
X177545000Y-95395000D02*
X177545000Y-95395000D01*
X177415000Y-95395000D02*
X177545000Y-95395000D01*
X177545000Y-91165000D02*
X178665000Y-91165000D01*
X177545000Y-91565000D02*
X183705000Y-91565000D01*
X177415000Y-92855000D02*
X177415000Y-92855000D01*
X178665000Y-91165000D02*
X178665000Y-91565000D01*
X177545000Y-91565000D02*
X177545000Y-91165000D01*
X177415000Y-95395000D02*
X177415000Y-95395000D01*
X177545000Y-96685000D02*
X177545000Y-91565000D01*
X178665000Y-91565000D02*
X177545000Y-91565000D01*
X183705000Y-96685000D02*
G75*
G03*
X183705000Y-91565000I0J2560000D01*
G01*
X110200000Y-88200000D02*
X107800000Y-88200000D01*
X110200000Y-85800000D02*
X110200000Y-88200000D01*
X107800000Y-88200000D02*
X107800000Y-85800000D01*
X107800000Y-85800000D02*
X110200000Y-85800000D01*
X154045000Y-110730000D02*
X154045000Y-110400000D01*
X160585000Y-107990000D02*
X154045000Y-107990000D01*
X160585000Y-110730000D02*
X154045000Y-110730000D01*
X154045000Y-107990000D02*
X154045000Y-108320000D01*
X160585000Y-110400000D02*
X160585000Y-110730000D01*
X160585000Y-108320000D02*
X160585000Y-107990000D01*
D15*
X68288000Y-92700000D02*
X68288000Y-91300000D01*
D14*
X133110000Y-102900000D02*
X133110000Y-100240000D01*
X137500000Y-125960000D02*
X137500000Y-100040000D01*
X94950000Y-125760000D02*
X133110000Y-125760000D01*
X94950000Y-125760000D02*
X94950000Y-123100000D01*
X133110000Y-125760000D02*
X133110000Y-123100000D01*
X92410000Y-102900000D02*
X133110000Y-102900000D01*
X92410000Y-100240000D02*
X133110000Y-100240000D01*
X94950000Y-123100000D02*
X133110000Y-123100000D01*
X92350000Y-125760000D02*
X92350000Y-124430000D01*
X82500000Y-100040000D02*
X82500000Y-125960000D01*
X82500000Y-125960000D02*
X137500000Y-125960000D01*
X92410000Y-102840000D02*
X92410000Y-100240000D01*
X93680000Y-125760000D02*
X92350000Y-125760000D01*
X137500000Y-100040000D02*
X82500000Y-100040000D01*
X63270000Y-145870000D02*
X63270000Y-145540000D01*
X56730000Y-143130000D02*
X63270000Y-143130000D01*
X56730000Y-145870000D02*
X63270000Y-145870000D01*
X63270000Y-143130000D02*
X63270000Y-143460000D01*
X56730000Y-145540000D02*
X56730000Y-145870000D01*
X56730000Y-143460000D02*
X56730000Y-143130000D01*
X78770000Y-129445000D02*
X78770000Y-129430000D01*
X78770000Y-131570000D02*
X78770000Y-131555000D01*
X78770000Y-129430000D02*
X74230000Y-129430000D01*
X78770000Y-131570000D02*
X74230000Y-131570000D01*
X74230000Y-129445000D02*
X74230000Y-129430000D01*
X74230000Y-131570000D02*
X74230000Y-131555000D01*
X93730000Y-127430000D02*
X98270000Y-127430000D01*
X98270000Y-129555000D02*
X98270000Y-129570000D01*
X93730000Y-129570000D02*
X98270000Y-129570000D01*
X98270000Y-127430000D02*
X98270000Y-127445000D01*
X93730000Y-129555000D02*
X93730000Y-129570000D01*
X93730000Y-127430000D02*
X93730000Y-127445000D01*
X77120000Y-105130000D02*
X77120000Y-105445000D01*
X71880000Y-107555000D02*
X71880000Y-107870000D01*
X77120000Y-107555000D02*
X77120000Y-107870000D01*
X71880000Y-107870000D02*
X77120000Y-107870000D01*
X71880000Y-105130000D02*
X77120000Y-105130000D01*
X71880000Y-105130000D02*
X71880000Y-105445000D01*
X144172000Y-93764000D02*
X144172000Y-93434000D01*
X144172000Y-91024000D02*
X144172000Y-91354000D01*
X150712000Y-93434000D02*
X150712000Y-93764000D01*
X150712000Y-91354000D02*
X150712000Y-91024000D01*
X150712000Y-93764000D02*
X144172000Y-93764000D01*
X150712000Y-91024000D02*
X144172000Y-91024000D01*
X90500000Y-140550000D02*
X88500000Y-140550000D01*
X88500000Y-140550000D02*
X88500000Y-136450000D01*
X90500000Y-136450000D02*
X90500000Y-140550000D01*
X88500000Y-136450000D02*
X90500000Y-136450000D01*
X103730000Y-135790000D02*
X110270000Y-135790000D01*
X103730000Y-138530000D02*
X110270000Y-138530000D01*
X110270000Y-135790000D02*
X110270000Y-136120000D01*
X103730000Y-138200000D02*
X103730000Y-138530000D01*
X110270000Y-138530000D02*
X110270000Y-138200000D01*
X103730000Y-136120000D02*
X103730000Y-135790000D01*
X89354000Y-132020000D02*
X89354000Y-132005000D01*
X84814000Y-132020000D02*
X84814000Y-132005000D01*
X84814000Y-129895000D02*
X84814000Y-129880000D01*
X89354000Y-129880000D02*
X84814000Y-129880000D01*
X89354000Y-129895000D02*
X89354000Y-129880000D01*
X89354000Y-132020000D02*
X84814000Y-132020000D01*
X73740000Y-81420000D02*
X72720000Y-81420000D01*
X71940000Y-82890000D02*
X71940000Y-79950000D01*
X67280000Y-79950000D02*
X67280000Y-82890000D01*
X71820000Y-82890000D02*
X71820000Y-79950000D01*
X67280000Y-82890000D02*
X72720000Y-82890000D01*
X72720000Y-79950000D02*
X67280000Y-79950000D01*
X66260000Y-81420000D02*
X67280000Y-81420000D01*
X71700000Y-82890000D02*
X71700000Y-79950000D01*
X72720000Y-82890000D02*
X72720000Y-79950000D01*
D15*
X48875000Y-124115000D02*
X48875000Y-140045000D01*
X64475000Y-124115000D02*
X70125000Y-124115000D01*
D18*
X66025000Y-122835000D02*
X66025000Y-122835000D01*
D15*
X70125000Y-124115000D02*
X70125000Y-140045000D01*
X48875000Y-140045000D02*
X60875000Y-140045000D01*
X70125000Y-140045000D02*
X64475000Y-140045000D01*
X60875000Y-124115000D02*
X48875000Y-124115000D01*
D18*
X66025000Y-122935000D02*
X66025000Y-122935000D01*
X66025000Y-122835000D02*
G75*
G03*
X66025000Y-122935000I0J-50000D01*
G01*
X66025000Y-122935000D02*
G75*
G03*
X66025000Y-122835000I0J50000D01*
G01*
D14*
X135560000Y-91682000D02*
X135560000Y-94482000D01*
X133560000Y-91682000D02*
X135560000Y-91682000D01*
X133560000Y-94482000D02*
X133560000Y-91682000D01*
X135560000Y-94482000D02*
X133560000Y-94482000D01*
X122359000Y-95992000D02*
X122359000Y-95124000D01*
X122439000Y-98592000D02*
X122439000Y-97672000D01*
X122719000Y-98739000D02*
X122719000Y-97672000D01*
X122880000Y-95992000D02*
X122880000Y-94864000D01*
X123440000Y-98909000D02*
X123440000Y-97672000D01*
X122559000Y-95992000D02*
X122559000Y-95002000D01*
X123480000Y-98911000D02*
X123480000Y-97672000D01*
X122039000Y-95992000D02*
X122039000Y-95394000D01*
X123040000Y-98848000D02*
X123040000Y-97672000D01*
X123320000Y-95992000D02*
X123320000Y-94765000D01*
X122319000Y-98512000D02*
X122319000Y-97672000D01*
X121479000Y-97202000D02*
X121479000Y-96462000D01*
X122559000Y-98662000D02*
X122559000Y-97672000D01*
X121999000Y-95992000D02*
X121999000Y-95436000D01*
X122960000Y-95992000D02*
X122960000Y-94838000D01*
X123120000Y-98866000D02*
X123120000Y-97672000D01*
X122119000Y-98348000D02*
X122119000Y-97672000D01*
X122960000Y-98826000D02*
X122960000Y-97672000D01*
X122920000Y-98814000D02*
X122920000Y-97672000D01*
X123560000Y-95992000D02*
X123560000Y-94752000D01*
X122719000Y-95992000D02*
X122719000Y-94925000D01*
X121599000Y-97600000D02*
X121599000Y-96064000D01*
X122799000Y-98772000D02*
X122799000Y-97672000D01*
X123320000Y-98899000D02*
X123320000Y-97672000D01*
X123000000Y-95992000D02*
X123000000Y-94827000D01*
X122839000Y-95992000D02*
X122839000Y-94878000D01*
X122199000Y-98419000D02*
X122199000Y-97672000D01*
X121999000Y-98228000D02*
X121999000Y-97672000D01*
X122279000Y-98482000D02*
X122279000Y-97672000D01*
X122479000Y-98617000D02*
X122479000Y-97672000D01*
X122119000Y-95992000D02*
X122119000Y-95316000D01*
X122599000Y-98683000D02*
X122599000Y-97672000D01*
X123520000Y-98912000D02*
X123520000Y-97672000D01*
X123360000Y-95992000D02*
X123360000Y-94761000D01*
X123240000Y-98888000D02*
X123240000Y-97672000D01*
X122159000Y-95992000D02*
X122159000Y-95280000D01*
X122920000Y-95992000D02*
X122920000Y-94850000D01*
X122279000Y-95992000D02*
X122279000Y-95182000D01*
X122399000Y-98567000D02*
X122399000Y-97672000D01*
X122599000Y-95992000D02*
X122599000Y-94981000D01*
X122239000Y-95992000D02*
X122239000Y-95213000D01*
X123480000Y-95992000D02*
X123480000Y-94753000D01*
X121839000Y-98032000D02*
X121839000Y-95632000D01*
X122519000Y-95992000D02*
X122519000Y-95024000D01*
X122799000Y-95992000D02*
X122799000Y-94892000D01*
X125629801Y-98227000D02*
X125629801Y-97827000D01*
X122239000Y-98451000D02*
X122239000Y-97672000D01*
X122479000Y-95992000D02*
X122479000Y-95047000D01*
X122639000Y-98702000D02*
X122639000Y-97672000D01*
X121559000Y-97496000D02*
X121559000Y-96168000D01*
X123360000Y-98903000D02*
X123360000Y-97672000D01*
X123080000Y-95992000D02*
X123080000Y-94807000D01*
X121639000Y-97691000D02*
X121639000Y-95973000D01*
X123200000Y-95992000D02*
X123200000Y-94782000D01*
X122639000Y-95992000D02*
X122639000Y-94962000D01*
X121879000Y-98086000D02*
X121879000Y-95578000D01*
X122759000Y-95992000D02*
X122759000Y-94908000D01*
X121959000Y-98183000D02*
X121959000Y-95481000D01*
X123200000Y-98882000D02*
X123200000Y-97672000D01*
X122839000Y-98786000D02*
X122839000Y-97672000D01*
X123400000Y-95992000D02*
X123400000Y-94758000D01*
X123520000Y-95992000D02*
X123520000Y-94752000D01*
X122359000Y-98540000D02*
X122359000Y-97672000D01*
X123120000Y-95992000D02*
X123120000Y-94798000D01*
X121759000Y-97912000D02*
X121759000Y-95752000D01*
X122039000Y-98270000D02*
X122039000Y-97672000D01*
X123560000Y-98912000D02*
X123560000Y-97672000D01*
X121519000Y-97369000D02*
X121519000Y-96295000D01*
X122439000Y-95992000D02*
X122439000Y-95072000D01*
X121919000Y-98136000D02*
X121919000Y-95528000D01*
X122159000Y-98384000D02*
X122159000Y-97672000D01*
X122679000Y-95992000D02*
X122679000Y-94943000D01*
X123280000Y-95992000D02*
X123280000Y-94770000D01*
X123080000Y-98857000D02*
X123080000Y-97672000D01*
X123240000Y-95992000D02*
X123240000Y-94776000D01*
X121799000Y-97974000D02*
X121799000Y-95690000D01*
X121719000Y-97845000D02*
X121719000Y-95819000D01*
X121679000Y-97772000D02*
X121679000Y-95892000D01*
X122079000Y-95992000D02*
X122079000Y-95354000D01*
X125829801Y-98027000D02*
X125429801Y-98027000D01*
X122079000Y-98310000D02*
X122079000Y-97672000D01*
X123160000Y-95992000D02*
X123160000Y-94790000D01*
X122519000Y-98640000D02*
X122519000Y-97672000D01*
X123400000Y-98906000D02*
X123400000Y-97672000D01*
X122880000Y-98800000D02*
X122880000Y-97672000D01*
X123440000Y-95992000D02*
X123440000Y-94755000D01*
X123160000Y-98874000D02*
X123160000Y-97672000D01*
X123000000Y-98837000D02*
X123000000Y-97672000D01*
X122199000Y-95992000D02*
X122199000Y-95245000D01*
X122679000Y-98721000D02*
X122679000Y-97672000D01*
X122759000Y-98756000D02*
X122759000Y-97672000D01*
X123280000Y-98894000D02*
X123280000Y-97672000D01*
X122319000Y-95992000D02*
X122319000Y-95152000D01*
X123040000Y-95992000D02*
X123040000Y-94816000D01*
X122399000Y-95992000D02*
X122399000Y-95097000D01*
X125680000Y-96832000D02*
G75*
G03*
X125680000Y-96832000I-2120000J0D01*
G01*
X156130000Y-120870000D02*
X156130000Y-120555000D01*
X161370000Y-118445000D02*
X161370000Y-118130000D01*
X156130000Y-118445000D02*
X156130000Y-118130000D01*
X161370000Y-120870000D02*
X156130000Y-120870000D01*
X161370000Y-118130000D02*
X156130000Y-118130000D01*
X161370000Y-120870000D02*
X161370000Y-120555000D01*
X148800000Y-129250000D02*
X144700000Y-129250000D01*
X144700000Y-129250000D02*
X144700000Y-127250000D01*
X148800000Y-127250000D02*
X148800000Y-129250000D01*
X144700000Y-127250000D02*
X148800000Y-127250000D01*
X70250000Y-110000000D02*
X66150000Y-110000000D01*
X66150000Y-108000000D02*
X70250000Y-108000000D01*
X70250000Y-108000000D02*
X70250000Y-110000000D01*
X66150000Y-110000000D02*
X66150000Y-108000000D01*
D15*
X68288000Y-105200000D02*
X68288000Y-103800000D01*
D14*
X129430000Y-89812000D02*
X129430000Y-96352000D01*
X126690000Y-89812000D02*
X126690000Y-96352000D01*
X126690000Y-96352000D02*
X127020000Y-96352000D01*
X129100000Y-89812000D02*
X129430000Y-89812000D01*
X127020000Y-89812000D02*
X126690000Y-89812000D01*
X129430000Y-96352000D02*
X129100000Y-96352000D01*
X96408000Y-98130000D02*
X96408000Y-95190000D01*
X96408000Y-95190000D02*
X90968000Y-95190000D01*
X90968000Y-95190000D02*
X90968000Y-98130000D01*
X95508000Y-98130000D02*
X95508000Y-95190000D01*
X89948000Y-96660000D02*
X90968000Y-96660000D01*
X95628000Y-98130000D02*
X95628000Y-95190000D01*
X90968000Y-98130000D02*
X96408000Y-98130000D01*
X95388000Y-98130000D02*
X95388000Y-95190000D01*
X97428000Y-96660000D02*
X96408000Y-96660000D01*
D15*
X68288000Y-95200000D02*
X68288000Y-93800000D01*
D14*
X160652000Y-87774000D02*
X154112000Y-87774000D01*
X160652000Y-90514000D02*
X154112000Y-90514000D01*
X154112000Y-90514000D02*
X154112000Y-90184000D01*
X160652000Y-88104000D02*
X160652000Y-87774000D01*
X160652000Y-90184000D02*
X160652000Y-90514000D01*
X154112000Y-87774000D02*
X154112000Y-88104000D01*
X79562000Y-94951599D02*
X80160000Y-94951599D01*
X79448000Y-95071599D02*
X80160000Y-95071599D01*
X78926000Y-96312599D02*
X80160000Y-96312599D01*
X81840000Y-95031599D02*
X82516000Y-95031599D01*
X78929000Y-96272599D02*
X80160000Y-96272599D01*
X79292000Y-95271599D02*
X80160000Y-95271599D01*
X80060000Y-94591599D02*
X81940000Y-94591599D01*
X79240000Y-95351599D02*
X80160000Y-95351599D01*
X81840000Y-95711599D02*
X82940000Y-95711599D01*
X81840000Y-96272599D02*
X83071000Y-96272599D01*
X79800000Y-94751599D02*
X82200000Y-94751599D01*
X78966000Y-96032599D02*
X80160000Y-96032599D01*
X81840000Y-96232599D02*
X83067000Y-96232599D01*
X81840000Y-96472599D02*
X83080000Y-96472599D01*
X78975000Y-95992599D02*
X80160000Y-95992599D01*
X79006000Y-95872599D02*
X80160000Y-95872599D01*
X79484000Y-95031599D02*
X80160000Y-95031599D01*
X78984000Y-95952599D02*
X80160000Y-95952599D01*
X79381000Y-95151599D02*
X80160000Y-95151599D01*
X78920000Y-96432599D02*
X80160000Y-96432599D01*
X78921000Y-96392599D02*
X80160000Y-96392599D01*
X81840000Y-96152599D02*
X83056000Y-96152599D01*
X79522000Y-94991599D02*
X80160000Y-94991599D01*
X79605000Y-98542400D02*
X80005000Y-98542400D01*
X79060000Y-95711599D02*
X80160000Y-95711599D01*
X81840000Y-95271599D02*
X82708000Y-95271599D01*
X79920000Y-94671599D02*
X82080000Y-94671599D01*
X78933000Y-96232599D02*
X80160000Y-96232599D01*
X80463000Y-94431599D02*
X81537000Y-94431599D01*
X79350000Y-95191599D02*
X80160000Y-95191599D01*
X81840000Y-96112599D02*
X83050000Y-96112599D01*
X81840000Y-96192599D02*
X83062000Y-96192599D01*
X81840000Y-95751599D02*
X82954000Y-95751599D01*
X80336000Y-94471599D02*
X81664000Y-94471599D01*
X79413000Y-95111599D02*
X80160000Y-95111599D01*
X79149000Y-95511599D02*
X80160000Y-95511599D01*
X81840000Y-95792599D02*
X82968000Y-95792599D01*
X81840000Y-96432599D02*
X83080000Y-96432599D01*
X81840000Y-95551599D02*
X82870000Y-95551599D01*
X81840000Y-96032599D02*
X83034000Y-96032599D01*
X80141000Y-94551599D02*
X81859000Y-94551599D01*
X81840000Y-96312599D02*
X83074000Y-96312599D01*
X81840000Y-95591599D02*
X82889000Y-95591599D01*
X79093000Y-95631599D02*
X80160000Y-95631599D01*
X81840000Y-95231599D02*
X82680000Y-95231599D01*
X79320000Y-95231599D02*
X80160000Y-95231599D01*
X80630000Y-94391599D02*
X81370000Y-94391599D01*
X81840000Y-95832599D02*
X82982000Y-95832599D01*
X81840000Y-95191599D02*
X82650000Y-95191599D01*
X81840000Y-94991599D02*
X82478000Y-94991599D01*
X79032000Y-95792599D02*
X80160000Y-95792599D01*
X81840000Y-95351599D02*
X82760000Y-95351599D01*
X79111000Y-95591599D02*
X80160000Y-95591599D01*
X79649000Y-94871599D02*
X82351000Y-94871599D01*
X81840000Y-95471599D02*
X82830000Y-95471599D01*
X79046000Y-95751599D02*
X80160000Y-95751599D01*
X79746000Y-94791599D02*
X82254000Y-94791599D01*
X79215000Y-95391599D02*
X80160000Y-95391599D01*
X78923000Y-96352599D02*
X80160000Y-96352599D01*
X79858000Y-94711599D02*
X82142000Y-94711599D01*
X80232000Y-94511599D02*
X81768000Y-94511599D01*
X81840000Y-96352599D02*
X83077000Y-96352599D01*
X79987000Y-94631599D02*
X82013000Y-94631599D01*
X81840000Y-95872599D02*
X82994000Y-95872599D01*
X81840000Y-95391599D02*
X82785000Y-95391599D01*
X78958000Y-96072599D02*
X80160000Y-96072599D01*
X79076000Y-95671599D02*
X80160000Y-95671599D01*
X81840000Y-95912599D02*
X83005000Y-95912599D01*
X81840000Y-95311599D02*
X82735000Y-95311599D01*
X81840000Y-94911599D02*
X82396000Y-94911599D01*
X79170000Y-95471599D02*
X80160000Y-95471599D01*
X79130000Y-95551599D02*
X80160000Y-95551599D01*
X81840000Y-95431599D02*
X82808000Y-95431599D01*
X81840000Y-95671599D02*
X82924000Y-95671599D01*
X81840000Y-95952599D02*
X83016000Y-95952599D01*
X81840000Y-96392599D02*
X83079000Y-96392599D01*
X81840000Y-94951599D02*
X82438000Y-94951599D01*
X81840000Y-96072599D02*
X83042000Y-96072599D01*
X78920000Y-96472599D02*
X80160000Y-96472599D01*
X81840000Y-95111599D02*
X82587000Y-95111599D01*
X78995000Y-95912599D02*
X80160000Y-95912599D01*
X81840000Y-95992599D02*
X83025000Y-95992599D01*
X79604000Y-94911599D02*
X80160000Y-94911599D01*
X79192000Y-95431599D02*
X80160000Y-95431599D01*
X81840000Y-95511599D02*
X82851000Y-95511599D01*
X78938000Y-96192599D02*
X80160000Y-96192599D01*
X78944000Y-96152599D02*
X80160000Y-96152599D01*
X79805000Y-98742400D02*
X79805000Y-98342400D01*
X79696000Y-94831599D02*
X82304000Y-94831599D01*
X81840000Y-95631599D02*
X82907000Y-95631599D01*
X81840000Y-95151599D02*
X82619000Y-95151599D01*
X79265000Y-95311599D02*
X80160000Y-95311599D01*
X78950000Y-96112599D02*
X80160000Y-96112599D01*
X81840000Y-95071599D02*
X82552000Y-95071599D01*
X79018000Y-95832599D02*
X80160000Y-95832599D01*
X83120000Y-96472599D02*
G75*
G03*
X83120000Y-96472599I-2120000J0D01*
G01*
X85782000Y-135168000D02*
X79242000Y-135168000D01*
X79242000Y-137908000D02*
X79242000Y-137578000D01*
X85782000Y-135498000D02*
X85782000Y-135168000D01*
X85782000Y-137578000D02*
X85782000Y-137908000D01*
X79242000Y-135168000D02*
X79242000Y-135498000D01*
X85782000Y-137908000D02*
X79242000Y-137908000D01*
D15*
X68288000Y-96300000D02*
X68288000Y-97700000D01*
D14*
X90186000Y-89746000D02*
X90171000Y-89746000D01*
X88046000Y-85206000D02*
X88046000Y-89746000D01*
X88061000Y-85206000D02*
X88046000Y-85206000D01*
X90186000Y-85206000D02*
X90171000Y-85206000D01*
X88061000Y-89746000D02*
X88046000Y-89746000D01*
X90186000Y-85206000D02*
X90186000Y-89746000D01*
X77120000Y-93130000D02*
X77120000Y-93445000D01*
X77120000Y-95555000D02*
X77120000Y-95870000D01*
X71880000Y-93130000D02*
X77120000Y-93130000D01*
X71880000Y-93130000D02*
X71880000Y-93445000D01*
X71880000Y-95555000D02*
X71880000Y-95870000D01*
X71880000Y-95870000D02*
X77120000Y-95870000D01*
X74480000Y-109680000D02*
X74480000Y-111920000D01*
X74600000Y-109680000D02*
X74600000Y-111920000D01*
X73880000Y-109680000D02*
X73880000Y-111920000D01*
X78770000Y-110800000D02*
X78120000Y-110800000D01*
X73230000Y-110800000D02*
X73880000Y-110800000D01*
X78120000Y-109680000D02*
X73880000Y-109680000D01*
X78120000Y-111920000D02*
X78120000Y-109680000D01*
X73880000Y-111920000D02*
X78120000Y-111920000D01*
X74720000Y-109680000D02*
X74720000Y-111920000D01*
X161205000Y-100685000D02*
X161205000Y-100370000D01*
X155965000Y-103110000D02*
X155965000Y-102795000D01*
X161205000Y-100370000D02*
X155965000Y-100370000D01*
X161205000Y-103110000D02*
X155965000Y-103110000D01*
X155965000Y-100685000D02*
X155965000Y-100370000D01*
X161205000Y-103110000D02*
X161205000Y-102795000D01*
X79242000Y-138470000D02*
X85782000Y-138470000D01*
X85782000Y-138470000D02*
X85782000Y-138800000D01*
X79242000Y-141210000D02*
X85782000Y-141210000D01*
X79242000Y-138800000D02*
X79242000Y-138470000D01*
X85782000Y-141210000D02*
X85782000Y-140880000D01*
X79242000Y-140880000D02*
X79242000Y-141210000D01*
X71880000Y-89880000D02*
X77120000Y-89880000D01*
X71880000Y-92305000D02*
X71880000Y-92620000D01*
X71880000Y-92620000D02*
X77120000Y-92620000D01*
X71880000Y-89880000D02*
X71880000Y-90195000D01*
X77120000Y-89880000D02*
X77120000Y-90195000D01*
X77120000Y-92305000D02*
X77120000Y-92620000D01*
X77120000Y-89055000D02*
X77120000Y-89370000D01*
X77120000Y-86630000D02*
X77120000Y-86945000D01*
X71880000Y-86630000D02*
X71880000Y-86945000D01*
X71880000Y-89055000D02*
X71880000Y-89370000D01*
X71880000Y-89370000D02*
X77120000Y-89370000D01*
X71880000Y-86630000D02*
X77120000Y-86630000D01*
X141752000Y-93594000D02*
X141752000Y-97694000D01*
X141752000Y-97694000D02*
X139752000Y-97694000D01*
X139752000Y-97694000D02*
X139752000Y-93594000D01*
X139752000Y-93594000D02*
X141752000Y-93594000D01*
X177545000Y-129265000D02*
X178665000Y-129265000D01*
X177545000Y-130955000D02*
X177545000Y-130955000D01*
X177415000Y-133495000D02*
X177415000Y-133495000D01*
X177415000Y-130955000D02*
X177545000Y-130955000D01*
X177545000Y-134785000D02*
X177545000Y-129665000D01*
X177545000Y-133495000D02*
X177415000Y-133495000D01*
X177545000Y-129665000D02*
X183705000Y-129665000D01*
X177545000Y-129665000D02*
X177545000Y-129265000D01*
X177545000Y-130955000D02*
X177415000Y-130955000D01*
X177415000Y-130955000D02*
X177415000Y-130955000D01*
X177545000Y-134785000D02*
X183705000Y-134785000D01*
X177545000Y-133495000D02*
X177545000Y-133495000D01*
X177415000Y-133495000D02*
X177545000Y-133495000D01*
X178665000Y-129665000D02*
X177545000Y-129665000D01*
X178665000Y-129265000D02*
X178665000Y-129665000D01*
X183705000Y-134785000D02*
G75*
G03*
X183705000Y-129665000I0J2560000D01*
G01*
X71880000Y-98870000D02*
X77120000Y-98870000D01*
X71880000Y-96130000D02*
X77120000Y-96130000D01*
X77120000Y-98555000D02*
X77120000Y-98870000D01*
X71880000Y-98555000D02*
X71880000Y-98870000D01*
X77120000Y-96130000D02*
X77120000Y-96445000D01*
X71880000Y-96130000D02*
X71880000Y-96445000D01*
X56730000Y-120870000D02*
X63270000Y-120870000D01*
X63270000Y-120870000D02*
X63270000Y-120540000D01*
X56730000Y-120540000D02*
X56730000Y-120870000D01*
X56730000Y-118460000D02*
X56730000Y-118130000D01*
X63270000Y-118130000D02*
X63270000Y-118460000D01*
X56730000Y-118130000D02*
X63270000Y-118130000D01*
X112693000Y-97990000D02*
X112693000Y-96660000D01*
X120433000Y-97990000D02*
X120433000Y-95330000D01*
X115293000Y-97990000D02*
X115293000Y-95330000D01*
X115293000Y-97990000D02*
X120433000Y-97990000D01*
X115293000Y-95330000D02*
X120433000Y-95330000D01*
X114023000Y-97990000D02*
X112693000Y-97990000D01*
X157960000Y-116550000D02*
X157960000Y-112950000D01*
X153509999Y-114750000D02*
G75*
G03*
X157948478Y-116588478I2600001J0D01*
G01*
X157948478Y-112911522D02*
G75*
G03*
X153510000Y-114750000I-1838478J-1838478D01*
G01*
X71880000Y-99130000D02*
X77120000Y-99130000D01*
X77120000Y-101555000D02*
X77120000Y-101870000D01*
X77120000Y-99130000D02*
X77120000Y-99445000D01*
X71880000Y-101555000D02*
X71880000Y-101870000D01*
X71880000Y-101870000D02*
X77120000Y-101870000D01*
X71880000Y-99130000D02*
X71880000Y-99445000D01*
D15*
X165000000Y-119950000D02*
X165000000Y-118550000D01*
D14*
X111300000Y-86200000D02*
X111300000Y-83800000D01*
X113700000Y-86200000D02*
X111300000Y-86200000D01*
X111300000Y-83800000D02*
X113700000Y-83800000D01*
X113700000Y-83800000D02*
X113700000Y-86200000D01*
X85506000Y-85246000D02*
X85521000Y-85246000D01*
X87631000Y-85246000D02*
X87646000Y-85246000D01*
X87631000Y-89786000D02*
X87646000Y-89786000D01*
X87646000Y-89786000D02*
X87646000Y-85246000D01*
X85506000Y-89786000D02*
X85521000Y-89786000D01*
X85506000Y-89786000D02*
X85506000Y-85246000D01*
D15*
X68288000Y-88800000D02*
X68288000Y-90200000D01*
X165000000Y-102440000D02*
X165000000Y-101040000D01*
D14*
X116530000Y-88548000D02*
X120630000Y-88548000D01*
X116530000Y-90548000D02*
X116530000Y-88548000D01*
X120630000Y-90548000D02*
X116530000Y-90548000D01*
X120630000Y-88548000D02*
X120630000Y-90548000D01*
D16*
X49967500Y-83655000D02*
X62167500Y-83655000D01*
X62167500Y-83655000D02*
X62167500Y-114465000D01*
X43967500Y-90910000D02*
X49967500Y-90910000D01*
X49967500Y-107210000D02*
X43967500Y-107210000D01*
X49967500Y-114465000D02*
X49967500Y-107210000D01*
X62167500Y-114465000D02*
X49967500Y-114465000D01*
X43967500Y-107210000D02*
X43967500Y-90910000D01*
X49967500Y-90910000D02*
X49967500Y-107210000D01*
X49967500Y-90910000D02*
X49967500Y-83655000D01*
D18*
X62937500Y-104600000D02*
G75*
G03*
X62937500Y-104600000I-50000J0D01*
G01*
D14*
X82292000Y-92740401D02*
X79684000Y-92740401D01*
X82242000Y-92780401D02*
X79734000Y-92780401D01*
X83067000Y-91179401D02*
X81828000Y-91179401D01*
X80148000Y-92140401D02*
X79180000Y-92140401D01*
X80148000Y-91980401D02*
X79099000Y-91980401D01*
X80148000Y-91900401D02*
X79064000Y-91900401D01*
X82183000Y-88829600D02*
X82183000Y-89229600D01*
X82928000Y-91860401D02*
X81828000Y-91860401D01*
X80148000Y-92100401D02*
X79158000Y-92100401D01*
X80148000Y-91259401D02*
X78914000Y-91259401D01*
X80148000Y-91860401D02*
X79048000Y-91860401D01*
X83050000Y-91379401D02*
X81828000Y-91379401D01*
X81928000Y-92980401D02*
X80048000Y-92980401D01*
X82001000Y-92940401D02*
X79975000Y-92940401D01*
X82773000Y-92180401D02*
X81828000Y-92180401D01*
X80148000Y-91299401D02*
X78917000Y-91299401D01*
X80148000Y-92660401D02*
X79592000Y-92660401D01*
X80148000Y-92420401D02*
X79369000Y-92420401D01*
X80148000Y-92300401D02*
X79280000Y-92300401D01*
X81652000Y-93100401D02*
X80324000Y-93100401D01*
X82956000Y-91779401D02*
X81828000Y-91779401D01*
X80148000Y-92500401D02*
X79436000Y-92500401D01*
X80148000Y-91099401D02*
X78908000Y-91099401D01*
X80148000Y-92260401D02*
X79253000Y-92260401D01*
X81756000Y-93060401D02*
X80220000Y-93060401D01*
X83062000Y-91259401D02*
X81828000Y-91259401D01*
X80148000Y-91820401D02*
X79034000Y-91820401D01*
X83044000Y-91419401D02*
X81828000Y-91419401D01*
X82068000Y-92900401D02*
X79908000Y-92900401D01*
X82130000Y-92860401D02*
X79846000Y-92860401D01*
X82540000Y-92500401D02*
X81828000Y-92500401D01*
X80148000Y-91779401D02*
X79020000Y-91779401D01*
X82383000Y-89029600D02*
X81983000Y-89029600D01*
X82384000Y-92660401D02*
X81828000Y-92660401D01*
X80148000Y-92540401D02*
X79472000Y-92540401D01*
X80148000Y-92580401D02*
X79510000Y-92580401D01*
X80148000Y-92380401D02*
X79338000Y-92380401D01*
X81358000Y-93180401D02*
X80618000Y-93180401D01*
X80148000Y-92220401D02*
X79228000Y-92220401D01*
X82818000Y-92100401D02*
X81828000Y-92100401D01*
X83059000Y-91299401D02*
X81828000Y-91299401D01*
X83022000Y-91539401D02*
X81828000Y-91539401D01*
X80148000Y-91339401D02*
X78921000Y-91339401D01*
X83055000Y-91339401D02*
X81828000Y-91339401D01*
X80148000Y-92340401D02*
X79308000Y-92340401D01*
X83038000Y-91459401D02*
X81828000Y-91459401D01*
X80148000Y-91619401D02*
X78972000Y-91619401D01*
X83004000Y-91619401D02*
X81828000Y-91619401D01*
X82877000Y-91980401D02*
X81828000Y-91980401D01*
X80148000Y-92020401D02*
X79118000Y-92020401D01*
X83030000Y-91499401D02*
X81828000Y-91499401D01*
X81847000Y-93020401D02*
X80129000Y-93020401D01*
X82607000Y-92420401D02*
X81828000Y-92420401D01*
X80148000Y-91940401D02*
X79081000Y-91940401D01*
X80148000Y-91379401D02*
X78926000Y-91379401D01*
X80148000Y-91179401D02*
X78909000Y-91179401D01*
X82723000Y-92260401D02*
X81828000Y-92260401D01*
X83068000Y-91139401D02*
X81828000Y-91139401D01*
X80148000Y-92460401D02*
X79401000Y-92460401D01*
X82942000Y-91820401D02*
X81828000Y-91820401D01*
X80148000Y-91579401D02*
X78963000Y-91579401D01*
X82796000Y-92140401D02*
X81828000Y-92140401D01*
X82982000Y-91699401D02*
X81828000Y-91699401D01*
X82839000Y-92060401D02*
X81828000Y-92060401D01*
X80148000Y-91539401D02*
X78954000Y-91539401D01*
X80148000Y-91499401D02*
X78946000Y-91499401D01*
X80148000Y-92060401D02*
X79137000Y-92060401D01*
X82748000Y-92220401D02*
X81828000Y-92220401D01*
X82575000Y-92460401D02*
X81828000Y-92460401D01*
X80148000Y-91699401D02*
X78994000Y-91699401D01*
X82339000Y-92700401D02*
X79637000Y-92700401D01*
X80148000Y-91739401D02*
X79006000Y-91739401D01*
X82895000Y-91940401D02*
X81828000Y-91940401D01*
X82188000Y-92820401D02*
X79788000Y-92820401D01*
X82993000Y-91659401D02*
X81828000Y-91659401D01*
X82466000Y-92580401D02*
X81828000Y-92580401D01*
X80148000Y-91219401D02*
X78911000Y-91219401D01*
X81525000Y-93140401D02*
X80451000Y-93140401D01*
X82504000Y-92540401D02*
X81828000Y-92540401D01*
X80148000Y-91659401D02*
X78983000Y-91659401D01*
X83068000Y-91099401D02*
X81828000Y-91099401D01*
X82912000Y-91900401D02*
X81828000Y-91900401D01*
X82970000Y-91739401D02*
X81828000Y-91739401D01*
X82858000Y-92020401D02*
X81828000Y-92020401D01*
X82696000Y-92300401D02*
X81828000Y-92300401D01*
X80148000Y-91419401D02*
X78932000Y-91419401D01*
X82426000Y-92620401D02*
X81828000Y-92620401D01*
X83065000Y-91219401D02*
X81828000Y-91219401D01*
X80148000Y-91139401D02*
X78908000Y-91139401D01*
X80148000Y-91459401D02*
X78938000Y-91459401D01*
X82638000Y-92380401D02*
X81828000Y-92380401D01*
X80148000Y-92620401D02*
X79550000Y-92620401D01*
X82668000Y-92340401D02*
X81828000Y-92340401D01*
X80148000Y-92180401D02*
X79203000Y-92180401D01*
X83013000Y-91579401D02*
X81828000Y-91579401D01*
X83108000Y-91099401D02*
G75*
G03*
X83108000Y-91099401I-2120000J0D01*
G01*
X74230000Y-132430000D02*
X78770000Y-132430000D01*
X74230000Y-134570000D02*
X78770000Y-134570000D01*
X74230000Y-134555000D02*
X74230000Y-134570000D01*
X74230000Y-132430000D02*
X74230000Y-132445000D01*
X78770000Y-132430000D02*
X78770000Y-132445000D01*
X78770000Y-134555000D02*
X78770000Y-134570000D01*
X71880000Y-104870000D02*
X77120000Y-104870000D01*
X77120000Y-102130000D02*
X77120000Y-102445000D01*
X77120000Y-104555000D02*
X77120000Y-104870000D01*
X71880000Y-104555000D02*
X71880000Y-104870000D01*
X71880000Y-102130000D02*
X71880000Y-102445000D01*
X71880000Y-102130000D02*
X77120000Y-102130000D01*
D15*
X165000000Y-106250000D02*
X165000000Y-104850000D01*
D14*
X125960000Y-90582000D02*
X123160000Y-90582000D01*
X123160000Y-88582000D02*
X125960000Y-88582000D01*
X123160000Y-90582000D02*
X123160000Y-88582000D01*
X125960000Y-88582000D02*
X125960000Y-90582000D01*
X109150000Y-95290000D02*
X109150000Y-95620000D01*
X109150000Y-98030000D02*
X109150000Y-97700000D01*
X102610000Y-95290000D02*
X109150000Y-95290000D01*
X102610000Y-98030000D02*
X109150000Y-98030000D01*
X102610000Y-97700000D02*
X102610000Y-98030000D01*
X102610000Y-95620000D02*
X102610000Y-95290000D01*
D15*
X165000000Y-123395000D02*
X165000000Y-121995000D01*
D14*
X115544401Y-135470000D02*
X115544401Y-136460000D01*
X115584401Y-135492000D02*
X115584401Y-136460000D01*
X116184401Y-135996000D02*
X116184401Y-138604000D01*
X116104401Y-138140000D02*
X116104401Y-138696000D01*
X115223401Y-135332000D02*
X115223401Y-136460000D01*
X115183401Y-135318000D02*
X115183401Y-136460000D01*
X114583401Y-138140000D02*
X114583401Y-139380000D01*
X115424401Y-135411000D02*
X115424401Y-136460000D01*
X116224401Y-136046000D02*
X116224401Y-138554000D01*
X115143401Y-138140000D02*
X115143401Y-139294000D01*
X115744401Y-138140000D02*
X115744401Y-139008000D01*
X115584401Y-138140000D02*
X115584401Y-139108000D01*
X116624401Y-136930000D02*
X116624401Y-137670000D01*
X115824401Y-135650000D02*
X115824401Y-136460000D01*
X115664401Y-135540000D02*
X115664401Y-136460000D01*
X114623401Y-135221000D02*
X114623401Y-136460000D01*
X115864401Y-135681000D02*
X115864401Y-136460000D01*
X114703401Y-138140000D02*
X114703401Y-139374000D01*
X115544401Y-138140000D02*
X115544401Y-139130000D01*
X115264401Y-138140000D02*
X115264401Y-139254000D01*
X116424401Y-136360000D02*
X116424401Y-138240000D01*
X115384401Y-135393000D02*
X115384401Y-136460000D01*
X114663401Y-135223000D02*
X114663401Y-136460000D01*
X115944401Y-135748000D02*
X115944401Y-136460000D01*
X115023401Y-138140000D02*
X115023401Y-139325000D01*
X115944401Y-138140000D02*
X115944401Y-138852000D01*
X115984401Y-138140000D02*
X115984401Y-138816000D01*
X114743401Y-138140000D02*
X114743401Y-139371000D01*
X116144401Y-135949000D02*
X116144401Y-138651000D01*
X115904401Y-138140000D02*
X115904401Y-138887000D01*
X114823401Y-138140000D02*
X114823401Y-139362000D01*
X115784401Y-138140000D02*
X115784401Y-138980000D01*
X115103401Y-138140000D02*
X115103401Y-139305000D01*
X116584401Y-136763000D02*
X116584401Y-137837000D01*
X112273600Y-136105000D02*
X112673600Y-136105000D01*
X116104401Y-135904000D02*
X116104401Y-136460000D01*
X115264401Y-135346000D02*
X115264401Y-136460000D01*
X114543401Y-138140000D02*
X114543401Y-139380000D01*
X114983401Y-135266000D02*
X114983401Y-136460000D01*
X115504401Y-138140000D02*
X115504401Y-139151000D01*
X115704401Y-138140000D02*
X115704401Y-139035000D01*
X115624401Y-138140000D02*
X115624401Y-139085000D01*
X114943401Y-138140000D02*
X114943401Y-139342000D01*
X116024401Y-138140000D02*
X116024401Y-138778000D01*
X116344401Y-136220000D02*
X116344401Y-138380000D01*
X115143401Y-135306000D02*
X115143401Y-136460000D01*
X116464401Y-136441000D02*
X116464401Y-138159000D01*
X116264401Y-136100000D02*
X116264401Y-138500000D01*
X114703401Y-135226000D02*
X114703401Y-136460000D01*
X115344401Y-138140000D02*
X115344401Y-139224000D01*
X115304401Y-135360000D02*
X115304401Y-136460000D01*
X115864401Y-138140000D02*
X115864401Y-138919000D01*
X116024401Y-135822000D02*
X116024401Y-136460000D01*
X116304401Y-136158000D02*
X116304401Y-138442000D01*
X115063401Y-135284000D02*
X115063401Y-136460000D01*
X116064401Y-135862000D02*
X116064401Y-136460000D01*
X114583401Y-135220000D02*
X114583401Y-136460000D01*
X115304401Y-138140000D02*
X115304401Y-139240000D01*
X115664401Y-138140000D02*
X115664401Y-139060000D01*
X114943401Y-135258000D02*
X114943401Y-136460000D01*
X114983401Y-138140000D02*
X114983401Y-139334000D01*
X114863401Y-135244000D02*
X114863401Y-136460000D01*
X114543401Y-135220000D02*
X114543401Y-136460000D01*
X114823401Y-135238000D02*
X114823401Y-136460000D01*
X114903401Y-135250000D02*
X114903401Y-136460000D01*
X112473600Y-135905000D02*
X112473600Y-136305000D01*
X114783401Y-138140000D02*
X114783401Y-139367000D01*
X115784401Y-135620000D02*
X115784401Y-136460000D01*
X114743401Y-135229000D02*
X114743401Y-136460000D01*
X115984401Y-135784000D02*
X115984401Y-136460000D01*
X115464401Y-135430000D02*
X115464401Y-136460000D01*
X115023401Y-135275000D02*
X115023401Y-136460000D01*
X115384401Y-138140000D02*
X115384401Y-139207000D01*
X115744401Y-135592000D02*
X115744401Y-136460000D01*
X116504401Y-136532000D02*
X116504401Y-138068000D01*
X115344401Y-135376000D02*
X115344401Y-136460000D01*
X116064401Y-138140000D02*
X116064401Y-138738000D01*
X114623401Y-138140000D02*
X114623401Y-139379000D01*
X114783401Y-135233000D02*
X114783401Y-136460000D01*
X115103401Y-135295000D02*
X115103401Y-136460000D01*
X115824401Y-138140000D02*
X115824401Y-138950000D01*
X115624401Y-135515000D02*
X115624401Y-136460000D01*
X115063401Y-138140000D02*
X115063401Y-139316000D01*
X115504401Y-135449000D02*
X115504401Y-136460000D01*
X115424401Y-138140000D02*
X115424401Y-139189000D01*
X114863401Y-138140000D02*
X114863401Y-139356000D01*
X116384401Y-136287000D02*
X116384401Y-138313000D01*
X115464401Y-138140000D02*
X115464401Y-139170000D01*
X115904401Y-135713000D02*
X115904401Y-136460000D01*
X116544401Y-136636000D02*
X116544401Y-137964000D01*
X115183401Y-138140000D02*
X115183401Y-139282000D01*
X115223401Y-138140000D02*
X115223401Y-139268000D01*
X114663401Y-138140000D02*
X114663401Y-139377000D01*
X115704401Y-135565000D02*
X115704401Y-136460000D01*
X114903401Y-138140000D02*
X114903401Y-139350000D01*
X116663401Y-137300000D02*
G75*
G03*
X116663401Y-137300000I-2120000J0D01*
G01*
X150200000Y-129250000D02*
X150200000Y-127250000D01*
X150200000Y-127250000D02*
X154300000Y-127250000D01*
X154300000Y-127250000D02*
X154300000Y-129250000D01*
X154300000Y-129250000D02*
X150200000Y-129250000D01*
X160712000Y-91354000D02*
X160712000Y-91024000D01*
X160712000Y-93764000D02*
X154172000Y-93764000D01*
X160712000Y-91024000D02*
X154172000Y-91024000D01*
X154172000Y-91024000D02*
X154172000Y-91354000D01*
X154172000Y-93764000D02*
X154172000Y-93434000D01*
X160712000Y-93434000D02*
X160712000Y-93764000D01*
X158010000Y-134014000D02*
X158010000Y-132364000D01*
X158010000Y-137664000D02*
X158010000Y-136014000D01*
X135030000Y-137664000D02*
X158010000Y-137664000D01*
X158010000Y-132364000D02*
X135030000Y-132364000D01*
X135030000Y-132364000D02*
X135030000Y-137664000D01*
X158010000Y-134014000D02*
G75*
G03*
X158010000Y-136014000I0J-1000000D01*
G01*
%LPC*%
D11*
X50000000Y-75832000D02*
X168872000Y-75832000D01*
X168872000Y-75832000D02*
X168872000Y-78880000D01*
X168872000Y-78880000D02*
X50000000Y-78880000D01*
X50000000Y-78880000D02*
X50000000Y-75832000D01*
G36*
X50000000Y-75832000D02*
G01*
X168872000Y-75832000D01*
X168872000Y-78880000D01*
X50000000Y-78880000D01*
X50000000Y-75832000D01*
G37*
X50000000Y-150000000D02*
X168872000Y-150000000D01*
X168872000Y-150000000D02*
X168872000Y-146952000D01*
X168872000Y-146952000D02*
X50000000Y-146952000D01*
X50000000Y-146952000D02*
X50000000Y-150000000D01*
G36*
X50000000Y-150000000D02*
G01*
X168872000Y-150000000D01*
X168872000Y-146952000D01*
X50000000Y-146952000D01*
X50000000Y-150000000D01*
G37*
D19*
X92720000Y-132090000D03*
D20*
X92720000Y-134630000D03*
X92720000Y-137170000D03*
X92720000Y-139710000D03*
X100340000Y-139710000D03*
X100340000Y-137170000D03*
X100340000Y-134630000D03*
X100340000Y-132090000D03*
D21*
X161252000Y-95644000D03*
D20*
X153632000Y-95644000D03*
D21*
X164046000Y-126632000D03*
D20*
X156426000Y-126632000D03*
D21*
X151252000Y-95644000D03*
D20*
X143632000Y-95644000D03*
D22*
X69788000Y-102000000D03*
X66788000Y-102000000D03*
D21*
X103000000Y-132000000D03*
X108000000Y-132000000D03*
X131560000Y-89272000D03*
D20*
X131560000Y-96892000D03*
D21*
X161192000Y-85894000D03*
D20*
X153572000Y-85894000D03*
D21*
X161085000Y-105550000D03*
X156085000Y-105550000D03*
X151252000Y-89144000D03*
D20*
X143632000Y-89144000D03*
D21*
X161250000Y-122695000D03*
X156250000Y-122695000D03*
D23*
X143505000Y-124455000D03*
D24*
X143505000Y-121915000D03*
X143505000Y-119375000D03*
X143505000Y-116835000D03*
X143505000Y-114295000D03*
X143505000Y-111755000D03*
X143505000Y-109215000D03*
X143505000Y-106675000D03*
X143505000Y-104135000D03*
X143505000Y-101595000D03*
D22*
X69788000Y-99500000D03*
X66788000Y-99500000D03*
D19*
X80988000Y-85036888D03*
D21*
X80988000Y-87036888D03*
D25*
X112500000Y-89500000D03*
D21*
X74930000Y-84722000D03*
D20*
X64770000Y-84722000D03*
D26*
X93470000Y-84976000D03*
D27*
X93470000Y-87516000D03*
X93470000Y-90056000D03*
D21*
X135598000Y-85992000D03*
D20*
X127978000Y-85992000D03*
D21*
X151192000Y-85894000D03*
D20*
X143572000Y-85894000D03*
D28*
X178500000Y-102372500D03*
D29*
X178500000Y-104912500D03*
X178500000Y-107452500D03*
X178500000Y-109992500D03*
X178500000Y-112532500D03*
X178500000Y-115072500D03*
X178500000Y-117612500D03*
X178500000Y-120152500D03*
X178500000Y-122692500D03*
X178500000Y-125232500D03*
D30*
X176335000Y-95395000D03*
D31*
X176335000Y-92855000D03*
D25*
X109000000Y-87000000D03*
D21*
X161125000Y-109360000D03*
D20*
X153505000Y-109360000D03*
D22*
X69788000Y-92000000D03*
X66788000Y-92000000D03*
D32*
X135350000Y-102290000D03*
X135350000Y-123630000D03*
X90060000Y-123630000D03*
X90060000Y-102290000D03*
D23*
X93680000Y-124430000D03*
D33*
X93680000Y-101570000D03*
D24*
X96220000Y-124430000D03*
X96220000Y-101570000D03*
X98760000Y-124430000D03*
X98760000Y-101570000D03*
X101300000Y-124430000D03*
X101300000Y-101570000D03*
X103840000Y-124430000D03*
X103840000Y-101570000D03*
X106380000Y-124430000D03*
X106380000Y-101570000D03*
X108920000Y-124430000D03*
X108920000Y-101570000D03*
X111460000Y-124430000D03*
X111460000Y-101570000D03*
X114000000Y-124430000D03*
X114000000Y-101570000D03*
X116540000Y-124430000D03*
X116540000Y-101570000D03*
X119080000Y-124430000D03*
X119080000Y-101570000D03*
X121620000Y-124430000D03*
X121620000Y-101570000D03*
X124160000Y-124430000D03*
X124160000Y-101570000D03*
X126700000Y-124430000D03*
X126700000Y-101570000D03*
X129240000Y-124430000D03*
X129240000Y-101570000D03*
X131780000Y-124430000D03*
X131780000Y-101570000D03*
D21*
X56190000Y-144500000D03*
D20*
X63810000Y-144500000D03*
D21*
X79000000Y-130500000D03*
X74000000Y-130500000D03*
X93500000Y-128500000D03*
X98500000Y-128500000D03*
X72000000Y-106500000D03*
X77000000Y-106500000D03*
X151252000Y-92394000D03*
D20*
X143632000Y-92394000D03*
D34*
X89500000Y-137200000D03*
X89500000Y-138500000D03*
X89500000Y-139800000D03*
D21*
X103190000Y-137160000D03*
D20*
X110810000Y-137160000D03*
D21*
X89584000Y-130950000D03*
X84584000Y-130950000D03*
D35*
X75080000Y-81420000D03*
D36*
X64920000Y-81420000D03*
D37*
X59675000Y-137795000D03*
X59675000Y-126365000D03*
D38*
X66025000Y-127635000D03*
D39*
X68565000Y-128905000D03*
X66025000Y-130175000D03*
X68565000Y-131445000D03*
X66025000Y-132715000D03*
X68565000Y-133985000D03*
X66025000Y-135255000D03*
X68565000Y-136525000D03*
D40*
X54775000Y-125755000D03*
X56295000Y-128295000D03*
X54775000Y-135865000D03*
X56295000Y-138405000D03*
D41*
X62725000Y-124205000D03*
X62725000Y-139955000D03*
D34*
X134560000Y-93732000D03*
X134560000Y-92432000D03*
D42*
X124310000Y-96832000D03*
D43*
X122810000Y-96832000D03*
D21*
X161250000Y-119500000D03*
X156250000Y-119500000D03*
D44*
X148050000Y-128250000D03*
X146750000Y-128250000D03*
X145450000Y-128250000D03*
X66900000Y-109000000D03*
X68200000Y-109000000D03*
X69500000Y-109000000D03*
D22*
X69788000Y-104500000D03*
X66788000Y-104500000D03*
D21*
X128060000Y-89272000D03*
D20*
X128060000Y-96892000D03*
D35*
X98768000Y-96660000D03*
D36*
X88608000Y-96660000D03*
D22*
X69788000Y-94500000D03*
X66788000Y-94500000D03*
D21*
X161192000Y-89144000D03*
D20*
X153572000Y-89144000D03*
D42*
X81000000Y-97222599D03*
D43*
X81000000Y-95722599D03*
D21*
X86322000Y-136538000D03*
D20*
X78702000Y-136538000D03*
D22*
X66788000Y-97000000D03*
X69788000Y-97000000D03*
D21*
X89116000Y-84976000D03*
X89116000Y-89976000D03*
X72000000Y-94500000D03*
X77000000Y-94500000D03*
D19*
X72190000Y-110800000D03*
D20*
X79810000Y-110800000D03*
D21*
X161085000Y-101740000D03*
X156085000Y-101740000D03*
X78702000Y-139840000D03*
D20*
X86322000Y-139840000D03*
D21*
X72000000Y-91250000D03*
X77000000Y-91250000D03*
X72000000Y-88000000D03*
X77000000Y-88000000D03*
D34*
X140752000Y-96944000D03*
X140752000Y-95644000D03*
X140752000Y-94344000D03*
D30*
X176335000Y-133495000D03*
D31*
X176335000Y-130955000D03*
D21*
X72000000Y-97500000D03*
X77000000Y-97500000D03*
X56190000Y-119500000D03*
D20*
X63810000Y-119500000D03*
D23*
X114023000Y-96660000D03*
D24*
X116563000Y-96660000D03*
X119103000Y-96660000D03*
D45*
X156110000Y-116020000D03*
D46*
X156110000Y-114750000D03*
X156110000Y-113480000D03*
D21*
X72000000Y-100500000D03*
X77000000Y-100500000D03*
D22*
X166500000Y-119250000D03*
X163500000Y-119250000D03*
D25*
X112500000Y-85000000D03*
D21*
X86576000Y-90016000D03*
X86576000Y-85016000D03*
D22*
X66788000Y-89500000D03*
X69788000Y-89500000D03*
X166500000Y-101740000D03*
X163500000Y-101740000D03*
D44*
X117280000Y-89548000D03*
X118580000Y-89548000D03*
X119880000Y-89548000D03*
D47*
X59467500Y-86560000D03*
X59467500Y-111560000D03*
D48*
X60887500Y-104600000D03*
D49*
X60887500Y-101830000D03*
X60887500Y-99060000D03*
X60887500Y-96290000D03*
X60887500Y-93520000D03*
X58047500Y-103215000D03*
X58047500Y-100445000D03*
X58047500Y-97675000D03*
X58047500Y-94905000D03*
D42*
X80988000Y-90349401D03*
D43*
X80988000Y-91849401D03*
D21*
X74000000Y-133500000D03*
X79000000Y-133500000D03*
X72000000Y-103500000D03*
X77000000Y-103500000D03*
D22*
X166500000Y-105550000D03*
X163500000Y-105550000D03*
D44*
X123910000Y-89582000D03*
X125210000Y-89582000D03*
D21*
X102070000Y-96660000D03*
D20*
X109690000Y-96660000D03*
D22*
X166500000Y-122695000D03*
X163500000Y-122695000D03*
D42*
X113793401Y-137300000D03*
D43*
X115293401Y-137300000D03*
D44*
X153550000Y-128250000D03*
X152250000Y-128250000D03*
X150950000Y-128250000D03*
D21*
X161252000Y-92394000D03*
D20*
X153632000Y-92394000D03*
D19*
X156680000Y-131204000D03*
D20*
X154140000Y-131204000D03*
X151600000Y-131204000D03*
X149060000Y-131204000D03*
X146520000Y-131204000D03*
X143980000Y-131204000D03*
X141440000Y-131204000D03*
X138900000Y-131204000D03*
X136360000Y-131204000D03*
X136360000Y-138824000D03*
X138900000Y-138824000D03*
X141440000Y-138824000D03*
X143980000Y-138824000D03*
X146520000Y-138824000D03*
X149060000Y-138824000D03*
X151600000Y-138824000D03*
X154140000Y-138824000D03*
X156680000Y-138824000D03*
M02*
